<?xml version="1.0" standalone="no"?>
<!DOCTYPE svg PUBLIC "-//W3C//DTD SVG 20010904//EN"
 "http://www.w3.org/TR/2001/REC-SVG-20010904/DTD/svg10.dtd">
<svg version="1.0" xmlns="http://www.w3.org/2000/svg"
 width="1000.000000pt" height="1000.000000pt" viewBox="0 0 1000.000000 1000.000000"
 preserveAspectRatio="xMidYMid meet">

<g transform="translate(0.000000,1000.000000) scale(0.100000,-0.100000)"
fill="#ffffff" stroke="none">
<path d="M5335 9020 c3 -5 17 -10 31 -10 13 0 24 5 24 10 0 6 -14 10 -31 10
-17 0 -28 -4 -24 -10z"/>
<path d="M5623 9013 c9 -2 23 -2 30 0 6 3 -1 5 -18 5 -16 0 -22 -2 -12 -5z"/>
<path d="M4234 8775 c-10 -25 4 -47 28 -43 17 2 24 11 26 31 3 23 0 27 -23 27
-14 0 -28 -7 -31 -15z"/>
<path d="M4512 8763 c2 -22 8 -28 28 -28 20 0 25 5 25 25 0 20 -6 26 -28 28
-26 3 -28 1 -25 -25z"/>
<path d="M4784 8775 c-10 -25 4 -47 28 -43 17 2 24 11 26 31 3 23 0 27 -23 27
-14 0 -28 -7 -31 -15z"/>
<path d="M5062 8763 c2 -22 8 -28 28 -28 20 0 25 5 25 25 0 20 -6 26 -28 28
-26 3 -28 1 -25 -25z"/>
<path d="M5334 8775 c-10 -25 4 -47 28 -43 17 2 24 11 26 31 3 23 0 27 -23 27
-14 0 -28 -7 -31 -15z"/>
<path d="M5612 8763 c2 -22 8 -28 28 -28 20 0 25 5 25 25 0 20 -6 26 -28 28
-26 3 -28 1 -25 -25z"/>
<path d="M5884 8775 c-10 -25 4 -47 28 -43 17 2 24 11 26 31 3 23 0 27 -23 27
-14 0 -28 -7 -31 -15z"/>
<path d="M6162 8763 c2 -22 8 -28 28 -28 20 0 25 5 25 25 0 20 -6 26 -28 28
-26 3 -28 1 -25 -25z"/>
<path d="M6432 8758 c3 -24 34 -36 50 -20 7 7 0 16 -22 27 -31 16 -32 16 -28
-7z"/>
<path d="M3695 8507 c-25 -19 -13 -47 20 -47 23 0 26 4 23 27 -4 32 -17 38
-43 20z"/>
<path d="M3967 8514 c-4 -4 -7 -18 -7 -31 0 -21 4 -24 28 -21 21 2 27 8 27 28
0 18 -6 26 -20 28 -12 2 -24 0 -28 -4z"/>
<path d="M4234 8506 c-10 -26 4 -46 31 -46 23 0 26 4 23 28 -3 31 -44 45 -54
18z"/>
<path d="M4517 8514 c-4 -4 -7 -18 -7 -31 0 -21 4 -24 28 -21 21 2 27 8 27 28
0 18 -6 26 -20 28 -12 2 -24 0 -28 -4z"/>
<path d="M4784 8506 c-10 -26 4 -46 31 -46 23 0 26 4 23 28 -3 31 -44 45 -54
18z"/>
<path d="M5067 8514 c-4 -4 -7 -18 -7 -31 0 -21 4 -24 28 -21 21 2 27 8 27 28
0 18 -6 26 -20 28 -12 2 -24 0 -28 -4z"/>
<path d="M5334 8506 c-10 -26 4 -46 31 -46 23 0 26 4 23 28 -3 31 -44 45 -54
18z"/>
<path d="M5617 8514 c-4 -4 -7 -18 -7 -31 0 -21 4 -24 28 -21 21 2 27 8 27 28
0 18 -6 26 -20 28 -12 2 -24 0 -28 -4z"/>
<path d="M5884 8506 c-10 -26 4 -46 31 -46 23 0 26 4 23 28 -3 31 -44 45 -54
18z"/>
<path d="M6167 8514 c-4 -4 -7 -18 -7 -31 0 -21 4 -24 28 -21 21 2 27 8 27 28
0 18 -6 26 -20 28 -12 2 -24 0 -28 -4z"/>
<path d="M6434 8506 c-10 -26 4 -46 31 -46 23 0 26 4 23 28 -3 31 -44 45 -54
18z"/>
<path d="M6717 8514 c-4 -4 -7 -18 -7 -31 0 -21 4 -24 28 -21 21 2 27 8 27 28
0 18 -6 26 -20 28 -12 2 -24 0 -28 -4z"/>
<path d="M3412 8213 c2 -22 8 -28 28 -28 20 0 25 5 25 25 0 20 -6 26 -28 28
-26 3 -28 1 -25 -25z"/>
<path d="M3684 8225 c-10 -25 4 -47 28 -43 17 2 24 11 26 31 3 23 0 27 -23 27
-14 0 -28 -7 -31 -15z"/>
<path d="M3962 8213 c2 -22 8 -28 28 -28 20 0 25 5 25 25 0 20 -6 26 -28 28
-26 3 -28 1 -25 -25z"/>
<path d="M4234 8225 c-10 -25 4 -47 28 -43 17 2 24 11 26 31 3 23 0 27 -23 27
-14 0 -28 -7 -31 -15z"/>
<path d="M4512 8213 c2 -22 8 -28 28 -28 20 0 25 5 25 25 0 20 -6 26 -28 28
-26 3 -28 1 -25 -25z"/>
<path d="M4784 8225 c-10 -25 4 -47 28 -43 17 2 24 11 26 31 3 23 0 27 -23 27
-14 0 -28 -7 -31 -15z"/>
<path d="M5062 8213 c2 -22 8 -28 28 -28 20 0 25 5 25 25 0 20 -6 26 -28 28
-26 3 -28 1 -25 -25z"/>
<path d="M5334 8225 c-10 -25 4 -47 28 -43 17 2 24 11 26 31 3 23 0 27 -23 27
-14 0 -28 -7 -31 -15z"/>
<path d="M5612 8213 c2 -22 8 -28 28 -28 20 0 25 5 25 25 0 20 -6 26 -28 28
-26 3 -28 1 -25 -25z"/>
<path d="M5884 8225 c-10 -25 4 -47 28 -43 17 2 24 11 26 31 3 23 0 27 -23 27
-14 0 -28 -7 -31 -15z"/>
<path d="M6162 8213 c2 -22 8 -28 28 -28 20 0 25 5 25 25 0 20 -6 26 -28 28
-26 3 -28 1 -25 -25z"/>
<path d="M6434 8225 c-10 -25 4 -47 28 -43 17 2 24 11 26 31 3 23 0 27 -23 27
-14 0 -28 -7 -31 -15z"/>
<path d="M6712 8213 c2 -22 8 -28 28 -28 20 0 25 5 25 25 0 20 -6 26 -28 28
-26 3 -28 1 -25 -25z"/>
<path d="M6984 8225 c-10 -25 4 -47 28 -43 17 2 24 11 26 31 3 23 0 27 -23 27
-14 0 -28 -7 -31 -15z"/>
<path d="M3134 7956 c-10 -26 4 -46 31 -46 23 0 26 4 23 28 -3 31 -44 45 -54
18z"/>
<path d="M3417 7964 c-4 -4 -7 -18 -7 -31 0 -21 4 -24 28 -21 21 2 27 8 27 28
0 18 -6 26 -20 28 -12 2 -24 0 -28 -4z"/>
<path d="M3684 7956 c-10 -26 4 -46 31 -46 23 0 26 4 23 28 -3 31 -44 45 -54
18z"/>
<path d="M3967 7964 c-4 -4 -7 -18 -7 -31 0 -21 4 -24 28 -21 21 2 27 8 27 28
0 18 -6 26 -20 28 -12 2 -24 0 -28 -4z"/>
<path d="M4234 7956 c-10 -26 4 -46 31 -46 23 0 26 4 23 28 -3 31 -44 45 -54
18z"/>
<path d="M4517 7964 c-4 -4 -7 -18 -7 -31 0 -21 4 -24 28 -21 21 2 27 8 27 28
0 18 -6 26 -20 28 -12 2 -24 0 -28 -4z"/>
<path d="M4784 7956 c-10 -26 4 -46 31 -46 23 0 26 4 23 28 -3 31 -44 45 -54
18z"/>
<path d="M5067 7964 c-4 -4 -7 -18 -7 -31 0 -21 4 -24 28 -21 21 2 27 8 27 28
0 18 -6 26 -20 28 -12 2 -24 0 -28 -4z"/>
<path d="M5334 7956 c-10 -26 4 -46 31 -46 23 0 26 4 23 28 -3 31 -44 45 -54
18z"/>
<path d="M5617 7964 c-4 -4 -7 -18 -7 -31 0 -21 4 -24 28 -21 21 2 27 8 27 28
0 18 -6 26 -20 28 -12 2 -24 0 -28 -4z"/>
<path d="M5884 7956 c-10 -26 4 -46 31 -46 23 0 26 4 23 28 -3 31 -44 45 -54
18z"/>
<path d="M6167 7964 c-4 -4 -7 -18 -7 -31 0 -21 4 -24 28 -21 21 2 27 8 27 28
0 18 -6 26 -20 28 -12 2 -24 0 -28 -4z"/>
<path d="M6434 7956 c-10 -26 4 -46 31 -46 23 0 26 4 23 28 -3 31 -44 45 -54
18z"/>
<path d="M6717 7964 c-4 -4 -7 -18 -7 -31 0 -21 4 -24 28 -21 21 2 27 8 27 28
0 18 -6 26 -20 28 -12 2 -24 0 -28 -4z"/>
<path d="M6984 7956 c-10 -26 4 -46 31 -46 23 0 26 4 23 28 -3 31 -44 45 -54
18z"/>
<path d="M7260 7937 c0 -20 5 -27 20 -27 11 0 20 4 20 8 0 5 -9 17 -20 27 -20
18 -20 17 -20 -8z"/>
<path d="M2864 7676 c-10 -26 4 -48 28 -44 17 2 23 10 23 28 0 18 -6 26 -23
28 -13 2 -25 -3 -28 -12z"/>
<path d="M3134 7675 c-10 -25 4 -47 28 -43 17 2 24 11 26 31 3 23 0 27 -23 27
-14 0 -28 -7 -31 -15z"/>
<path d="M3412 7663 c2 -22 8 -28 28 -28 20 0 25 5 25 25 0 20 -6 26 -28 28
-26 3 -28 1 -25 -25z"/>
<path d="M3684 7675 c-10 -25 4 -47 28 -43 17 2 24 11 26 31 3 23 0 27 -23 27
-14 0 -28 -7 -31 -15z"/>
<path d="M3962 7663 c2 -22 8 -28 28 -28 20 0 25 5 25 25 0 20 -6 26 -28 28
-26 3 -28 1 -25 -25z"/>
<path d="M4234 7675 c-10 -25 4 -47 28 -43 17 2 24 11 26 31 3 23 0 27 -23 27
-14 0 -28 -7 -31 -15z"/>
<path d="M4512 7663 c2 -22 8 -28 28 -28 20 0 25 5 25 25 0 20 -6 26 -28 28
-26 3 -28 1 -25 -25z"/>
<path d="M4784 7675 c-10 -25 4 -47 28 -43 17 2 24 11 26 31 3 23 0 27 -23 27
-14 0 -28 -7 -31 -15z"/>
<path d="M5062 7663 c2 -22 8 -28 28 -28 20 0 25 5 25 25 0 20 -6 26 -28 28
-26 3 -28 1 -25 -25z"/>
<path d="M5334 7675 c-10 -25 4 -47 28 -43 17 2 24 11 26 31 3 23 0 27 -23 27
-14 0 -28 -7 -31 -15z"/>
<path d="M5612 7663 c2 -22 8 -28 28 -28 20 0 25 5 25 25 0 20 -6 26 -28 28
-26 3 -28 1 -25 -25z"/>
<path d="M5884 7675 c-10 -25 4 -47 28 -43 17 2 24 11 26 31 3 23 0 27 -23 27
-14 0 -28 -7 -31 -15z"/>
<path d="M6162 7663 c2 -22 8 -28 28 -28 20 0 25 5 25 25 0 20 -6 26 -28 28
-26 3 -28 1 -25 -25z"/>
<path d="M6434 7675 c-10 -25 4 -47 28 -43 17 2 24 11 26 31 3 23 0 27 -23 27
-14 0 -28 -7 -31 -15z"/>
<path d="M6712 7663 c2 -22 8 -28 28 -28 20 0 25 5 25 25 0 20 -6 26 -28 28
-26 3 -28 1 -25 -25z"/>
<path d="M6984 7675 c-10 -25 4 -47 28 -43 17 2 24 11 26 31 3 23 0 27 -23 27
-14 0 -28 -7 -31 -15z"/>
<path d="M7262 7663 c2 -22 8 -28 28 -28 20 0 25 5 25 25 0 20 -6 26 -28 28
-26 3 -28 1 -25 -25z"/>
<path d="M2867 7414 c-4 -4 -7 -18 -7 -31 0 -21 4 -24 28 -21 21 2 27 8 27 28
0 18 -6 26 -20 28 -12 2 -24 0 -28 -4z"/>
<path d="M3134 7406 c-10 -26 4 -46 31 -46 23 0 26 4 23 28 -3 31 -44 45 -54
18z"/>
<path d="M3417 7414 c-4 -4 -7 -18 -7 -31 0 -21 4 -24 28 -21 21 2 27 8 27 28
0 18 -6 26 -20 28 -12 2 -24 0 -28 -4z"/>
<path d="M3684 7406 c-10 -26 4 -46 31 -46 23 0 26 4 23 28 -3 31 -44 45 -54
18z"/>
<path d="M3967 7414 c-4 -4 -7 -18 -7 -31 0 -21 4 -24 28 -21 21 2 27 8 27 28
0 18 -6 26 -20 28 -12 2 -24 0 -28 -4z"/>
<path d="M4234 7406 c-10 -26 4 -46 31 -46 23 0 26 4 23 28 -3 31 -44 45 -54
18z"/>
<path d="M4517 7414 c-4 -4 -7 -18 -7 -31 0 -21 4 -24 28 -21 21 2 27 8 27 28
0 18 -6 26 -20 28 -12 2 -24 0 -28 -4z"/>
<path d="M4784 7406 c-10 -26 4 -46 31 -46 23 0 26 4 23 28 -3 31 -44 45 -54
18z"/>
<path d="M5067 7414 c-4 -4 -7 -18 -7 -31 0 -21 4 -24 28 -21 21 2 27 8 27 28
0 18 -6 26 -20 28 -12 2 -24 0 -28 -4z"/>
<path d="M5334 7406 c-10 -26 4 -46 31 -46 23 0 26 4 23 28 -3 31 -44 45 -54
18z"/>
<path d="M5617 7414 c-4 -4 -7 -18 -7 -31 0 -21 4 -24 28 -21 21 2 27 8 27 28
0 18 -6 26 -20 28 -12 2 -24 0 -28 -4z"/>
<path d="M5884 7406 c-10 -26 4 -46 31 -46 23 0 26 4 23 28 -3 31 -44 45 -54
18z"/>
<path d="M6167 7414 c-4 -4 -7 -18 -7 -31 0 -21 4 -24 28 -21 21 2 27 8 27 28
0 18 -6 26 -20 28 -12 2 -24 0 -28 -4z"/>
<path d="M6434 7406 c-10 -26 4 -46 31 -46 23 0 26 4 23 28 -3 31 -44 45 -54
18z"/>
<path d="M6717 7414 c-4 -4 -7 -18 -7 -31 0 -21 4 -24 28 -21 21 2 27 8 27 28
0 18 -6 26 -20 28 -12 2 -24 0 -28 -4z"/>
<path d="M6984 7406 c-10 -26 4 -46 31 -46 23 0 26 4 23 28 -3 31 -44 45 -54
18z"/>
<path d="M7267 7414 c-4 -4 -7 -18 -7 -31 0 -21 4 -24 28 -21 21 2 27 8 27 28
0 18 -6 26 -20 28 -12 2 -24 0 -28 -4z"/>
<path d="M7534 7406 c-10 -26 4 -46 31 -46 23 0 26 4 23 28 -3 31 -44 45 -54
18z"/>
<path d="M2584 7125 c-10 -25 4 -47 28 -43 17 2 24 11 26 31 3 23 0 27 -23 27
-14 0 -28 -7 -31 -15z"/>
<path d="M2862 7113 c2 -22 8 -28 28 -28 20 0 25 5 25 25 0 20 -6 26 -28 28
-26 3 -28 1 -25 -25z"/>
<path d="M3134 7125 c-10 -25 4 -47 28 -43 17 2 24 11 26 31 3 23 0 27 -23 27
-14 0 -28 -7 -31 -15z"/>
<path d="M3412 7113 c2 -22 8 -28 28 -28 20 0 25 5 25 25 0 20 -6 26 -28 28
-26 3 -28 1 -25 -25z"/>
<path d="M3684 7125 c-10 -25 4 -47 28 -43 17 2 24 11 26 31 3 23 0 27 -23 27
-14 0 -28 -7 -31 -15z"/>
<path d="M3962 7113 c2 -22 8 -28 28 -28 20 0 25 5 25 25 0 20 -6 26 -28 28
-26 3 -28 1 -25 -25z"/>
<path d="M4234 7125 c-10 -25 4 -47 28 -43 17 2 24 11 26 31 3 23 0 27 -23 27
-14 0 -28 -7 -31 -15z"/>
<path d="M4512 7113 c2 -22 8 -28 28 -28 20 0 25 5 25 25 0 20 -6 26 -28 28
-26 3 -28 1 -25 -25z"/>
<path d="M4784 7125 c-10 -25 4 -47 28 -43 17 2 24 11 26 31 3 23 0 27 -23 27
-14 0 -28 -7 -31 -15z"/>
<path d="M5062 7113 c2 -22 8 -28 28 -28 20 0 25 5 25 25 0 20 -6 26 -28 28
-26 3 -28 1 -25 -25z"/>
<path d="M5334 7125 c-10 -25 4 -47 28 -43 17 2 24 11 26 31 3 23 0 27 -23 27
-14 0 -28 -7 -31 -15z"/>
<path d="M5612 7113 c2 -22 8 -28 28 -28 20 0 25 5 25 25 0 20 -6 26 -28 28
-26 3 -28 1 -25 -25z"/>
<path d="M5884 7125 c-10 -25 4 -47 28 -43 17 2 24 11 26 31 3 23 0 27 -23 27
-14 0 -28 -7 -31 -15z"/>
<path d="M6162 7113 c2 -22 8 -28 28 -28 20 0 25 5 25 25 0 20 -6 26 -28 28
-26 3 -28 1 -25 -25z"/>
<path d="M6434 7125 c-10 -25 4 -47 28 -43 17 2 24 11 26 31 3 23 0 27 -23 27
-14 0 -28 -7 -31 -15z"/>
<path d="M6712 7113 c2 -22 8 -28 28 -28 20 0 25 5 25 25 0 20 -6 26 -28 28
-26 3 -28 1 -25 -25z"/>
<path d="M6984 7125 c-10 -25 4 -47 28 -43 17 2 24 11 26 31 3 23 0 27 -23 27
-14 0 -28 -7 -31 -15z"/>
<path d="M7262 7113 c2 -22 8 -28 28 -28 20 0 25 5 25 25 0 20 -6 26 -28 28
-26 3 -28 1 -25 -25z"/>
<path d="M7534 7125 c-10 -25 4 -47 28 -43 17 2 24 11 26 31 3 23 0 27 -23 27
-14 0 -28 -7 -31 -15z"/>
<path d="M7812 7113 c2 -22 8 -28 28 -28 20 0 25 5 25 25 0 20 -6 26 -28 28
-26 3 -28 1 -25 -25z"/>
<path d="M2335 6840 c-16 -31 -16 -32 7 -28 24 3 36 34 20 50 -7 7 -16 0 -27
-22z"/>
<path d="M2584 6856 c-10 -26 4 -46 31 -46 23 0 26 4 23 28 -3 31 -44 45 -54
18z"/>
<path d="M2867 6864 c-4 -4 -7 -18 -7 -31 0 -21 4 -24 28 -21 21 2 27 8 27 28
0 18 -6 26 -20 28 -12 2 -24 0 -28 -4z"/>
<path d="M3134 6856 c-10 -26 4 -46 31 -46 23 0 26 4 23 28 -3 31 -44 45 -54
18z"/>
<path d="M3417 6864 c-4 -4 -7 -18 -7 -31 0 -21 4 -24 28 -21 21 2 27 8 27 28
0 18 -6 26 -20 28 -12 2 -24 0 -28 -4z"/>
<path d="M3684 6856 c-10 -26 4 -46 31 -46 23 0 26 4 23 28 -3 31 -44 45 -54
18z"/>
<path d="M3967 6864 c-4 -4 -7 -18 -7 -31 0 -21 4 -24 28 -21 21 2 27 8 27 28
0 18 -6 26 -20 28 -12 2 -24 0 -28 -4z"/>
<path d="M4234 6856 c-10 -26 4 -46 31 -46 23 0 26 4 23 28 -3 31 -44 45 -54
18z"/>
<path d="M4517 6864 c-4 -4 -7 -18 -7 -31 0 -21 4 -24 28 -21 21 2 27 8 27 28
0 18 -6 26 -20 28 -12 2 -24 0 -28 -4z"/>
<path d="M4784 6856 c-10 -26 4 -46 31 -46 23 0 26 4 23 28 -3 31 -44 45 -54
18z"/>
<path d="M5067 6864 c-4 -4 -7 -18 -7 -31 0 -21 4 -24 28 -21 21 2 27 8 27 28
0 18 -6 26 -20 28 -12 2 -24 0 -28 -4z"/>
<path d="M5334 6856 c-10 -26 4 -46 31 -46 23 0 26 4 23 28 -3 31 -44 45 -54
18z"/>
<path d="M5617 6864 c-4 -4 -7 -18 -7 -31 0 -21 4 -24 28 -21 21 2 27 8 27 28
0 18 -6 26 -20 28 -12 2 -24 0 -28 -4z"/>
<path d="M5884 6856 c-10 -26 4 -46 31 -46 23 0 26 4 23 28 -3 31 -44 45 -54
18z"/>
<path d="M6167 6864 c-4 -4 -7 -18 -7 -31 0 -21 4 -24 28 -21 21 2 27 8 27 28
0 18 -6 26 -20 28 -12 2 -24 0 -28 -4z"/>
<path d="M6434 6856 c-10 -26 4 -46 31 -46 23 0 26 4 23 28 -3 31 -44 45 -54
18z"/>
<path d="M6717 6864 c-4 -4 -7 -18 -7 -31 0 -21 4 -24 28 -21 21 2 27 8 27 28
0 18 -6 26 -20 28 -12 2 -24 0 -28 -4z"/>
<path d="M6984 6856 c-10 -26 4 -46 31 -46 23 0 26 4 23 28 -3 31 -44 45 -54
18z"/>
<path d="M7267 6864 c-4 -4 -7 -18 -7 -31 0 -21 4 -24 28 -21 21 2 27 8 27 28
0 18 -6 26 -20 28 -12 2 -24 0 -28 -4z"/>
<path d="M7534 6856 c-10 -26 4 -46 31 -46 23 0 26 4 23 28 -3 31 -44 45 -54
18z"/>
<path d="M7817 6864 c-4 -4 -7 -18 -7 -31 0 -21 4 -24 28 -21 21 2 27 8 27 28
0 18 -6 26 -20 28 -12 2 -24 0 -28 -4z"/>
<path d="M8084 6855 c-10 -25 4 -45 31 -45 17 0 25 5 25 18 0 36 -45 57 -56
27z"/>
<path d="M2312 6563 c2 -22 8 -28 28 -28 20 0 25 5 25 25 0 20 -6 26 -28 28
-26 3 -28 1 -25 -25z"/>
<path d="M2584 6575 c-10 -25 4 -47 28 -43 17 2 24 11 26 31 3 23 0 27 -23 27
-14 0 -28 -7 -31 -15z"/>
<path d="M2862 6563 c2 -22 8 -28 28 -28 20 0 25 5 25 25 0 20 -6 26 -28 28
-26 3 -28 1 -25 -25z"/>
<path d="M3134 6575 c-10 -25 4 -47 28 -43 17 2 24 11 26 31 3 23 0 27 -23 27
-14 0 -28 -7 -31 -15z"/>
<path d="M3412 6563 c2 -22 8 -28 28 -28 20 0 25 5 25 25 0 20 -6 26 -28 28
-26 3 -28 1 -25 -25z"/>
<path d="M3684 6575 c-10 -25 4 -47 28 -43 17 2 24 11 26 31 3 23 0 27 -23 27
-14 0 -28 -7 -31 -15z"/>
<path d="M3962 6563 c2 -22 8 -28 28 -28 20 0 25 5 25 25 0 20 -6 26 -28 28
-26 3 -28 1 -25 -25z"/>
<path d="M4234 6575 c-10 -25 4 -47 28 -43 17 2 24 11 26 31 3 23 0 27 -23 27
-14 0 -28 -7 -31 -15z"/>
<path d="M4512 6563 c2 -22 8 -28 28 -28 20 0 25 5 25 25 0 20 -6 26 -28 28
-26 3 -28 1 -25 -25z"/>
<path d="M4784 6575 c-10 -25 4 -47 28 -43 17 2 24 11 26 31 3 23 0 27 -23 27
-14 0 -28 -7 -31 -15z"/>
<path d="M5062 6563 c2 -22 8 -28 28 -28 20 0 25 5 25 25 0 20 -6 26 -28 28
-26 3 -28 1 -25 -25z"/>
<path d="M5334 6575 c-10 -25 4 -47 28 -43 17 2 24 11 26 31 3 23 0 27 -23 27
-14 0 -28 -7 -31 -15z"/>
<path d="M5612 6563 c2 -22 8 -28 28 -28 20 0 25 5 25 25 0 20 -6 26 -28 28
-26 3 -28 1 -25 -25z"/>
<path d="M5884 6575 c-10 -25 4 -47 28 -43 17 2 24 11 26 31 3 23 0 27 -23 27
-14 0 -28 -7 -31 -15z"/>
<path d="M6162 6563 c2 -22 8 -28 28 -28 20 0 25 5 25 25 0 20 -6 26 -28 28
-26 3 -28 1 -25 -25z"/>
<path d="M6434 6575 c-10 -25 4 -47 28 -43 17 2 24 11 26 31 3 23 0 27 -23 27
-14 0 -28 -7 -31 -15z"/>
<path d="M6712 6563 c2 -22 8 -28 28 -28 20 0 25 5 25 25 0 20 -6 26 -28 28
-26 3 -28 1 -25 -25z"/>
<path d="M6984 6575 c-10 -25 4 -47 28 -43 17 2 24 11 26 31 3 23 0 27 -23 27
-14 0 -28 -7 -31 -15z"/>
<path d="M7262 6563 c2 -22 8 -28 28 -28 20 0 25 5 25 25 0 20 -6 26 -28 28
-26 3 -28 1 -25 -25z"/>
<path d="M7534 6575 c-10 -25 4 -47 28 -43 17 2 24 11 26 31 3 23 0 27 -23 27
-14 0 -28 -7 -31 -15z"/>
<path d="M7812 6563 c2 -22 8 -28 28 -28 20 0 25 5 25 25 0 20 -6 26 -28 28
-26 3 -28 1 -25 -25z"/>
<path d="M8084 6575 c-10 -25 4 -47 28 -43 17 2 24 11 26 31 3 23 0 27 -23 27
-14 0 -28 -7 -31 -15z"/>
<path d="M8360 6551 c0 -5 5 -13 10 -16 6 -3 10 -2 10 4 0 5 -4 13 -10 16 -5
3 -10 2 -10 -4z"/>
<path d="M2317 6314 c-4 -4 -7 -18 -7 -31 0 -21 4 -24 28 -21 21 2 27 8 27 28
0 18 -6 26 -20 28 -12 2 -24 0 -28 -4z"/>
<path d="M2584 6306 c-10 -26 4 -46 31 -46 23 0 26 4 23 28 -3 31 -44 45 -54
18z"/>
<path d="M2867 6314 c-4 -4 -7 -18 -7 -31 0 -21 4 -24 28 -21 21 2 27 8 27 28
0 18 -6 26 -20 28 -12 2 -24 0 -28 -4z"/>
<path d="M3134 6306 c-10 -26 4 -46 31 -46 23 0 26 4 23 28 -3 31 -44 45 -54
18z"/>
<path d="M3417 6314 c-4 -4 -7 -18 -7 -31 0 -21 4 -24 28 -21 21 2 27 8 27 28
0 18 -6 26 -20 28 -12 2 -24 0 -28 -4z"/>
<path d="M3684 6306 c-10 -26 4 -46 31 -46 23 0 26 4 23 28 -3 31 -44 45 -54
18z"/>
<path d="M3967 6314 c-4 -4 -7 -18 -7 -31 0 -21 4 -24 28 -21 21 2 27 8 27 28
0 18 -6 26 -20 28 -12 2 -24 0 -28 -4z"/>
<path d="M4234 6306 c-10 -26 4 -46 31 -46 23 0 26 4 23 28 -3 31 -44 45 -54
18z"/>
<path d="M4517 6314 c-4 -4 -7 -18 -7 -31 0 -21 4 -24 28 -21 21 2 27 8 27 28
0 18 -6 26 -20 28 -12 2 -24 0 -28 -4z"/>
<path d="M4784 6306 c-10 -26 4 -46 31 -46 23 0 26 4 23 28 -3 31 -44 45 -54
18z"/>
<path d="M5067 6314 c-4 -4 -7 -18 -7 -31 0 -21 4 -24 28 -21 21 2 27 8 27 28
0 18 -6 26 -20 28 -12 2 -24 0 -28 -4z"/>
<path d="M5334 6306 c-10 -26 4 -46 31 -46 23 0 26 4 23 28 -3 31 -44 45 -54
18z"/>
<path d="M5617 6314 c-4 -4 -7 -18 -7 -31 0 -21 4 -24 28 -21 21 2 27 8 27 28
0 18 -6 26 -20 28 -12 2 -24 0 -28 -4z"/>
<path d="M5884 6306 c-10 -26 4 -46 31 -46 23 0 26 4 23 28 -3 31 -44 45 -54
18z"/>
<path d="M6167 6314 c-4 -4 -7 -18 -7 -31 0 -21 4 -24 28 -21 21 2 27 8 27 28
0 18 -6 26 -20 28 -12 2 -24 0 -28 -4z"/>
<path d="M6434 6306 c-10 -26 4 -46 31 -46 23 0 26 4 23 28 -3 31 -44 45 -54
18z"/>
<path d="M6717 6314 c-4 -4 -7 -18 -7 -31 0 -21 4 -24 28 -21 21 2 27 8 27 28
0 18 -6 26 -20 28 -12 2 -24 0 -28 -4z"/>
<path d="M6984 6306 c-10 -26 4 -46 31 -46 23 0 26 4 23 28 -3 31 -44 45 -54
18z"/>
<path d="M7267 6314 c-4 -4 -7 -18 -7 -31 0 -21 4 -24 28 -21 21 2 27 8 27 28
0 18 -6 26 -20 28 -12 2 -24 0 -28 -4z"/>
<path d="M7534 6306 c-10 -26 4 -46 31 -46 23 0 26 4 23 28 -3 31 -44 45 -54
18z"/>
<path d="M7817 6314 c-4 -4 -7 -18 -7 -31 0 -21 4 -24 28 -21 21 2 27 8 27 28
0 18 -6 26 -20 28 -12 2 -24 0 -28 -4z"/>
<path d="M8084 6306 c-10 -26 4 -46 31 -46 23 0 26 4 23 28 -3 31 -44 45 -54
18z"/>
<path d="M8367 6314 c-4 -4 -7 -18 -7 -31 0 -21 4 -24 28 -21 21 2 27 8 27 28
0 18 -6 26 -20 28 -12 2 -24 0 -28 -4z"/>
<path d="M2077 6286 c-4 -10 -5 -21 -2 -24 9 -9 17 6 13 25 -3 17 -4 17 -11
-1z"/>
<path d="M2034 6025 c-10 -25 4 -47 28 -43 17 2 24 11 26 31 3 23 0 27 -23 27
-14 0 -28 -7 -31 -15z"/>
<path d="M2312 6013 c2 -22 8 -28 28 -28 20 0 25 5 25 25 0 20 -6 26 -28 28
-26 3 -28 1 -25 -25z"/>
<path d="M2584 6025 c-10 -25 4 -47 28 -43 17 2 24 11 26 31 3 23 0 27 -23 27
-14 0 -28 -7 -31 -15z"/>
<path d="M2862 6013 c2 -22 8 -28 28 -28 20 0 25 5 25 25 0 20 -6 26 -28 28
-26 3 -28 1 -25 -25z"/>
<path d="M3134 6025 c-10 -25 4 -47 28 -43 17 2 24 11 26 31 3 23 0 27 -23 27
-14 0 -28 -7 -31 -15z"/>
<path d="M3412 6013 c2 -22 8 -28 28 -28 20 0 25 5 25 25 0 20 -6 26 -28 28
-26 3 -28 1 -25 -25z"/>
<path d="M3684 6025 c-10 -25 4 -47 28 -43 17 2 24 11 26 31 3 23 0 27 -23 27
-14 0 -28 -7 -31 -15z"/>
<path d="M3962 6013 c2 -22 8 -28 28 -28 20 0 25 5 25 25 0 20 -6 26 -28 28
-26 3 -28 1 -25 -25z"/>
<path d="M4234 6025 c-10 -25 4 -47 28 -43 17 2 24 11 26 31 3 23 0 27 -23 27
-14 0 -28 -7 -31 -15z"/>
<path d="M4512 6013 c2 -22 8 -28 28 -28 20 0 25 5 25 25 0 20 -6 26 -28 28
-26 3 -28 1 -25 -25z"/>
<path d="M4784 6025 c-10 -25 4 -47 28 -43 17 2 24 11 26 31 3 23 0 27 -23 27
-14 0 -28 -7 -31 -15z"/>
<path d="M5062 6013 c2 -22 8 -28 28 -28 20 0 25 5 25 25 0 20 -6 26 -28 28
-26 3 -28 1 -25 -25z"/>
<path d="M5334 6025 c-10 -25 4 -47 28 -43 17 2 24 11 26 31 3 23 0 27 -23 27
-14 0 -28 -7 -31 -15z"/>
<path d="M5612 6013 c2 -22 8 -28 28 -28 20 0 25 5 25 25 0 20 -6 26 -28 28
-26 3 -28 1 -25 -25z"/>
<path d="M5884 6025 c-10 -25 4 -47 28 -43 17 2 24 11 26 31 3 23 0 27 -23 27
-14 0 -28 -7 -31 -15z"/>
<path d="M6162 6013 c2 -22 8 -28 28 -28 20 0 25 5 25 25 0 20 -6 26 -28 28
-26 3 -28 1 -25 -25z"/>
<path d="M6434 6025 c-10 -25 4 -47 28 -43 17 2 24 11 26 31 3 23 0 27 -23 27
-14 0 -28 -7 -31 -15z"/>
<path d="M6712 6013 c2 -22 8 -28 28 -28 20 0 25 5 25 25 0 20 -6 26 -28 28
-26 3 -28 1 -25 -25z"/>
<path d="M6984 6025 c-10 -25 4 -47 28 -43 17 2 24 11 26 31 3 23 0 27 -23 27
-14 0 -28 -7 -31 -15z"/>
<path d="M7262 6013 c2 -22 8 -28 28 -28 20 0 25 5 25 25 0 20 -6 26 -28 28
-26 3 -28 1 -25 -25z"/>
<path d="M7534 6025 c-10 -25 4 -47 28 -43 17 2 24 11 26 31 3 23 0 27 -23 27
-14 0 -28 -7 -31 -15z"/>
<path d="M7812 6013 c2 -22 8 -28 28 -28 20 0 25 5 25 25 0 20 -6 26 -28 28
-26 3 -28 1 -25 -25z"/>
<path d="M8084 6025 c-10 -25 4 -47 28 -43 17 2 24 11 26 31 3 23 0 27 -23 27
-14 0 -28 -7 -31 -15z"/>
<path d="M8362 6013 c2 -22 8 -28 28 -28 20 0 25 5 25 25 0 20 -6 26 -28 28
-26 3 -28 1 -25 -25z"/>
<path d="M8634 6025 c-10 -25 4 -47 28 -43 17 2 24 11 26 31 3 23 0 27 -23 27
-14 0 -28 -7 -31 -15z"/>
<path d="M2034 5756 c-10 -26 4 -46 31 -46 23 0 26 4 23 28 -3 31 -44 45 -54
18z"/>
<path d="M2317 5764 c-4 -4 -7 -18 -7 -31 0 -21 4 -24 28 -21 21 2 27 8 27 28
0 18 -6 26 -20 28 -12 2 -24 0 -28 -4z"/>
<path d="M2584 5756 c-10 -26 4 -46 31 -46 23 0 26 4 23 28 -3 31 -44 45 -54
18z"/>
<path d="M2867 5764 c-4 -4 -7 -18 -7 -31 0 -21 4 -24 28 -21 21 2 27 8 27 28
0 18 -6 26 -20 28 -12 2 -24 0 -28 -4z"/>
<path d="M3134 5756 c-10 -26 4 -46 31 -46 23 0 26 4 23 28 -3 31 -44 45 -54
18z"/>
<path d="M3417 5764 c-4 -4 -7 -18 -7 -31 0 -21 4 -24 28 -21 21 2 27 8 27 28
0 18 -6 26 -20 28 -12 2 -24 0 -28 -4z"/>
<path d="M3684 5756 c-10 -26 4 -46 31 -46 23 0 26 4 23 28 -3 31 -44 45 -54
18z"/>
<path d="M3967 5764 c-4 -4 -7 -18 -7 -31 0 -21 4 -24 28 -21 21 2 27 8 27 28
0 18 -6 26 -20 28 -12 2 -24 0 -28 -4z"/>
<path d="M4234 5756 c-10 -26 4 -46 31 -46 23 0 26 4 23 28 -3 31 -44 45 -54
18z"/>
<path d="M4517 5764 c-4 -4 -7 -18 -7 -31 0 -21 4 -24 28 -21 21 2 27 8 27 28
0 18 -6 26 -20 28 -12 2 -24 0 -28 -4z"/>
<path d="M4784 5756 c-10 -26 4 -46 31 -46 23 0 26 4 23 28 -3 31 -44 45 -54
18z"/>
<path d="M5067 5764 c-4 -4 -7 -18 -7 -31 0 -21 4 -24 28 -21 21 2 27 8 27 28
0 18 -6 26 -20 28 -12 2 -24 0 -28 -4z"/>
<path d="M5334 5756 c-10 -26 4 -46 31 -46 23 0 26 4 23 28 -3 31 -44 45 -54
18z"/>
<path d="M5617 5764 c-4 -4 -7 -18 -7 -31 0 -21 4 -24 28 -21 21 2 27 8 27 28
0 18 -6 26 -20 28 -12 2 -24 0 -28 -4z"/>
<path d="M5884 5756 c-10 -26 4 -46 31 -46 23 0 26 4 23 28 -3 31 -44 45 -54
18z"/>
<path d="M6167 5764 c-4 -4 -7 -18 -7 -31 0 -21 4 -24 28 -21 21 2 27 8 27 28
0 18 -6 26 -20 28 -12 2 -24 0 -28 -4z"/>
<path d="M6434 5756 c-10 -26 4 -46 31 -46 23 0 26 4 23 28 -3 31 -44 45 -54
18z"/>
<path d="M6717 5764 c-4 -4 -7 -18 -7 -31 0 -21 4 -24 28 -21 21 2 27 8 27 28
0 18 -6 26 -20 28 -12 2 -24 0 -28 -4z"/>
<path d="M6984 5756 c-10 -26 4 -46 31 -46 23 0 26 4 23 28 -3 31 -44 45 -54
18z"/>
<path d="M7267 5764 c-4 -4 -7 -18 -7 -31 0 -21 4 -24 28 -21 21 2 27 8 27 28
0 18 -6 26 -20 28 -12 2 -24 0 -28 -4z"/>
<path d="M7534 5756 c-10 -26 4 -46 31 -46 23 0 26 4 23 28 -3 31 -44 45 -54
18z"/>
<path d="M7817 5764 c-4 -4 -7 -18 -7 -31 0 -21 4 -24 28 -21 21 2 27 8 27 28
0 18 -6 26 -20 28 -12 2 -24 0 -28 -4z"/>
<path d="M8084 5756 c-10 -26 4 -46 31 -46 23 0 26 4 23 28 -3 31 -44 45 -54
18z"/>
<path d="M8367 5764 c-4 -4 -7 -18 -7 -31 0 -21 4 -24 28 -21 21 2 27 8 27 28
0 18 -6 26 -20 28 -12 2 -24 0 -28 -4z"/>
<path d="M8634 5756 c-10 -26 4 -46 31 -46 23 0 26 4 23 28 -3 31 -44 45 -54
18z"/>
<path d="M8917 5764 c-4 -4 -7 -18 -7 -31 0 -21 4 -24 28 -21 21 2 27 8 27 28
0 18 -6 26 -20 28 -12 2 -24 0 -28 -4z"/>
<path d="M2034 5475 c-10 -25 4 -47 28 -43 17 2 24 11 26 31 3 23 0 27 -23 27
-14 0 -28 -7 -31 -15z"/>
<path d="M2312 5463 c2 -22 8 -28 28 -28 20 0 25 5 25 25 0 20 -6 26 -28 28
-26 3 -28 1 -25 -25z"/>
<path d="M2584 5475 c-10 -25 4 -47 28 -43 17 2 24 11 26 31 3 23 0 27 -23 27
-14 0 -28 -7 -31 -15z"/>
<path d="M2862 5463 c2 -22 8 -28 28 -28 20 0 25 5 25 25 0 20 -6 26 -28 28
-26 3 -28 1 -25 -25z"/>
<path d="M3134 5475 c-10 -25 4 -47 28 -43 17 2 24 11 26 31 3 23 0 27 -23 27
-14 0 -28 -7 -31 -15z"/>
<path d="M3412 5463 c2 -22 8 -28 28 -28 20 0 25 5 25 25 0 20 -6 26 -28 28
-26 3 -28 1 -25 -25z"/>
<path d="M3684 5475 c-10 -25 4 -47 28 -43 17 2 24 11 26 31 3 23 0 27 -23 27
-14 0 -28 -7 -31 -15z"/>
<path d="M3962 5463 c2 -22 8 -28 28 -28 20 0 25 5 25 25 0 20 -6 26 -28 28
-26 3 -28 1 -25 -25z"/>
<path d="M4234 5475 c-10 -25 4 -47 28 -43 17 2 24 11 26 31 3 23 0 27 -23 27
-14 0 -28 -7 -31 -15z"/>
<path d="M4512 5463 c2 -22 8 -28 28 -28 20 0 25 5 25 25 0 20 -6 26 -28 28
-26 3 -28 1 -25 -25z"/>
<path d="M4784 5475 c-10 -25 4 -47 28 -43 17 2 24 11 26 31 3 23 0 27 -23 27
-14 0 -28 -7 -31 -15z"/>
<path d="M5062 5463 c2 -22 8 -28 28 -28 20 0 25 5 25 25 0 20 -6 26 -28 28
-26 3 -28 1 -25 -25z"/>
<path d="M5334 5475 c-10 -25 4 -47 28 -43 17 2 24 11 26 31 3 23 0 27 -23 27
-14 0 -28 -7 -31 -15z"/>
<path d="M5612 5463 c2 -22 8 -28 28 -28 20 0 25 5 25 25 0 20 -6 26 -28 28
-26 3 -28 1 -25 -25z"/>
<path d="M5884 5475 c-10 -25 4 -47 28 -43 17 2 24 11 26 31 3 23 0 27 -23 27
-14 0 -28 -7 -31 -15z"/>
<path d="M6162 5463 c2 -22 8 -28 28 -28 20 0 25 5 25 25 0 20 -6 26 -28 28
-26 3 -28 1 -25 -25z"/>
<path d="M6434 5475 c-10 -25 4 -47 28 -43 17 2 24 11 26 31 3 23 0 27 -23 27
-14 0 -28 -7 -31 -15z"/>
<path d="M6712 5463 c2 -22 8 -28 28 -28 20 0 25 5 25 25 0 20 -6 26 -28 28
-26 3 -28 1 -25 -25z"/>
<path d="M6984 5475 c-10 -25 4 -47 28 -43 17 2 24 11 26 31 3 23 0 27 -23 27
-14 0 -28 -7 -31 -15z"/>
<path d="M7262 5463 c2 -22 8 -28 28 -28 20 0 25 5 25 25 0 20 -6 26 -28 28
-26 3 -28 1 -25 -25z"/>
<path d="M7534 5475 c-10 -25 4 -47 28 -43 17 2 24 11 26 31 3 23 0 27 -23 27
-14 0 -28 -7 -31 -15z"/>
<path d="M7812 5463 c2 -22 8 -28 28 -28 20 0 25 5 25 25 0 20 -6 26 -28 28
-26 3 -28 1 -25 -25z"/>
<path d="M8084 5475 c-10 -25 4 -47 28 -43 17 2 24 11 26 31 3 23 0 27 -23 27
-14 0 -28 -7 -31 -15z"/>
<path d="M8362 5463 c2 -22 8 -28 28 -28 20 0 25 5 25 25 0 20 -6 26 -28 28
-26 3 -28 1 -25 -25z"/>
<path d="M8634 5475 c-10 -25 4 -47 28 -43 17 2 24 11 26 31 3 23 0 27 -23 27
-14 0 -28 -7 -31 -15z"/>
<path d="M8912 5463 c2 -22 8 -28 28 -28 20 0 25 5 25 25 0 20 -6 26 -28 28
-26 3 -28 1 -25 -25z"/>
<path d="M1776 5198 c-9 -36 -8 -40 17 -36 16 2 22 10 22 28 0 33 -30 39 -39
8z"/>
<path d="M2034 5206 c-10 -26 4 -46 31 -46 23 0 26 4 23 28 -3 31 -44 45 -54
18z"/>
<path d="M2317 5214 c-4 -4 -7 -18 -7 -31 0 -21 4 -24 28 -21 21 2 27 8 27 28
0 18 -6 26 -20 28 -12 2 -24 0 -28 -4z"/>
<path d="M2584 5206 c-10 -26 4 -46 31 -46 23 0 26 4 23 28 -3 31 -44 45 -54
18z"/>
<path d="M2867 5214 c-4 -4 -7 -18 -7 -31 0 -21 4 -24 28 -21 21 2 27 8 27 28
0 18 -6 26 -20 28 -12 2 -24 0 -28 -4z"/>
<path d="M3134 5206 c-10 -26 4 -46 31 -46 23 0 26 4 23 28 -3 31 -44 45 -54
18z"/>
<path d="M3417 5214 c-4 -4 -7 -18 -7 -31 0 -21 4 -24 28 -21 21 2 27 8 27 28
0 18 -6 26 -20 28 -12 2 -24 0 -28 -4z"/>
<path d="M3684 5206 c-10 -26 4 -46 31 -46 23 0 26 4 23 28 -3 31 -44 45 -54
18z"/>
<path d="M3967 5214 c-4 -4 -7 -18 -7 -31 0 -21 4 -24 28 -21 21 2 27 8 27 28
0 18 -6 26 -20 28 -12 2 -24 0 -28 -4z"/>
<path d="M4234 5206 c-10 -26 4 -46 31 -46 23 0 26 4 23 28 -3 31 -44 45 -54
18z"/>
<path d="M4517 5214 c-4 -4 -7 -18 -7 -31 0 -21 4 -24 28 -21 21 2 27 8 27 28
0 18 -6 26 -20 28 -12 2 -24 0 -28 -4z"/>
<path d="M4784 5206 c-10 -26 4 -46 31 -46 23 0 26 4 23 28 -3 31 -44 45 -54
18z"/>
<path d="M5067 5214 c-4 -4 -7 -18 -7 -31 0 -21 4 -24 28 -21 21 2 27 8 27 28
0 18 -6 26 -20 28 -12 2 -24 0 -28 -4z"/>
<path d="M5334 5206 c-10 -26 4 -46 31 -46 23 0 26 4 23 28 -3 31 -44 45 -54
18z"/>
<path d="M5617 5214 c-4 -4 -7 -18 -7 -31 0 -21 4 -24 28 -21 21 2 27 8 27 28
0 18 -6 26 -20 28 -12 2 -24 0 -28 -4z"/>
<path d="M5884 5206 c-10 -26 4 -46 31 -46 23 0 26 4 23 28 -3 31 -44 45 -54
18z"/>
<path d="M6167 5214 c-4 -4 -7 -18 -7 -31 0 -21 4 -24 28 -21 21 2 27 8 27 28
0 18 -6 26 -20 28 -12 2 -24 0 -28 -4z"/>
<path d="M6434 5206 c-10 -26 4 -46 31 -46 23 0 26 4 23 28 -3 31 -44 45 -54
18z"/>
<path d="M6717 5214 c-4 -4 -7 -18 -7 -31 0 -21 4 -24 28 -21 21 2 27 8 27 28
0 18 -6 26 -20 28 -12 2 -24 0 -28 -4z"/>
<path d="M6984 5206 c-10 -26 4 -46 31 -46 23 0 26 4 23 28 -3 31 -44 45 -54
18z"/>
<path d="M7267 5214 c-4 -4 -7 -18 -7 -31 0 -21 4 -24 28 -21 21 2 27 8 27 28
0 18 -6 26 -20 28 -12 2 -24 0 -28 -4z"/>
<path d="M7534 5206 c-10 -26 4 -46 31 -46 23 0 26 4 23 28 -3 31 -44 45 -54
18z"/>
<path d="M7817 5214 c-4 -4 -7 -18 -7 -31 0 -21 4 -24 28 -21 21 2 27 8 27 28
0 18 -6 26 -20 28 -12 2 -24 0 -28 -4z"/>
<path d="M8084 5206 c-10 -26 4 -46 31 -46 23 0 26 4 23 28 -3 31 -44 45 -54
18z"/>
<path d="M8367 5214 c-4 -4 -7 -18 -7 -31 0 -21 4 -24 28 -21 21 2 27 8 27 28
0 18 -6 26 -20 28 -12 2 -24 0 -28 -4z"/>
<path d="M8634 5206 c-10 -26 4 -46 31 -46 23 0 26 4 23 28 -3 31 -44 45 -54
18z"/>
<path d="M8917 5214 c-4 -4 -7 -18 -7 -31 0 -21 4 -24 28 -21 21 2 27 8 27 28
0 18 -6 26 -20 28 -12 2 -24 0 -28 -4z"/>
<path d="M9184 5206 c-10 -26 4 -46 31 -46 23 0 26 4 23 28 -3 31 -44 45 -54
18z"/>
<path d="M1762 4913 c2 -22 8 -28 28 -28 20 0 25 5 25 25 0 20 -6 26 -28 28
-26 3 -28 1 -25 -25z"/>
<path d="M2034 4925 c-10 -25 4 -47 28 -43 17 2 24 11 26 31 3 23 0 27 -23 27
-14 0 -28 -7 -31 -15z"/>
<path d="M2312 4913 c2 -22 8 -28 28 -28 20 0 25 5 25 25 0 20 -6 26 -28 28
-26 3 -28 1 -25 -25z"/>
<path d="M2584 4925 c-10 -25 4 -47 28 -43 17 2 24 11 26 31 3 23 0 27 -23 27
-14 0 -28 -7 -31 -15z"/>
<path d="M2862 4913 c2 -22 8 -28 28 -28 20 0 25 5 25 25 0 20 -6 26 -28 28
-26 3 -28 1 -25 -25z"/>
<path d="M3134 4925 c-10 -25 4 -47 28 -43 17 2 24 11 26 31 3 23 0 27 -23 27
-14 0 -28 -7 -31 -15z"/>
<path d="M3412 4913 c2 -22 8 -28 28 -28 20 0 25 5 25 25 0 20 -6 26 -28 28
-26 3 -28 1 -25 -25z"/>
<path d="M3684 4925 c-10 -25 4 -47 28 -43 17 2 24 11 26 31 3 23 0 27 -23 27
-14 0 -28 -7 -31 -15z"/>
<path d="M3962 4913 c2 -22 8 -28 28 -28 20 0 25 5 25 25 0 20 -6 26 -28 28
-26 3 -28 1 -25 -25z"/>
<path d="M4234 4925 c-10 -25 4 -47 28 -43 17 2 24 11 26 31 3 23 0 27 -23 27
-14 0 -28 -7 -31 -15z"/>
<path d="M4512 4913 c2 -22 8 -28 28 -28 20 0 25 5 25 25 0 20 -6 26 -28 28
-26 3 -28 1 -25 -25z"/>
<path d="M4784 4925 c-10 -25 4 -47 28 -43 17 2 24 11 26 31 3 23 0 27 -23 27
-14 0 -28 -7 -31 -15z"/>
<path d="M5062 4913 c2 -22 8 -28 28 -28 20 0 25 5 25 25 0 20 -6 26 -28 28
-26 3 -28 1 -25 -25z"/>
<path d="M5334 4925 c-10 -25 4 -47 28 -43 17 2 24 11 26 31 3 23 0 27 -23 27
-14 0 -28 -7 -31 -15z"/>
<path d="M5612 4913 c2 -22 8 -28 28 -28 20 0 25 5 25 25 0 20 -6 26 -28 28
-26 3 -28 1 -25 -25z"/>
<path d="M5884 4925 c-10 -25 4 -47 28 -43 17 2 24 11 26 31 3 23 0 27 -23 27
-14 0 -28 -7 -31 -15z"/>
<path d="M6162 4913 c2 -22 8 -28 28 -28 20 0 25 5 25 25 0 20 -6 26 -28 28
-26 3 -28 1 -25 -25z"/>
<path d="M6434 4925 c-10 -25 4 -47 28 -43 17 2 24 11 26 31 3 23 0 27 -23 27
-14 0 -28 -7 -31 -15z"/>
<path d="M6712 4913 c2 -22 8 -28 28 -28 20 0 25 5 25 25 0 20 -6 26 -28 28
-26 3 -28 1 -25 -25z"/>
<path d="M6984 4925 c-10 -25 4 -47 28 -43 17 2 24 11 26 31 3 23 0 27 -23 27
-14 0 -28 -7 -31 -15z"/>
<path d="M7262 4913 c2 -22 8 -28 28 -28 20 0 25 5 25 25 0 20 -6 26 -28 28
-26 3 -28 1 -25 -25z"/>
<path d="M7534 4925 c-10 -25 4 -47 28 -43 17 2 24 11 26 31 3 23 0 27 -23 27
-14 0 -28 -7 -31 -15z"/>
<path d="M7812 4913 c2 -22 8 -28 28 -28 20 0 25 5 25 25 0 20 -6 26 -28 28
-26 3 -28 1 -25 -25z"/>
<path d="M8084 4925 c-10 -25 4 -47 28 -43 17 2 24 11 26 31 3 23 0 27 -23 27
-14 0 -28 -7 -31 -15z"/>
<path d="M8362 4913 c2 -22 8 -28 28 -28 20 0 25 5 25 25 0 20 -6 26 -28 28
-26 3 -28 1 -25 -25z"/>
<path d="M8634 4925 c-10 -25 4 -47 28 -43 17 2 24 11 26 31 3 23 0 27 -23 27
-14 0 -28 -7 -31 -15z"/>
<path d="M8912 4913 c2 -22 8 -28 28 -28 20 0 25 5 25 25 0 20 -6 26 -28 28
-26 3 -28 1 -25 -25z"/>
<path d="M9184 4925 c-10 -25 4 -47 28 -43 17 2 24 11 26 31 3 23 0 27 -23 27
-14 0 -28 -7 -31 -15z"/>
<path d="M1767 4664 c-4 -4 -7 -18 -7 -31 0 -21 4 -24 28 -21 21 2 27 8 27 28
0 18 -6 26 -20 28 -12 2 -24 0 -28 -4z"/>
<path d="M2034 4656 c-10 -26 4 -46 31 -46 23 0 26 4 23 28 -3 31 -44 45 -54
18z"/>
<path d="M2317 4664 c-4 -4 -7 -18 -7 -31 0 -21 4 -24 28 -21 21 2 27 8 27 28
0 18 -6 26 -20 28 -12 2 -24 0 -28 -4z"/>
<path d="M2584 4656 c-10 -26 4 -46 31 -46 23 0 26 4 23 28 -3 31 -44 45 -54
18z"/>
<path d="M2867 4664 c-4 -4 -7 -18 -7 -31 0 -21 4 -24 28 -21 21 2 27 8 27 28
0 18 -6 26 -20 28 -12 2 -24 0 -28 -4z"/>
<path d="M3134 4656 c-10 -26 4 -46 31 -46 23 0 26 4 23 28 -3 31 -44 45 -54
18z"/>
<path d="M3417 4664 c-4 -4 -7 -18 -7 -31 0 -21 4 -24 28 -21 21 2 27 8 27 28
0 18 -6 26 -20 28 -12 2 -24 0 -28 -4z"/>
<path d="M3684 4656 c-10 -26 4 -46 31 -46 23 0 26 4 23 28 -3 31 -44 45 -54
18z"/>
<path d="M3967 4664 c-4 -4 -7 -18 -7 -31 0 -21 4 -24 28 -21 21 2 27 8 27 28
0 18 -6 26 -20 28 -12 2 -24 0 -28 -4z"/>
<path d="M4234 4656 c-10 -26 4 -46 31 -46 23 0 26 4 23 28 -3 31 -44 45 -54
18z"/>
<path d="M4517 4664 c-4 -4 -7 -18 -7 -31 0 -21 4 -24 28 -21 21 2 27 8 27 28
0 18 -6 26 -20 28 -12 2 -24 0 -28 -4z"/>
<path d="M4784 4656 c-10 -26 4 -46 31 -46 23 0 26 4 23 28 -3 31 -44 45 -54
18z"/>
<path d="M5067 4664 c-4 -4 -7 -18 -7 -31 0 -21 4 -24 28 -21 21 2 27 8 27 28
0 18 -6 26 -20 28 -12 2 -24 0 -28 -4z"/>
<path d="M5334 4656 c-10 -26 4 -46 31 -46 23 0 26 4 23 28 -3 31 -44 45 -54
18z"/>
<path d="M5617 4664 c-4 -4 -7 -18 -7 -31 0 -21 4 -24 28 -21 21 2 27 8 27 28
0 18 -6 26 -20 28 -12 2 -24 0 -28 -4z"/>
<path d="M5884 4656 c-10 -26 4 -46 31 -46 23 0 26 4 23 28 -3 31 -44 45 -54
18z"/>
<path d="M6167 4664 c-4 -4 -7 -18 -7 -31 0 -21 4 -24 28 -21 21 2 27 8 27 28
0 18 -6 26 -20 28 -12 2 -24 0 -28 -4z"/>
<path d="M6434 4656 c-10 -26 4 -46 31 -46 23 0 26 4 23 28 -3 31 -44 45 -54
18z"/>
<path d="M6717 4664 c-4 -4 -7 -18 -7 -31 0 -21 4 -24 28 -21 21 2 27 8 27 28
0 18 -6 26 -20 28 -12 2 -24 0 -28 -4z"/>
<path d="M6984 4656 c-10 -26 4 -46 31 -46 23 0 26 4 23 28 -3 31 -44 45 -54
18z"/>
<path d="M7267 4664 c-4 -4 -7 -18 -7 -31 0 -21 4 -24 28 -21 21 2 27 8 27 28
0 18 -6 26 -20 28 -12 2 -24 0 -28 -4z"/>
<path d="M7534 4656 c-10 -26 4 -46 31 -46 23 0 26 4 23 28 -3 31 -44 45 -54
18z"/>
<path d="M7817 4664 c-4 -4 -7 -18 -7 -31 0 -21 4 -24 28 -21 21 2 27 8 27 28
0 18 -6 26 -20 28 -12 2 -24 0 -28 -4z"/>
<path d="M8084 4656 c-10 -26 4 -46 31 -46 23 0 26 4 23 28 -3 31 -44 45 -54
18z"/>
<path d="M8367 4664 c-4 -4 -7 -18 -7 -31 0 -21 4 -24 28 -21 21 2 27 8 27 28
0 18 -6 26 -20 28 -12 2 -24 0 -28 -4z"/>
<path d="M8634 4656 c-10 -26 4 -46 31 -46 23 0 26 4 23 28 -3 31 -44 45 -54
18z"/>
<path d="M8917 4664 c-4 -4 -7 -18 -7 -31 0 -21 4 -24 28 -21 21 2 27 8 27 28
0 18 -6 26 -20 28 -12 2 -24 0 -28 -4z"/>
<path d="M9184 4656 c-10 -26 4 -46 31 -46 23 0 26 4 23 28 -3 31 -44 45 -54
18z"/>
<path d="M1762 4363 c2 -22 8 -28 28 -28 20 0 25 5 25 25 0 20 -6 26 -28 28
-26 3 -28 1 -25 -25z"/>
<path d="M2034 4375 c-10 -25 4 -47 28 -43 17 2 24 11 26 31 3 23 0 27 -23 27
-14 0 -28 -7 -31 -15z"/>
<path d="M2312 4363 c2 -22 8 -28 28 -28 20 0 25 5 25 25 0 20 -6 26 -28 28
-26 3 -28 1 -25 -25z"/>
<path d="M2584 4375 c-10 -25 4 -47 28 -43 17 2 24 11 26 31 3 23 0 27 -23 27
-14 0 -28 -7 -31 -15z"/>
<path d="M2862 4363 c2 -22 8 -28 28 -28 20 0 25 5 25 25 0 20 -6 26 -28 28
-26 3 -28 1 -25 -25z"/>
<path d="M3134 4375 c-10 -25 4 -47 28 -43 17 2 24 11 26 31 3 23 0 27 -23 27
-14 0 -28 -7 -31 -15z"/>
<path d="M3412 4363 c2 -22 8 -28 28 -28 20 0 25 5 25 25 0 20 -6 26 -28 28
-26 3 -28 1 -25 -25z"/>
<path d="M3684 4375 c-10 -25 4 -47 28 -43 17 2 24 11 26 31 3 23 0 27 -23 27
-14 0 -28 -7 -31 -15z"/>
<path d="M3962 4363 c2 -22 8 -28 28 -28 20 0 25 5 25 25 0 20 -6 26 -28 28
-26 3 -28 1 -25 -25z"/>
<path d="M4234 4375 c-10 -25 4 -47 28 -43 17 2 24 11 26 31 3 23 0 27 -23 27
-14 0 -28 -7 -31 -15z"/>
<path d="M4512 4363 c2 -22 8 -28 28 -28 20 0 25 5 25 25 0 20 -6 26 -28 28
-26 3 -28 1 -25 -25z"/>
<path d="M4784 4375 c-10 -25 4 -47 28 -43 17 2 24 11 26 31 3 23 0 27 -23 27
-14 0 -28 -7 -31 -15z"/>
<path d="M5062 4363 c2 -22 8 -28 28 -28 20 0 25 5 25 25 0 20 -6 26 -28 28
-26 3 -28 1 -25 -25z"/>
<path d="M5334 4375 c-10 -25 4 -47 28 -43 17 2 24 11 26 31 3 23 0 27 -23 27
-14 0 -28 -7 -31 -15z"/>
<path d="M5612 4363 c2 -22 8 -28 28 -28 20 0 25 5 25 25 0 20 -6 26 -28 28
-26 3 -28 1 -25 -25z"/>
<path d="M5884 4375 c-10 -25 4 -47 28 -43 17 2 24 11 26 31 3 23 0 27 -23 27
-14 0 -28 -7 -31 -15z"/>
<path d="M6162 4363 c2 -22 8 -28 28 -28 20 0 25 5 25 25 0 20 -6 26 -28 28
-26 3 -28 1 -25 -25z"/>
<path d="M6434 4375 c-10 -25 4 -47 28 -43 17 2 24 11 26 31 3 23 0 27 -23 27
-14 0 -28 -7 -31 -15z"/>
<path d="M6712 4363 c2 -22 8 -28 28 -28 20 0 25 5 25 25 0 20 -6 26 -28 28
-26 3 -28 1 -25 -25z"/>
<path d="M6984 4375 c-10 -25 4 -47 28 -43 17 2 24 11 26 31 3 23 0 27 -23 27
-14 0 -28 -7 -31 -15z"/>
<path d="M7262 4363 c2 -22 8 -28 28 -28 20 0 25 5 25 25 0 20 -6 26 -28 28
-26 3 -28 1 -25 -25z"/>
<path d="M7534 4375 c-10 -25 4 -47 28 -43 17 2 24 11 26 31 3 23 0 27 -23 27
-14 0 -28 -7 -31 -15z"/>
<path d="M7812 4363 c2 -22 8 -28 28 -28 20 0 25 5 25 25 0 20 -6 26 -28 28
-26 3 -28 1 -25 -25z"/>
<path d="M8084 4375 c-10 -25 4 -47 28 -43 17 2 24 11 26 31 3 23 0 27 -23 27
-14 0 -28 -7 -31 -15z"/>
<path d="M8362 4363 c2 -22 8 -28 28 -28 20 0 25 5 25 25 0 20 -6 26 -28 28
-26 3 -28 1 -25 -25z"/>
<path d="M8634 4375 c-10 -25 4 -47 28 -43 17 2 24 11 26 31 3 23 0 27 -23 27
-14 0 -28 -7 -31 -15z"/>
<path d="M8912 4363 c2 -22 8 -28 28 -28 20 0 25 5 25 25 0 20 -6 26 -28 28
-26 3 -28 1 -25 -25z"/>
<path d="M9184 4375 c-10 -25 4 -47 28 -43 17 2 24 11 26 31 3 23 0 27 -23 27
-14 0 -28 -7 -31 -15z"/>
<path d="M1767 4114 c-4 -4 -7 -18 -7 -31 0 -21 4 -24 28 -21 21 2 27 8 27 28
0 18 -6 26 -20 28 -12 2 -24 0 -28 -4z"/>
<path d="M2034 4106 c-10 -26 4 -46 31 -46 23 0 26 4 23 28 -3 31 -44 45 -54
18z"/>
<path d="M2317 4114 c-4 -4 -7 -18 -7 -31 0 -21 4 -24 28 -21 21 2 27 8 27 28
0 18 -6 26 -20 28 -12 2 -24 0 -28 -4z"/>
<path d="M2584 4106 c-10 -26 4 -46 31 -46 23 0 26 4 23 28 -3 31 -44 45 -54
18z"/>
<path d="M2867 4114 c-4 -4 -7 -18 -7 -31 0 -21 4 -24 28 -21 21 2 27 8 27 28
0 18 -6 26 -20 28 -12 2 -24 0 -28 -4z"/>
<path d="M3134 4106 c-10 -26 4 -46 31 -46 23 0 26 4 23 28 -3 31 -44 45 -54
18z"/>
<path d="M3417 4114 c-4 -4 -7 -18 -7 -31 0 -21 4 -24 28 -21 21 2 27 8 27 28
0 18 -6 26 -20 28 -12 2 -24 0 -28 -4z"/>
<path d="M3684 4106 c-10 -26 4 -46 31 -46 23 0 26 4 23 28 -3 31 -44 45 -54
18z"/>
<path d="M3967 4114 c-4 -4 -7 -18 -7 -31 0 -21 4 -24 28 -21 21 2 27 8 27 28
0 18 -6 26 -20 28 -12 2 -24 0 -28 -4z"/>
<path d="M4234 4106 c-10 -26 4 -46 31 -46 23 0 26 4 23 28 -3 31 -44 45 -54
18z"/>
<path d="M4517 4114 c-4 -4 -7 -18 -7 -31 0 -21 4 -24 28 -21 21 2 27 8 27 28
0 18 -6 26 -20 28 -12 2 -24 0 -28 -4z"/>
<path d="M4784 4106 c-10 -26 4 -46 31 -46 23 0 26 4 23 28 -3 31 -44 45 -54
18z"/>
<path d="M5067 4114 c-4 -4 -7 -18 -7 -31 0 -21 4 -24 28 -21 21 2 27 8 27 28
0 18 -6 26 -20 28 -12 2 -24 0 -28 -4z"/>
<path d="M5334 4106 c-10 -26 4 -46 31 -46 23 0 26 4 23 28 -3 31 -44 45 -54
18z"/>
<path d="M5617 4114 c-4 -4 -7 -18 -7 -31 0 -21 4 -24 28 -21 21 2 27 8 27 28
0 18 -6 26 -20 28 -12 2 -24 0 -28 -4z"/>
<path d="M5884 4106 c-10 -26 4 -46 31 -46 23 0 26 4 23 28 -3 31 -44 45 -54
18z"/>
<path d="M6167 4114 c-4 -4 -7 -18 -7 -31 0 -21 4 -24 28 -21 21 2 27 8 27 28
0 18 -6 26 -20 28 -12 2 -24 0 -28 -4z"/>
<path d="M6434 4106 c-10 -26 4 -46 31 -46 23 0 26 4 23 28 -3 31 -44 45 -54
18z"/>
<path d="M6717 4114 c-4 -4 -7 -18 -7 -31 0 -21 4 -24 28 -21 21 2 27 8 27 28
0 18 -6 26 -20 28 -12 2 -24 0 -28 -4z"/>
<path d="M6984 4106 c-10 -26 4 -46 31 -46 23 0 26 4 23 28 -3 31 -44 45 -54
18z"/>
<path d="M7267 4114 c-4 -4 -7 -18 -7 -31 0 -21 4 -24 28 -21 21 2 27 8 27 28
0 18 -6 26 -20 28 -12 2 -24 0 -28 -4z"/>
<path d="M7534 4106 c-10 -26 4 -46 31 -46 23 0 26 4 23 28 -3 31 -44 45 -54
18z"/>
<path d="M7817 4114 c-4 -4 -7 -18 -7 -31 0 -21 4 -24 28 -21 21 2 27 8 27 28
0 18 -6 26 -20 28 -12 2 -24 0 -28 -4z"/>
<path d="M8084 4106 c-10 -26 4 -46 31 -46 23 0 26 4 23 28 -3 31 -44 45 -54
18z"/>
<path d="M8367 4114 c-4 -4 -7 -18 -7 -31 0 -21 4 -24 28 -21 21 2 27 8 27 28
0 18 -6 26 -20 28 -12 2 -24 0 -28 -4z"/>
<path d="M8634 4106 c-10 -26 4 -46 31 -46 23 0 26 4 23 28 -3 31 -44 45 -54
18z"/>
<path d="M8917 4114 c-4 -4 -7 -18 -7 -31 0 -21 4 -24 28 -21 21 2 27 8 27 28
0 18 -6 26 -20 28 -12 2 -24 0 -28 -4z"/>
<path d="M9184 4106 c-10 -26 4 -46 31 -46 23 0 26 4 23 28 -3 31 -44 45 -54
18z"/>
<path d="M1762 3813 c2 -22 8 -28 28 -28 20 0 25 5 25 25 0 20 -6 26 -28 28
-26 3 -28 1 -25 -25z"/>
<path d="M2034 3825 c-10 -25 4 -47 28 -43 17 2 24 11 26 31 3 23 0 27 -23 27
-14 0 -28 -7 -31 -15z"/>
<path d="M2312 3813 c2 -22 8 -28 28 -28 20 0 25 5 25 25 0 20 -6 26 -28 28
-26 3 -28 1 -25 -25z"/>
<path d="M2584 3825 c-10 -25 4 -47 28 -43 17 2 24 11 26 31 3 23 0 27 -23 27
-14 0 -28 -7 -31 -15z"/>
<path d="M2862 3813 c2 -22 8 -28 28 -28 20 0 25 5 25 25 0 20 -6 26 -28 28
-26 3 -28 1 -25 -25z"/>
<path d="M3134 3825 c-10 -25 4 -47 28 -43 17 2 24 11 26 31 3 23 0 27 -23 27
-14 0 -28 -7 -31 -15z"/>
<path d="M3412 3813 c2 -22 8 -28 28 -28 20 0 25 5 25 25 0 20 -6 26 -28 28
-26 3 -28 1 -25 -25z"/>
<path d="M3684 3825 c-10 -25 4 -47 28 -43 17 2 24 11 26 31 3 23 0 27 -23 27
-14 0 -28 -7 -31 -15z"/>
<path d="M3962 3813 c2 -22 8 -28 28 -28 20 0 25 5 25 25 0 20 -6 26 -28 28
-26 3 -28 1 -25 -25z"/>
<path d="M4234 3825 c-10 -25 4 -47 28 -43 17 2 24 11 26 31 3 23 0 27 -23 27
-14 0 -28 -7 -31 -15z"/>
<path d="M4512 3813 c2 -22 8 -28 28 -28 20 0 25 5 25 25 0 20 -6 26 -28 28
-26 3 -28 1 -25 -25z"/>
<path d="M4784 3825 c-10 -25 4 -47 28 -43 17 2 24 11 26 31 3 23 0 27 -23 27
-14 0 -28 -7 -31 -15z"/>
<path d="M5062 3813 c2 -22 8 -28 28 -28 20 0 25 5 25 25 0 20 -6 26 -28 28
-26 3 -28 1 -25 -25z"/>
<path d="M5334 3825 c-10 -25 4 -47 28 -43 17 2 24 11 26 31 3 23 0 27 -23 27
-14 0 -28 -7 -31 -15z"/>
<path d="M5612 3813 c2 -22 8 -28 28 -28 20 0 25 5 25 25 0 20 -6 26 -28 28
-26 3 -28 1 -25 -25z"/>
<path d="M5884 3825 c-10 -25 4 -47 28 -43 17 2 24 11 26 31 3 23 0 27 -23 27
-14 0 -28 -7 -31 -15z"/>
<path d="M6162 3813 c2 -22 8 -28 28 -28 20 0 25 5 25 25 0 20 -6 26 -28 28
-26 3 -28 1 -25 -25z"/>
<path d="M6434 3825 c-10 -25 4 -47 28 -43 17 2 24 11 26 31 3 23 0 27 -23 27
-14 0 -28 -7 -31 -15z"/>
<path d="M6712 3813 c2 -22 8 -28 28 -28 20 0 25 5 25 25 0 20 -6 26 -28 28
-26 3 -28 1 -25 -25z"/>
<path d="M6984 3825 c-10 -25 4 -47 28 -43 17 2 24 11 26 31 3 23 0 27 -23 27
-14 0 -28 -7 -31 -15z"/>
<path d="M7262 3813 c2 -22 8 -28 28 -28 20 0 25 5 25 25 0 20 -6 26 -28 28
-26 3 -28 1 -25 -25z"/>
<path d="M7534 3825 c-10 -25 4 -47 28 -43 17 2 24 11 26 31 3 23 0 27 -23 27
-14 0 -28 -7 -31 -15z"/>
<path d="M7812 3813 c2 -22 8 -28 28 -28 20 0 25 5 25 25 0 20 -6 26 -28 28
-26 3 -28 1 -25 -25z"/>
<path d="M8084 3825 c-10 -25 4 -47 28 -43 17 2 24 11 26 31 3 23 0 27 -23 27
-14 0 -28 -7 -31 -15z"/>
<path d="M8362 3813 c2 -22 8 -28 28 -28 20 0 25 5 25 25 0 20 -6 26 -28 28
-26 3 -28 1 -25 -25z"/>
<path d="M8634 3825 c-10 -25 4 -47 28 -43 17 2 24 11 26 31 3 23 0 27 -23 27
-14 0 -28 -7 -31 -15z"/>
<path d="M8912 3813 c2 -22 8 -28 28 -28 20 0 25 5 25 25 0 20 -6 26 -28 28
-26 3 -28 1 -25 -25z"/>
<path d="M9184 3825 c-10 -25 4 -47 28 -43 17 2 24 11 26 31 3 23 0 27 -23 27
-14 0 -28 -7 -31 -15z"/>
<path d="M1767 3564 c-4 -4 -7 -18 -7 -31 0 -21 4 -24 28 -21 21 2 27 8 27 28
0 18 -6 26 -20 28 -12 2 -24 0 -28 -4z"/>
<path d="M2034 3556 c-10 -26 4 -46 31 -46 23 0 26 4 23 28 -3 31 -44 45 -54
18z"/>
<path d="M2317 3564 c-4 -4 -7 -18 -7 -31 0 -21 4 -24 28 -21 21 2 27 8 27 28
0 18 -6 26 -20 28 -12 2 -24 0 -28 -4z"/>
<path d="M2584 3556 c-10 -26 4 -46 31 -46 23 0 26 4 23 28 -3 31 -44 45 -54
18z"/>
<path d="M2867 3564 c-4 -4 -7 -18 -7 -31 0 -21 4 -24 28 -21 21 2 27 8 27 28
0 18 -6 26 -20 28 -12 2 -24 0 -28 -4z"/>
<path d="M3134 3556 c-10 -26 4 -46 31 -46 23 0 26 4 23 28 -3 31 -44 45 -54
18z"/>
<path d="M3417 3564 c-4 -4 -7 -18 -7 -31 0 -21 4 -24 28 -21 21 2 27 8 27 28
0 18 -6 26 -20 28 -12 2 -24 0 -28 -4z"/>
<path d="M3684 3556 c-10 -26 4 -46 31 -46 23 0 26 4 23 28 -3 31 -44 45 -54
18z"/>
<path d="M3967 3564 c-4 -4 -7 -18 -7 -31 0 -21 4 -24 28 -21 21 2 27 8 27 28
0 18 -6 26 -20 28 -12 2 -24 0 -28 -4z"/>
<path d="M4234 3556 c-10 -26 4 -46 31 -46 23 0 26 4 23 28 -3 31 -44 45 -54
18z"/>
<path d="M4517 3564 c-4 -4 -7 -18 -7 -31 0 -21 4 -24 28 -21 21 2 27 8 27 28
0 18 -6 26 -20 28 -12 2 -24 0 -28 -4z"/>
<path d="M4784 3556 c-10 -26 4 -46 31 -46 23 0 26 4 23 28 -3 31 -44 45 -54
18z"/>
<path d="M5067 3564 c-4 -4 -7 -18 -7 -31 0 -21 4 -24 28 -21 21 2 27 8 27 28
0 18 -6 26 -20 28 -12 2 -24 0 -28 -4z"/>
<path d="M5334 3556 c-10 -26 4 -46 31 -46 23 0 26 4 23 28 -3 31 -44 45 -54
18z"/>
<path d="M5617 3564 c-4 -4 -7 -18 -7 -31 0 -21 4 -24 28 -21 21 2 27 8 27 28
0 18 -6 26 -20 28 -12 2 -24 0 -28 -4z"/>
<path d="M5884 3556 c-10 -26 4 -46 31 -46 23 0 26 4 23 28 -3 31 -44 45 -54
18z"/>
<path d="M6167 3564 c-4 -4 -7 -18 -7 -31 0 -21 4 -24 28 -21 21 2 27 8 27 28
0 18 -6 26 -20 28 -12 2 -24 0 -28 -4z"/>
<path d="M6434 3556 c-10 -26 4 -46 31 -46 23 0 26 4 23 28 -3 31 -44 45 -54
18z"/>
<path d="M6717 3564 c-4 -4 -7 -18 -7 -31 0 -21 4 -24 28 -21 21 2 27 8 27 28
0 18 -6 26 -20 28 -12 2 -24 0 -28 -4z"/>
<path d="M6984 3556 c-10 -26 4 -46 31 -46 23 0 26 4 23 28 -3 31 -44 45 -54
18z"/>
<path d="M7267 3564 c-4 -4 -7 -18 -7 -31 0 -21 4 -24 28 -21 21 2 27 8 27 28
0 18 -6 26 -20 28 -12 2 -24 0 -28 -4z"/>
<path d="M7534 3556 c-10 -26 4 -46 31 -46 23 0 26 4 23 28 -3 31 -44 45 -54
18z"/>
<path d="M7817 3564 c-4 -4 -7 -18 -7 -31 0 -21 4 -24 28 -21 21 2 27 8 27 28
0 18 -6 26 -20 28 -12 2 -24 0 -28 -4z"/>
<path d="M8084 3556 c-10 -26 4 -46 31 -46 23 0 26 4 23 28 -3 31 -44 45 -54
18z"/>
<path d="M8367 3564 c-4 -4 -7 -18 -7 -31 0 -21 4 -24 28 -21 21 2 27 8 27 28
0 18 -6 26 -20 28 -12 2 -24 0 -28 -4z"/>
<path d="M8634 3556 c-10 -26 4 -46 31 -46 23 0 26 4 23 28 -3 31 -44 45 -54
18z"/>
<path d="M8917 3564 c-4 -4 -7 -18 -7 -31 0 -21 4 -24 28 -21 21 2 27 8 27 28
0 18 -6 26 -20 28 -12 2 -24 0 -28 -4z"/>
<path d="M9184 3556 c-10 -26 4 -46 31 -46 23 0 26 4 23 28 -3 31 -44 45 -54
18z"/>
<path d="M1797 3270 c8 -29 25 -37 21 -9 -1 12 -8 24 -15 26 -7 3 -9 -3 -6
-17z"/>
<path d="M2034 3275 c-10 -25 4 -47 28 -43 17 2 24 11 26 31 3 23 0 27 -23 27
-14 0 -28 -7 -31 -15z"/>
<path d="M2312 3263 c2 -22 8 -28 28 -28 20 0 25 5 25 25 0 20 -6 26 -28 28
-26 3 -28 1 -25 -25z"/>
<path d="M2584 3275 c-10 -25 4 -47 28 -43 17 2 24 11 26 31 3 23 0 27 -23 27
-14 0 -28 -7 -31 -15z"/>
<path d="M2862 3263 c2 -22 8 -28 28 -28 20 0 25 5 25 25 0 20 -6 26 -28 28
-26 3 -28 1 -25 -25z"/>
<path d="M3134 3275 c-10 -25 4 -47 28 -43 17 2 24 11 26 31 3 23 0 27 -23 27
-14 0 -28 -7 -31 -15z"/>
<path d="M3412 3263 c2 -22 8 -28 28 -28 20 0 25 5 25 25 0 20 -6 26 -28 28
-26 3 -28 1 -25 -25z"/>
<path d="M3684 3275 c-10 -25 4 -47 28 -43 17 2 24 11 26 31 3 23 0 27 -23 27
-14 0 -28 -7 -31 -15z"/>
<path d="M3962 3263 c2 -22 8 -28 28 -28 20 0 25 5 25 25 0 20 -6 26 -28 28
-26 3 -28 1 -25 -25z"/>
<path d="M4234 3275 c-10 -25 4 -47 28 -43 17 2 24 11 26 31 3 23 0 27 -23 27
-14 0 -28 -7 -31 -15z"/>
<path d="M4512 3263 c2 -22 8 -28 28 -28 20 0 25 5 25 25 0 20 -6 26 -28 28
-26 3 -28 1 -25 -25z"/>
<path d="M4784 3275 c-10 -25 4 -47 28 -43 17 2 24 11 26 31 3 23 0 27 -23 27
-14 0 -28 -7 -31 -15z"/>
<path d="M5062 3263 c2 -22 8 -28 28 -28 20 0 25 5 25 25 0 20 -6 26 -28 28
-26 3 -28 1 -25 -25z"/>
<path d="M5334 3275 c-10 -25 4 -47 28 -43 17 2 24 11 26 31 3 23 0 27 -23 27
-14 0 -28 -7 -31 -15z"/>
<path d="M5612 3263 c2 -22 8 -28 28 -28 20 0 25 5 25 25 0 20 -6 26 -28 28
-26 3 -28 1 -25 -25z"/>
<path d="M5884 3275 c-10 -25 4 -47 28 -43 17 2 24 11 26 31 3 23 0 27 -23 27
-14 0 -28 -7 -31 -15z"/>
<path d="M6162 3263 c2 -22 8 -28 28 -28 20 0 25 5 25 25 0 20 -6 26 -28 28
-26 3 -28 1 -25 -25z"/>
<path d="M6434 3275 c-10 -25 4 -47 28 -43 17 2 24 11 26 31 3 23 0 27 -23 27
-14 0 -28 -7 -31 -15z"/>
<path d="M6712 3263 c2 -22 8 -28 28 -28 20 0 25 5 25 25 0 20 -6 26 -28 28
-26 3 -28 1 -25 -25z"/>
<path d="M6984 3275 c-10 -25 4 -47 28 -43 17 2 24 11 26 31 3 23 0 27 -23 27
-14 0 -28 -7 -31 -15z"/>
<path d="M7262 3263 c2 -22 8 -28 28 -28 20 0 25 5 25 25 0 20 -6 26 -28 28
-26 3 -28 1 -25 -25z"/>
<path d="M7534 3275 c-10 -25 4 -47 28 -43 17 2 24 11 26 31 3 23 0 27 -23 27
-14 0 -28 -7 -31 -15z"/>
<path d="M7812 3263 c2 -22 8 -28 28 -28 20 0 25 5 25 25 0 20 -6 26 -28 28
-26 3 -28 1 -25 -25z"/>
<path d="M8084 3275 c-10 -25 4 -47 28 -43 17 2 24 11 26 31 3 23 0 27 -23 27
-14 0 -28 -7 -31 -15z"/>
<path d="M8362 3263 c2 -22 8 -28 28 -28 20 0 25 5 25 25 0 20 -6 26 -28 28
-26 3 -28 1 -25 -25z"/>
<path d="M8634 3275 c-10 -25 4 -47 28 -43 17 2 24 11 26 31 3 23 0 27 -23 27
-14 0 -28 -7 -31 -15z"/>
<path d="M8912 3263 c2 -22 8 -28 28 -28 20 0 25 5 25 25 0 20 -6 26 -28 28
-26 3 -28 1 -25 -25z"/>
<path d="M9184 3275 c-8 -21 2 -45 20 -45 8 0 19 14 25 30 9 28 8 30 -15 30
-13 0 -27 -7 -30 -15z"/>
<path d="M2034 3006 c-10 -26 4 -46 31 -46 23 0 26 4 23 28 -3 31 -44 45 -54
18z"/>
<path d="M2317 3014 c-4 -4 -7 -18 -7 -31 0 -21 4 -24 28 -21 21 2 27 8 27 28
0 18 -6 26 -20 28 -12 2 -24 0 -28 -4z"/>
<path d="M2584 3006 c-10 -26 4 -46 31 -46 23 0 26 4 23 28 -3 31 -44 45 -54
18z"/>
<path d="M2867 3014 c-4 -4 -7 -18 -7 -31 0 -21 4 -24 28 -21 21 2 27 8 27 28
0 18 -6 26 -20 28 -12 2 -24 0 -28 -4z"/>
<path d="M3134 3006 c-10 -26 4 -46 31 -46 23 0 26 4 23 28 -3 31 -44 45 -54
18z"/>
<path d="M3417 3014 c-4 -4 -7 -18 -7 -31 0 -21 4 -24 28 -21 21 2 27 8 27 28
0 18 -6 26 -20 28 -12 2 -24 0 -28 -4z"/>
<path d="M3684 3006 c-10 -26 4 -46 31 -46 23 0 26 4 23 28 -3 31 -44 45 -54
18z"/>
<path d="M3967 3014 c-4 -4 -7 -18 -7 -31 0 -21 4 -24 28 -21 21 2 27 8 27 28
0 18 -6 26 -20 28 -12 2 -24 0 -28 -4z"/>
<path d="M4234 3006 c-10 -26 4 -46 31 -46 23 0 26 4 23 28 -3 31 -44 45 -54
18z"/>
<path d="M4517 3014 c-4 -4 -7 -18 -7 -31 0 -21 4 -24 28 -21 21 2 27 8 27 28
0 18 -6 26 -20 28 -12 2 -24 0 -28 -4z"/>
<path d="M4784 3006 c-10 -26 4 -46 31 -46 23 0 26 4 23 28 -3 31 -44 45 -54
18z"/>
<path d="M5067 3014 c-4 -4 -7 -18 -7 -31 0 -21 4 -24 28 -21 21 2 27 8 27 28
0 18 -6 26 -20 28 -12 2 -24 0 -28 -4z"/>
<path d="M5334 3006 c-10 -26 4 -46 31 -46 23 0 26 4 23 28 -3 31 -44 45 -54
18z"/>
<path d="M5617 3014 c-4 -4 -7 -18 -7 -31 0 -21 4 -24 28 -21 21 2 27 8 27 28
0 18 -6 26 -20 28 -12 2 -24 0 -28 -4z"/>
<path d="M5884 3006 c-10 -26 4 -46 31 -46 23 0 26 4 23 28 -3 31 -44 45 -54
18z"/>
<path d="M6167 3014 c-4 -4 -7 -18 -7 -31 0 -21 4 -24 28 -21 21 2 27 8 27 28
0 18 -6 26 -20 28 -12 2 -24 0 -28 -4z"/>
<path d="M6434 3006 c-10 -26 4 -46 31 -46 23 0 26 4 23 28 -3 31 -44 45 -54
18z"/>
<path d="M6717 3014 c-4 -4 -7 -18 -7 -31 0 -21 4 -24 28 -21 21 2 27 8 27 28
0 18 -6 26 -20 28 -12 2 -24 0 -28 -4z"/>
<path d="M6984 3006 c-10 -26 4 -46 31 -46 23 0 26 4 23 28 -3 31 -44 45 -54
18z"/>
<path d="M7267 3014 c-4 -4 -7 -18 -7 -31 0 -21 4 -24 28 -21 21 2 27 8 27 28
0 18 -6 26 -20 28 -12 2 -24 0 -28 -4z"/>
<path d="M7534 3006 c-10 -26 4 -46 31 -46 23 0 26 4 23 28 -3 31 -44 45 -54
18z"/>
<path d="M7817 3014 c-4 -4 -7 -18 -7 -31 0 -21 4 -24 28 -21 21 2 27 8 27 28
0 18 -6 26 -20 28 -12 2 -24 0 -28 -4z"/>
<path d="M8084 3006 c-10 -26 4 -46 31 -46 23 0 26 4 23 28 -3 31 -44 45 -54
18z"/>
<path d="M8367 3014 c-4 -4 -7 -18 -7 -31 0 -21 4 -24 28 -21 21 2 27 8 27 28
0 18 -6 26 -20 28 -12 2 -24 0 -28 -4z"/>
<path d="M8634 3006 c-10 -26 4 -46 31 -46 23 0 26 4 23 28 -3 31 -44 45 -54
18z"/>
<path d="M8917 3014 c-4 -4 -7 -18 -7 -31 0 -21 4 -24 28 -21 21 2 27 8 27 28
0 18 -6 26 -20 28 -12 2 -24 0 -28 -4z"/>
<path d="M2076 2725 c4 -8 8 -15 10 -15 2 0 4 7 4 15 0 8 -4 15 -10 15 -5 0
-7 -7 -4 -15z"/>
<path d="M2312 2713 c2 -22 8 -28 28 -28 20 0 25 5 25 25 0 20 -6 26 -28 28
-26 3 -28 1 -25 -25z"/>
<path d="M2584 2725 c-10 -25 4 -47 28 -43 17 2 24 11 26 31 3 23 0 27 -23 27
-14 0 -28 -7 -31 -15z"/>
<path d="M2862 2713 c2 -22 8 -28 28 -28 20 0 25 5 25 25 0 20 -6 26 -28 28
-26 3 -28 1 -25 -25z"/>
<path d="M3134 2725 c-10 -25 4 -47 28 -43 17 2 24 11 26 31 3 23 0 27 -23 27
-14 0 -28 -7 -31 -15z"/>
<path d="M3412 2713 c2 -22 8 -28 28 -28 20 0 25 5 25 25 0 20 -6 26 -28 28
-26 3 -28 1 -25 -25z"/>
<path d="M3684 2725 c-10 -25 4 -47 28 -43 17 2 24 11 26 31 3 23 0 27 -23 27
-14 0 -28 -7 -31 -15z"/>
<path d="M3962 2713 c2 -22 8 -28 28 -28 20 0 25 5 25 25 0 20 -6 26 -28 28
-26 3 -28 1 -25 -25z"/>
<path d="M4234 2725 c-10 -25 4 -47 28 -43 17 2 24 11 26 31 3 23 0 27 -23 27
-14 0 -28 -7 -31 -15z"/>
<path d="M4512 2713 c2 -22 8 -28 28 -28 20 0 25 5 25 25 0 20 -6 26 -28 28
-26 3 -28 1 -25 -25z"/>
<path d="M4784 2725 c-10 -25 4 -47 28 -43 17 2 24 11 26 31 3 23 0 27 -23 27
-14 0 -28 -7 -31 -15z"/>
<path d="M5062 2713 c2 -22 8 -28 28 -28 20 0 25 5 25 25 0 20 -6 26 -28 28
-26 3 -28 1 -25 -25z"/>
<path d="M5334 2725 c-10 -25 4 -47 28 -43 17 2 24 11 26 31 3 23 0 27 -23 27
-14 0 -28 -7 -31 -15z"/>
<path d="M5612 2713 c2 -22 8 -28 28 -28 20 0 25 5 25 25 0 20 -6 26 -28 28
-26 3 -28 1 -25 -25z"/>
<path d="M5884 2725 c-10 -25 4 -47 28 -43 17 2 24 11 26 31 3 23 0 27 -23 27
-14 0 -28 -7 -31 -15z"/>
<path d="M6162 2713 c2 -22 8 -28 28 -28 20 0 25 5 25 25 0 20 -6 26 -28 28
-26 3 -28 1 -25 -25z"/>
<path d="M6434 2725 c-10 -25 4 -47 28 -43 17 2 24 11 26 31 3 23 0 27 -23 27
-14 0 -28 -7 -31 -15z"/>
<path d="M6712 2713 c2 -22 8 -28 28 -28 20 0 25 5 25 25 0 20 -6 26 -28 28
-26 3 -28 1 -25 -25z"/>
<path d="M6984 2725 c-10 -25 4 -47 28 -43 17 2 24 11 26 31 3 23 0 27 -23 27
-14 0 -28 -7 -31 -15z"/>
<path d="M7262 2713 c2 -22 8 -28 28 -28 20 0 25 5 25 25 0 20 -6 26 -28 28
-26 3 -28 1 -25 -25z"/>
<path d="M7534 2725 c-10 -25 4 -47 28 -43 17 2 24 11 26 31 3 23 0 27 -23 27
-14 0 -28 -7 -31 -15z"/>
<path d="M7812 2713 c2 -22 8 -28 28 -28 20 0 25 5 25 25 0 20 -6 26 -28 28
-26 3 -28 1 -25 -25z"/>
<path d="M8084 2725 c-10 -25 4 -47 28 -43 17 2 24 11 26 31 3 23 0 27 -23 27
-14 0 -28 -7 -31 -15z"/>
<path d="M8362 2713 c2 -22 8 -28 28 -28 20 0 25 5 25 25 0 20 -6 26 -28 28
-26 3 -28 1 -25 -25z"/>
<path d="M8634 2725 c-10 -25 4 -47 28 -43 17 2 24 11 26 31 3 23 0 27 -23 27
-14 0 -28 -7 -31 -15z"/>
<path d="M8910 2715 c0 -33 26 -44 45 -19 19 26 14 38 -18 42 -23 3 -27 0 -27
-23z"/>
<path d="M2341 2444 c13 -14 25 -20 27 -14 7 20 -7 40 -29 40 l-22 0 24 -26z"/>
<path d="M2584 2456 c-10 -26 4 -46 31 -46 23 0 26 4 23 28 -3 31 -44 45 -54
18z"/>
<path d="M2867 2464 c-4 -4 -7 -18 -7 -31 0 -21 4 -24 28 -21 21 2 27 8 27 28
0 18 -6 26 -20 28 -12 2 -24 0 -28 -4z"/>
<path d="M3134 2456 c-10 -26 4 -46 31 -46 23 0 26 4 23 28 -3 31 -44 45 -54
18z"/>
<path d="M3417 2464 c-4 -4 -7 -18 -7 -31 0 -21 4 -24 28 -21 21 2 27 8 27 28
0 18 -6 26 -20 28 -12 2 -24 0 -28 -4z"/>
<path d="M3684 2456 c-10 -26 4 -46 31 -46 23 0 26 4 23 28 -3 31 -44 45 -54
18z"/>
<path d="M3967 2464 c-4 -4 -7 -18 -7 -31 0 -21 4 -24 28 -21 21 2 27 8 27 28
0 18 -6 26 -20 28 -12 2 -24 0 -28 -4z"/>
<path d="M4234 2456 c-10 -26 4 -46 31 -46 23 0 26 4 23 28 -3 31 -44 45 -54
18z"/>
<path d="M4517 2464 c-4 -4 -7 -18 -7 -31 0 -21 4 -24 28 -21 21 2 27 8 27 28
0 18 -6 26 -20 28 -12 2 -24 0 -28 -4z"/>
<path d="M4784 2456 c-10 -26 4 -46 31 -46 23 0 26 4 23 28 -3 31 -44 45 -54
18z"/>
<path d="M5067 2464 c-4 -4 -7 -18 -7 -31 0 -21 4 -24 28 -21 21 2 27 8 27 28
0 18 -6 26 -20 28 -12 2 -24 0 -28 -4z"/>
<path d="M5334 2456 c-10 -26 4 -46 31 -46 23 0 26 4 23 28 -3 31 -44 45 -54
18z"/>
<path d="M5617 2464 c-4 -4 -7 -18 -7 -31 0 -21 4 -24 28 -21 21 2 27 8 27 28
0 18 -6 26 -20 28 -12 2 -24 0 -28 -4z"/>
<path d="M5884 2456 c-10 -26 4 -46 31 -46 23 0 26 4 23 28 -3 31 -44 45 -54
18z"/>
<path d="M6167 2464 c-4 -4 -7 -18 -7 -31 0 -21 4 -24 28 -21 21 2 27 8 27 28
0 18 -6 26 -20 28 -12 2 -24 0 -28 -4z"/>
<path d="M6434 2456 c-10 -26 4 -46 31 -46 23 0 26 4 23 28 -3 31 -44 45 -54
18z"/>
<path d="M6717 2464 c-4 -4 -7 -18 -7 -31 0 -21 4 -24 28 -21 21 2 27 8 27 28
0 18 -6 26 -20 28 -12 2 -24 0 -28 -4z"/>
<path d="M6984 2456 c-10 -26 4 -46 31 -46 23 0 26 4 23 28 -3 31 -44 45 -54
18z"/>
<path d="M7267 2464 c-4 -4 -7 -18 -7 -31 0 -21 4 -24 28 -21 21 2 27 8 27 28
0 18 -6 26 -20 28 -12 2 -24 0 -28 -4z"/>
<path d="M7534 2456 c-10 -26 4 -46 31 -46 23 0 26 4 23 28 -3 31 -44 45 -54
18z"/>
<path d="M7817 2464 c-4 -4 -7 -18 -7 -31 0 -21 4 -24 28 -21 21 2 27 8 27 28
0 18 -6 26 -20 28 -12 2 -24 0 -28 -4z"/>
<path d="M8084 2456 c-10 -26 4 -46 31 -46 23 0 26 4 23 28 -3 31 -44 45 -54
18z"/>
<path d="M8367 2464 c-4 -4 -7 -18 -7 -31 0 -21 4 -24 28 -21 21 2 27 8 27 28
0 18 -6 26 -20 28 -12 2 -24 0 -28 -4z"/>
<path d="M8634 2456 c-10 -26 4 -46 31 -46 23 0 26 4 23 28 -3 31 -44 45 -54
18z"/>
<path d="M2862 2163 c2 -22 8 -28 28 -28 20 0 25 5 25 25 0 20 -6 26 -28 28
-26 3 -28 1 -25 -25z"/>
<path d="M3134 2175 c-10 -25 4 -47 28 -43 17 2 24 11 26 31 3 23 0 27 -23 27
-14 0 -28 -7 -31 -15z"/>
<path d="M3412 2163 c2 -22 8 -28 28 -28 20 0 25 5 25 25 0 20 -6 26 -28 28
-26 3 -28 1 -25 -25z"/>
<path d="M3684 2175 c-10 -25 4 -47 28 -43 17 2 24 11 26 31 3 23 0 27 -23 27
-14 0 -28 -7 -31 -15z"/>
<path d="M3962 2163 c2 -22 8 -28 28 -28 20 0 25 5 25 25 0 20 -6 26 -28 28
-26 3 -28 1 -25 -25z"/>
<path d="M4234 2175 c-10 -25 4 -47 28 -43 17 2 24 11 26 31 3 23 0 27 -23 27
-14 0 -28 -7 -31 -15z"/>
<path d="M4512 2163 c2 -22 8 -28 28 -28 20 0 25 5 25 25 0 20 -6 26 -28 28
-26 3 -28 1 -25 -25z"/>
<path d="M4784 2175 c-10 -25 4 -47 28 -43 17 2 24 11 26 31 3 23 0 27 -23 27
-14 0 -28 -7 -31 -15z"/>
<path d="M5062 2163 c2 -22 8 -28 28 -28 20 0 25 5 25 25 0 20 -6 26 -28 28
-26 3 -28 1 -25 -25z"/>
<path d="M5334 2175 c-10 -25 4 -47 28 -43 17 2 24 11 26 31 3 23 0 27 -23 27
-14 0 -28 -7 -31 -15z"/>
<path d="M5612 2163 c2 -22 8 -28 28 -28 20 0 25 5 25 25 0 20 -6 26 -28 28
-26 3 -28 1 -25 -25z"/>
<path d="M5884 2175 c-10 -25 4 -47 28 -43 17 2 24 11 26 31 3 23 0 27 -23 27
-14 0 -28 -7 -31 -15z"/>
<path d="M6162 2163 c2 -22 8 -28 28 -28 20 0 25 5 25 25 0 20 -6 26 -28 28
-26 3 -28 1 -25 -25z"/>
<path d="M6434 2175 c-10 -25 4 -47 28 -43 17 2 24 11 26 31 3 23 0 27 -23 27
-14 0 -28 -7 -31 -15z"/>
<path d="M6712 2163 c2 -22 8 -28 28 -28 20 0 25 5 25 25 0 20 -6 26 -28 28
-26 3 -28 1 -25 -25z"/>
<path d="M6984 2175 c-10 -25 4 -47 28 -43 17 2 24 11 26 31 3 23 0 27 -23 27
-14 0 -28 -7 -31 -15z"/>
<path d="M7262 2163 c2 -22 8 -28 28 -28 20 0 25 5 25 25 0 20 -6 26 -28 28
-26 3 -28 1 -25 -25z"/>
<path d="M7534 2175 c-10 -25 4 -47 28 -43 17 2 24 11 26 31 3 23 0 27 -23 27
-14 0 -28 -7 -31 -15z"/>
<path d="M7812 2163 c2 -22 8 -28 28 -28 20 0 25 5 25 25 0 20 -6 26 -28 28
-26 3 -28 1 -25 -25z"/>
<path d="M8084 2175 c-10 -25 4 -47 28 -43 17 2 24 11 26 31 3 23 0 27 -23 27
-14 0 -28 -7 -31 -15z"/>
<path d="M8362 2163 c2 -22 8 -28 28 -28 20 0 25 5 25 25 0 20 -6 26 -28 28
-26 3 -28 1 -25 -25z"/>
<path d="M3417 1914 c-4 -4 -7 -18 -7 -31 0 -21 4 -24 28 -21 21 2 27 8 27 28
0 18 -6 26 -20 28 -12 2 -24 0 -28 -4z"/>
<path d="M3684 1906 c-10 -26 4 -46 31 -46 23 0 26 4 23 28 -3 31 -44 45 -54
18z"/>
<path d="M3967 1914 c-4 -4 -7 -18 -7 -31 0 -21 4 -24 28 -21 21 2 27 8 27 28
0 18 -6 26 -20 28 -12 2 -24 0 -28 -4z"/>
<path d="M4234 1906 c-10 -26 4 -46 31 -46 23 0 26 4 23 28 -3 31 -44 45 -54
18z"/>
<path d="M4517 1914 c-4 -4 -7 -18 -7 -31 0 -21 4 -24 28 -21 21 2 27 8 27 28
0 18 -6 26 -20 28 -12 2 -24 0 -28 -4z"/>
<path d="M4784 1906 c-10 -26 4 -46 31 -46 23 0 26 4 23 28 -3 31 -44 45 -54
18z"/>
<path d="M5067 1914 c-4 -4 -7 -18 -7 -31 0 -21 4 -24 28 -21 21 2 27 8 27 28
0 18 -6 26 -20 28 -12 2 -24 0 -28 -4z"/>
<path d="M5334 1906 c-10 -26 4 -46 31 -46 23 0 26 4 23 28 -3 31 -44 45 -54
18z"/>
<path d="M5617 1914 c-4 -4 -7 -18 -7 -31 0 -21 4 -24 28 -21 21 2 27 8 27 28
0 18 -6 26 -20 28 -12 2 -24 0 -28 -4z"/>
<path d="M5884 1906 c-10 -26 4 -46 31 -46 23 0 26 4 23 28 -3 31 -44 45 -54
18z"/>
<path d="M6167 1914 c-4 -4 -7 -18 -7 -31 0 -21 4 -24 28 -21 21 2 27 8 27 28
0 18 -6 26 -20 28 -12 2 -24 0 -28 -4z"/>
<path d="M6434 1906 c-10 -26 4 -46 31 -46 23 0 26 4 23 28 -3 31 -44 45 -54
18z"/>
<path d="M6717 1914 c-4 -4 -7 -18 -7 -31 0 -21 4 -24 28 -21 21 2 27 8 27 28
0 18 -6 26 -20 28 -12 2 -24 0 -28 -4z"/>
<path d="M6984 1906 c-10 -26 4 -46 31 -46 23 0 26 4 23 28 -3 31 -44 45 -54
18z"/>
<path d="M7267 1914 c-4 -4 -7 -18 -7 -31 0 -21 4 -24 28 -21 21 2 27 8 27 28
0 18 -6 26 -20 28 -12 2 -24 0 -28 -4z"/>
<path d="M7534 1906 c-10 -26 4 -46 31 -46 23 0 26 4 23 28 -3 31 -44 45 -54
18z"/>
<path d="M7817 1914 c-4 -4 -7 -18 -7 -31 0 -21 4 -24 28 -21 21 2 27 8 27 28
0 18 -6 26 -20 28 -12 2 -24 0 -28 -4z"/>
<path d="M4233 1625 c-7 -19 -5 -22 30 -30 24 -6 27 -5 27 19 0 21 -5 26 -25
26 -14 0 -28 -7 -32 -15z"/>
<path d="M4512 1613 c2 -22 8 -28 28 -28 20 0 25 5 25 25 0 20 -6 26 -28 28
-26 3 -28 1 -25 -25z"/>
<path d="M4784 1625 c-10 -25 4 -47 28 -43 17 2 24 11 26 31 3 23 0 27 -23 27
-14 0 -28 -7 -31 -15z"/>
<path d="M5062 1613 c2 -22 8 -28 28 -28 20 0 25 5 25 25 0 20 -6 26 -28 28
-26 3 -28 1 -25 -25z"/>
<path d="M5334 1625 c-10 -25 4 -47 28 -43 17 2 24 11 26 31 3 23 0 27 -23 27
-14 0 -28 -7 -31 -15z"/>
<path d="M5612 1613 c2 -22 8 -28 28 -28 20 0 25 5 25 25 0 20 -6 26 -28 28
-26 3 -28 1 -25 -25z"/>
<path d="M5884 1625 c-10 -25 4 -47 28 -43 17 2 24 11 26 31 3 23 0 27 -23 27
-14 0 -28 -7 -31 -15z"/>
<path d="M6162 1613 c2 -22 8 -28 28 -28 20 0 25 5 25 25 0 20 -6 26 -28 28
-26 3 -28 1 -25 -25z"/>
<path d="M6434 1625 c-10 -25 4 -47 28 -43 17 2 24 11 26 31 3 23 0 27 -23 27
-14 0 -28 -7 -31 -15z"/>
<path d="M6712 1613 c2 -22 8 -28 28 -28 20 0 25 5 25 25 0 20 -6 26 -28 28
-26 3 -28 1 -25 -25z"/>
<path d="M6984 1625 c-10 -25 4 -47 28 -43 17 2 24 11 26 31 3 23 0 27 -23 27
-14 0 -28 -7 -31 -15z"/>
<path d="M7260 1631 c0 -5 9 -7 20 -4 11 3 20 7 20 9 0 2 -9 4 -20 4 -11 0
-20 -4 -20 -9z"/>
</g>
</svg>
