<svg width="213" height="77" viewBox="0 0 213 77" fill="none" xmlns="http://www.w3.org/2000/svg">
<g id="Group">
<path id="Vector" d="M199.919 58.5749C199.919 62.0013 202.697 64.7789 206.123 64.7789C209.549 64.7789 212.327 62.0013 212.327 58.5749C212.327 55.1486 209.549 52.371 206.123 52.371C202.697 52.371 199.919 55.1486 199.919 58.5749Z" fill="#008080"/>
<path id="Vector_2" d="M166.667 58.5749C166.667 55.1574 169.438 52.371 172.871 52.371C176.289 52.371 179.075 55.142 179.075 58.5749C179.075 62.0079 176.304 64.7789 172.871 64.7789C169.453 64.7789 166.667 62.0079 166.667 58.5749Z" fill="#008080"/>
<path id="Vector_3" d="M133.415 58.575C133.415 62.0013 136.193 64.7789 139.619 64.7789C143.045 64.7789 145.823 62.0013 145.823 58.575C145.823 55.1486 143.045 52.371 139.619 52.371C136.193 52.371 133.415 55.1486 133.415 58.575Z" fill="#008080"/>
<path id="Vector_4" d="M100 32.2039C100 35.6303 102.778 38.4079 106.204 38.4079C109.63 38.4079 112.408 35.6303 112.408 32.2039C112.408 28.7776 109.63 26 106.204 26C102.778 26 100 28.7776 100 32.2039Z" fill="#008080"/>
<path id="Vector_5" d="M66.9269 58.575C66.9269 55.1574 69.6979 52.371 73.1309 52.371C76.5484 52.371 79.3348 55.142 79.3348 58.575C79.3348 62.0079 76.5638 64.7789 73.1309 64.7789C69.6979 64.7789 66.9269 62.0079 66.9269 58.575Z" fill="#585858"/>
<path id="Vector_6" d="M33 57.2039C33 60.6303 35.7776 63.4079 39.2039 63.4079C42.6302 63.4079 45.4078 60.6303 45.4078 57.2039C45.4078 53.7776 42.6302 51 39.2039 51C35.7776 51 33 53.7776 33 57.2039Z" fill="#008080"/>
<path id="Vector_7" d="M-2.47955e-05 57.2039C-2.47955e-05 60.6303 2.77757 63.4079 6.20391 63.4079C9.63024 63.4079 12.4078 60.6303 12.4078 57.2039C12.4078 53.7776 9.63024 51 6.20391 51C2.77757 51 -2.47955e-05 53.7776 -2.47955e-05 57.2039Z" fill="#008080"/>
<path id="Vector_8" d="M199.919 32.8817C199.919 36.3081 202.697 39.0857 206.123 39.0857C209.549 39.0857 212.327 36.3081 212.327 32.8817C212.327 29.4554 209.549 26.6778 206.123 26.6778C202.697 26.6778 199.919 29.4554 199.919 32.8817Z" fill="#008080"/>
<path id="Vector_9" d="M166.667 32.8817C166.667 29.4642 169.438 26.6778 172.871 26.6778C176.289 26.6778 179.075 29.4488 179.075 32.8817C179.075 36.3147 176.304 39.0857 172.871 39.0857C169.453 39.0857 166.667 36.3147 166.667 32.8817Z" fill="#585858"/>
<path id="Vector_10" d="M133 32.2039C133 35.6303 135.778 38.4079 139.204 38.4079C142.63 38.4079 145.408 35.6303 145.408 32.2039C145.408 28.7776 142.63 26 139.204 26C135.778 26 133 28.7776 133 32.2039Z" fill="#008080"/>
<path id="Vector_11" d="M100 58.2039C100 61.6303 102.778 64.4079 106.204 64.4079C109.63 64.4079 112.408 61.6303 112.408 58.2039C112.408 54.7776 109.63 52 106.204 52C102.778 52 100 54.7776 100 58.2039Z" stroke="#585858" stroke-miterlimit="10"/>
<path id="Vector_12" d="M66.9999 32.2039C66.9999 28.7864 69.7709 26 73.2039 26C76.6214 26 79.4078 28.771 79.4078 32.2039C79.4078 35.6369 76.6368 38.4079 73.2039 38.4079C69.7709 38.4079 66.9999 35.6369 66.9999 32.2039Z" fill="#008080"/>
<path id="Vector_13" d="M33 32.2039C33 35.6303 35.7776 38.4079 39.2039 38.4079C42.6302 38.4079 45.4078 35.6303 45.4078 32.2039C45.4078 28.7776 42.6302 26 39.2039 26C35.7776 26 33 28.7776 33 32.2039Z" fill="#008080"/>
<path id="Vector_14" d="M-2.47955e-05 32.2039C-2.47955e-05 35.6303 2.77757 38.4079 6.20391 38.4079C9.63024 38.4079 12.4078 35.6303 12.4078 32.2039C12.4078 28.7776 9.63024 26 6.20391 26C2.77757 26 -2.47955e-05 28.7776 -2.47955e-05 32.2039Z" fill="#008080"/>
<path id="Vector_15" d="M199.919 7.20393C199.919 10.6303 202.697 13.4079 206.123 13.4079C209.549 13.4079 212.327 10.6303 212.327 7.20393C212.327 3.77759 209.549 1 206.123 1C202.697 1 199.919 3.77759 199.919 7.20393Z" stroke="#008080" stroke-miterlimit="10"/>
<path id="Vector_16" d="M166.667 7.20393C166.667 3.78638 169.438 1 172.871 1C176.289 1 179.075 3.77099 179.075 7.20393C179.075 10.6215 176.304 13.4079 172.871 13.4079C169.453 13.4079 166.667 10.6215 166.667 7.20393Z" fill="#008080"/>
<path id="Vector_17" d="M133 7.20393C133 10.6303 135.778 13.4079 139.204 13.4079C142.63 13.4079 145.408 10.6303 145.408 7.20393C145.408 3.77759 142.63 1 139.204 1C135.778 1 133 3.77759 133 7.20393Z" fill="#008080"/>
<path id="Vector_18" d="M100 7.20393C100 10.6303 102.778 13.4079 106.204 13.4079C109.63 13.4079 112.408 10.6303 112.408 7.20393C112.408 3.77759 109.63 1 106.204 1C102.778 1 100 3.77759 100 7.20393Z" fill="#008080"/>
<path id="Vector_19" d="M66.9999 7.20393C66.9999 3.78638 69.7709 1 73.2039 1C76.6214 1 79.4078 3.77099 79.4078 7.20393C79.4078 10.6215 76.6368 13.4079 73.2039 13.4079C69.7709 13.4079 66.9999 10.6215 66.9999 7.20393Z" fill="#008080"/>
<path id="Vector_20" d="M33 7.20393C33 10.6303 35.7776 13.4079 39.2039 13.4079C42.6302 13.4079 45.4078 10.6303 45.4078 7.20393C45.4078 3.77759 42.6302 1 39.2039 1C35.7776 1 33 3.77759 33 7.20393Z" fill="#585858"/>
<path id="Vector_21" d="M-2.47955e-05 7.20393C-2.47955e-05 10.6303 2.77757 13.4079 6.20391 13.4079C9.63024 13.4079 12.4078 10.6303 12.4078 7.20393C12.4078 3.77759 9.63024 1 6.20391 1C2.77757 1 -2.47955e-05 3.77759 -2.47955e-05 7.20393Z" fill="#008080"/>
</g>
</svg>
