<?xml version="1.0" standalone="no"?>
<!DOCTYPE svg PUBLIC "-//W3C//DTD SVG 20010904//EN"
 "http://www.w3.org/TR/2001/REC-SVG-20010904/DTD/svg10.dtd">
<svg version="1.0" xmlns="http://www.w3.org/2000/svg"
 width="500.000000pt" height="500.000000pt" viewBox="0 0 500.000000 500.000000"
 preserveAspectRatio="xMidYMid meet">

<g transform="translate(0.000000,500.000000) scale(0.100000,-0.100000)"
fill="#ffffff" stroke="">
<path d="M3690 4611 c-78 -25 -133 -55 -230 -125 -97 -69 -349 -314 -460 -446
-67 -80 -80 -91 -135 -110 -90 -31 -247 -99 -269 -115 -25 -19 -15 -42 48
-112 l48 -53 3 -127 2 -128 -45 -45 c-28 -29 -47 -40 -49 -32 -3 7 -1 18 5 25
5 7 12 21 15 32 8 22 4 19 -55 -58 -19 -25 -44 -40 -80 -52 -83 -28 -129 -54
-178 -100 -43 -42 -49 -44 -150 -60 -298 -46 -766 -153 -1015 -232 -307 -97
-430 -161 -454 -236 -78 -241 -94 -994 -30 -1377 18 -107 65 -163 148 -176 49
-8 60 -19 27 -28 -46 -11 -56 -32 -56 -111 0 -72 1 -75 38 -113 110 -113 251
-206 477 -317 346 -169 404 -176 795 -89 114 25 249 57 405 94 44 11 186 45
315 75 129 30 305 73 390 95 85 21 166 42 180 46 14 3 89 26 167 50 109 34
146 50 154 67 14 26 23 148 12 162 -21 27 -340 227 -395 248 -39 15 -13 26 78
32 176 14 365 -21 419 -76 l20 -20 -37 -31 c-21 -16 -38 -36 -38 -44 0 -7 20
-25 45 -40 25 -14 45 -28 45 -30 0 -3 -9 -22 -20 -44 -27 -54 -25 -90 10 -159
50 -100 176 -191 299 -217 66 -13 79 -13 126 1 62 18 99 55 116 117 30 113
-59 249 -211 322 -55 26 -77 31 -140 31 -52 0 -86 -5 -109 -18 -42 -21 -50
-21 -88 -2 -56 28 -60 42 -23 74 49 40 38 71 -38 103 -101 44 -155 51 -348 46
l-178 -5 -140 73 c-135 69 -253 114 -301 114 -20 0 -18 4 20 43 34 33 45 53
54 97 19 98 31 368 31 718 l0 343 29 25 c44 37 70 99 76 182 4 61 10 81 36
120 l32 47 -31 -29 -32 -30 0 38 c0 59 32 110 77 124 21 6 48 20 58 30 11 10
41 24 68 31 26 8 47 17 47 21 0 4 46 6 103 3 145 -8 142 -12 122 185 l-16 151
59 118 c33 65 76 156 96 203 21 47 41 94 46 105 23 49 71 193 92 273 17 66 23
115 23 205 0 148 -3 151 -105 118z m84 -16 c21 -56 12 -223 -14 -249 -19 -19
-111 -11 -157 12 -48 25 -93 84 -93 122 0 20 11 33 55 59 52 32 152 69 186 70
9 1 19 -6 23 -14z m-274 -149 c25 -76 166 -155 227 -127 35 16 36 15 28 -26
-12 -65 -104 -325 -134 -380 -6 -10 -34 -67 -64 -128 -121 -249 -224 -425
-258 -442 -13 -7 -49 -13 -79 -13 -195 0 -372 132 -431 322 l-21 67 74 98
c110 147 237 293 383 439 117 118 239 224 257 224 3 0 12 -15 18 -34z m-725
-808 c33 -105 111 -197 218 -262 65 -39 178 -69 244 -65 23 2 45 1 47 -2 3 -3
-6 -18 -19 -34 -23 -29 -25 -30 -117 -30 -84 0 -100 3 -160 32 -37 17 -91 50
-122 73 -67 51 -141 157 -156 224 -10 45 -9 51 15 82 14 19 28 34 29 34 2 0
11 -24 21 -52z m7 -360 c51 -51 117 -89 188 -108 25 -7 50 -14 57 -16 9 -2 7
-15 -7 -46 -11 -24 -20 -64 -20 -90 0 -48 -12 -69 -81 -143 -16 -16 -48 -55
-72 -85 -26 -33 -63 -66 -93 -82 -58 -31 -157 -60 -162 -47 -2 5 35 61 83 125
48 64 85 118 82 120 -3 3 -50 -53 -106 -125 l-101 -129 -67 -4 c-38 -2 -70 -2
-72 -1 -2 1 14 27 35 58 121 171 272 400 268 405 -6 6 -31 -25 -82 -100 -20
-30 -70 -102 -110 -159 -40 -57 -112 -161 -159 -230 -47 -69 -91 -131 -97
-138 -8 -9 -10 7 -9 64 2 73 4 78 61 172 66 108 74 131 76 216 2 57 6 67 91
204 49 79 98 147 110 151 11 4 40 24 65 43 l45 36 14 -22 c8 -12 36 -43 63
-69z m-252 -23 c0 -5 -25 -50 -100 -175 -32 -53 -40 -61 -46 -46 -5 12 -1 31
10 49 9 16 15 31 14 33 -2 2 -21 -7 -43 -19 -25 -14 -46 -37 -59 -64 -12 -23
-24 -42 -28 -43 -13 0 -17 35 -9 73 18 75 81 133 191 175 58 22 70 25 70 17z
m-176 -283 c2 -4 -5 -24 -17 -45 -12 -20 -36 -60 -53 -89 -18 -29 -52 -88 -78
-130 -25 -43 -43 -78 -41 -78 3 0 14 14 25 32 l19 32 11 -28 c5 -15 10 -35 10
-44 0 -9 -34 -71 -76 -137 -194 -304 -394 -629 -381 -615 16 16 190 278 302
453 64 100 71 108 94 102 14 -4 30 -10 34 -14 5 -5 -25 -57 -67 -117 -129
-188 -271 -397 -279 -413 -14 -27 31 30 78 99 25 36 57 82 72 103 16 21 73
101 127 178 62 88 113 149 135 163 48 31 57 43 71 96 13 52 25 70 60 93 25 16
114 26 126 14 5 -5 -44 -78 -66 -97 -7 -6 -461 -621 -469 -635 -14 -25 46 48
132 160 188 246 321 422 376 497 37 52 64 80 81 83 14 3 48 12 77 19 45 11 53
11 58 -2 3 -8 0 -22 -7 -31 -7 -9 -101 -122 -208 -251 -174 -210 -250 -304
-196 -245 10 11 44 47 75 81 76 82 100 110 219 252 57 67 108 120 113 117 24
-16 -2 -771 -29 -821 -28 -52 -133 -102 -327 -155 -500 -137 -972 -224 -1272
-236 l-143 -6 -38 39 c-43 42 -39 28 -72 293 -13 110 -13 492 1 601 24 193 42
286 60 311 38 54 249 133 564 213 145 36 530 112 670 131 66 9 123 17 127 18
4 1 13 -7 21 -17 14 -19 15 -19 21 1 6 19 18 27 48 32 4 0 9 -3 12 -7z m26
-63 c0 -17 -11 -45 -26 -64 -27 -36 -72 -70 -81 -61 -7 7 86 156 98 156 5 0 9
-14 9 -31z m616 -42 c-4 -32 -18 -71 -32 -93 -25 -38 -100 -101 -110 -92 -2 3
7 25 21 49 13 24 25 54 25 66 0 31 85 141 98 128 3 -2 1 -29 -2 -58z m-692
-142 c-27 -42 -52 -79 -55 -81 -12 -7 -21 54 -11 72 10 18 105 94 111 88 2 -1
-19 -37 -45 -79z m-54 -182 c0 -44 -35 -93 -66 -93 -14 0 -24 3 -22 8 20 43
66 112 76 112 7 0 12 -12 12 -27z m56 -68 c-9 -14 -21 -25 -27 -25 -11 0 -4
15 19 43 22 25 28 12 8 -18z m-66 -30 c-7 -8 -18 -15 -24 -15 -6 0 -2 7 8 15
25 19 32 19 16 0z m575 -975 c84 -12 97 -17 250 -93 233 -115 541 -292 608
-349 28 -23 30 -28 17 -41 -18 -18 -280 -101 -450 -143 -298 -73 -444 -108
-585 -138 -385 -83 -518 -109 -745 -147 -161 -27 -269 -22 -367 17 -234 93
-486 227 -638 339 -95 70 -113 91 -94 109 24 23 194 80 374 127 413 105 510
128 800 189 50 11 122 26 160 35 162 36 489 93 590 104 6 0 42 -4 80 -9z
m1325 -402 l45 -21 -50 -7 c-39 -5 -58 -3 -85 12 -19 10 -45 18 -57 18 -12 0
-25 5 -28 10 -13 20 127 11 175 -12z m-127 -19 c46 -12 47 -24 5 -43 -67 -28
-128 -110 -128 -172 0 -22 -2 -24 -14 -14 -47 38 -58 163 -18 202 32 33 96 44
155 27z m225 -33 c34 -17 85 -73 107 -116 26 -51 30 -138 8 -180 -57 -110
-239 -102 -395 17 -47 37 -48 38 -48 94 0 51 3 60 40 101 42 48 94 75 170 88
69 12 89 11 118 -4z"/>
<path d="M3222 4150 c-71 -29 -135 -110 -148 -187 -11 -74 12 -140 70 -198 92
-91 211 -100 309 -23 134 106 111 319 -43 398 -42 22 -145 27 -188 10z m140
-60 c44 -13 93 -66 109 -120 17 -56 -2 -114 -52 -162 -66 -63 -146 -63 -217
-2 -74 63 -80 163 -15 235 48 53 103 69 175 49z"/>
<path d="M3317 4006 c-26 -7 -51 -17 -55 -21 -4 -4 4 -5 18 -1 14 3 42 9 63
12 20 4 37 10 37 15 0 11 -3 11 -63 -5z"/>
<path d="M3327 3885 c-21 -7 -42 -16 -45 -20 -9 -10 43 3 82 20 40 18 12 18
-37 0z"/>
<path d="M1959 1853 c-13 -16 -12 -17 4 -4 9 7 17 15 17 17 0 8 -8 3 -21 -13z"/>
<path d="M2640 1391 c-452 -80 -984 -185 -1120 -221 -19 -5 -101 -26 -182 -46
-180 -44 -298 -85 -311 -106 -19 -30 104 -120 283 -206 83 -40 105 -47 173
-50 46 -3 112 2 165 12 268 51 442 88 802 171 63 15 221 51 350 81 355 81 373
85 403 101 23 11 26 17 17 33 -13 24 -92 72 -265 159 -151 75 -213 90 -315 72z
m189 -29 c23 -9 43 -21 43 -27 -1 -5 -20 -13 -44 -17 -24 -4 -83 -14 -133 -23
-148 -24 -357 -62 -405 -74 -25 -5 -81 -17 -125 -26 -218 -42 -588 -128 -878
-204 -86 -23 -165 -41 -175 -41 -19 1 -72 43 -72 58 0 30 472 153 910 237 69
13 146 28 170 34 25 6 137 26 250 46 113 20 223 40 245 44 68 15 167 11 214
-7z m175 -86 c32 -18 54 -36 48 -40 -6 -3 -55 -13 -109 -21 -203 -31 -656
-115 -718 -134 -16 -5 -57 -15 -90 -21 -112 -22 -541 -129 -697 -174 l-156
-46 -71 42 c-39 22 -71 44 -71 47 0 4 28 14 62 23 35 9 126 32 203 51 405 104
890 208 1255 271 52 9 118 20 145 25 99 17 136 13 199 -23z m159 -86 c26 -17
47 -34 47 -38 0 -12 -52 -29 -155 -51 -49 -11 -139 -31 -200 -45 -60 -14 -141
-33 -180 -41 -38 -9 -106 -24 -150 -34 -44 -11 -152 -35 -240 -56 -88 -20
-176 -41 -195 -46 -83 -23 -484 -98 -565 -105 -47 -4 -75 0 -129 19 -39 13
-71 28 -73 33 -2 5 41 22 95 37 132 39 614 161 737 187 265 56 427 89 495 99
41 7 96 17 121 22 56 13 284 47 319 48 14 0 46 -13 73 -29z"/>
<path d="M2595 930 c-16 -4 -72 -15 -123 -25 -94 -17 -188 -47 -205 -64 -15
-15 -3 -34 44 -66 37 -26 50 -30 108 -29 59 2 422 82 437 97 14 14 -11 46 -55
71 -39 21 -61 26 -112 25 -35 0 -77 -4 -94 -9z m181 -24 c49 -23 71 -42 62
-52 -9 -8 -168 -47 -353 -85 -71 -15 -137 -7 -173 22 -17 13 -31 29 -31 36 -1
16 108 48 262 77 157 30 172 31 233 2z"/>
</g>
</svg>
