<svg width="474" height="474" viewBox="0 0 474 474" fill="none" xmlns="http://www.w3.org/2000/svg">
<path d="M225.658 0.855591C213.059 2.0351 201.103 6.00247 190.434 12.4897C187.861 14.0981 185.019 15.6529 184.108 15.9209C183.25 16.2426 182.5 16.7787 182.5 17.0468C182.5 17.3685 179.658 20.5317 176.227 24.1237C167.005 33.5597 162.555 40.6367 158.642 52.0027L156.98 56.8815L150.814 57.2568C143.201 57.6857 137.143 59.3477 129.154 63.2614C100.579 77.2009 85.7812 107.224 93.5552 135.532C98.0051 151.831 111.355 165.395 127.814 170.381C131.781 171.56 132.21 171.56 168.453 171.775C188.558 171.828 205.017 172.043 205.017 172.204C205.017 172.954 202.658 181.747 201.211 186.304C199.495 191.987 199.656 192.791 202.658 192.791C204.267 192.791 204.481 192.952 204.803 194.721C205.017 195.793 205.017 198.635 204.803 201.048C204.374 206.516 202.873 209.626 199.763 211.824L197.404 213.432L144.434 213.593L91.4643 213.7L91.2498 207.588C91.089 200.672 90.4992 199.493 87.2288 198.903C86.2102 198.689 79.294 198.742 71.7882 198.957L58.1704 199.332L58.0096 200.78L57.8487 202.173L37.9046 202.334L17.9068 202.442V204.372C17.9068 205.766 18.3357 206.838 19.4616 208.125C21.9814 210.966 22.4104 217.239 20.105 217.829C19.5688 217.936 18.6574 219.115 18.0141 220.456L16.8346 222.815L37.3685 222.922C56.3476 223.083 57.8487 223.136 58.0096 223.994C58.1704 224.905 56.7765 224.959 34.0444 224.959H9.86484V226.782C9.86484 228.23 10.1329 228.712 11.0979 229.034C11.7413 229.195 13.1889 230.374 14.3147 231.554C15.9231 233.376 16.2984 234.181 16.2984 236.003C16.2984 239.327 15.4942 241.043 13.9395 241.043C13.028 241.043 12.4919 241.472 12.0094 242.598C11.6877 243.456 11.0443 244.313 10.6154 244.474C10.1865 244.635 9.86484 245.01 9.86484 245.332C9.86484 245.707 17.6924 245.868 33.7228 245.868C57.2054 245.868 57.5807 245.868 57.5807 246.941C57.5807 248.013 57.2054 248.013 33.7228 248.013H9.86484L9.54316 249.3C9.38232 249.997 9.32871 251.176 9.43594 251.819L9.59678 253.106L55.1681 253.374L100.739 253.642L101.49 255.948C102.241 258.467 101.919 261.845 100.793 262.274C100.418 262.435 79.7766 262.596 54.8464 262.649L9.59678 262.756V264.633V266.509L15.5479 266.67C21.0164 266.777 21.5525 266.885 21.8206 267.85C22.1959 269.244 24.126 269.244 24.5013 267.85C24.7693 266.777 25.2519 266.777 64.1215 266.777C94.1449 266.724 103.634 266.563 104.278 266.08C106.101 264.687 106.369 263.185 106.369 253.964C106.369 245.654 106.476 244.85 107.334 244.582C107.87 244.367 110.658 244.313 113.499 244.367C119.075 244.528 120.523 243.992 119.45 242.223C118.968 241.472 117.842 241.311 112.588 241.15L106.369 240.989V233.591C106.369 223.565 106.476 223.726 97.9515 223.351L91.6251 223.083V221.206V219.33L145.238 219.062L198.852 218.794L201.586 217.346C205.017 215.523 207.912 212.253 209.306 208.5C210.164 206.194 210.379 204.318 210.379 199.225V192.791H211.933C214.453 192.791 214.775 191.826 213.542 187.912C212.094 183.409 209.306 173.061 209.306 172.418C209.306 172.096 213.059 171.882 219.225 171.882H229.143V178.584V185.285L231.556 185.929L233.968 186.572L233.861 213.968L233.7 241.311L231.449 241.472C227.374 241.794 228.178 244.796 232.306 244.796H234.236V291.547V338.351L235.738 341.568C237.4 345.16 240.777 348.913 243.619 350.414C247.372 352.344 251.125 352.559 279.486 352.559H307.15V398.827V445.042L308.491 447.722C310.314 451.368 313.745 453.62 318.141 454.156C321.251 454.531 321.358 454.585 321.358 456.086V457.641H307.419C299.752 457.641 293.479 457.48 293.479 457.265C293.479 457.105 293.908 456.461 294.444 455.871C295.248 454.96 295.356 453.03 295.516 434.748L295.677 414.643L293.694 412.766L291.71 410.944L294.015 406.011C295.302 403.277 297.286 399.149 298.411 396.843C300.342 392.769 300.449 392.393 300.449 387.139C300.449 382.957 300.288 381.563 299.698 381.349C299.269 381.188 297.286 382.743 294.927 385.156C290.959 389.177 290.745 389.552 285.973 400.006C283.293 405.904 280.88 410.944 280.612 411.212C279.915 411.909 279.861 409.818 280.558 409.067C281.148 408.424 286.241 394.806 287.099 391.696C287.528 389.981 287.582 387.729 287.26 383.922C286.831 378.936 286.67 378.561 285.652 378.561C283.668 378.561 277.181 388.265 276.001 392.983C275.465 395.288 274.875 394.002 273.91 387.997C272.624 380.223 272.516 379.955 268.978 375.076C266.672 371.859 265.6 370.787 264.796 370.894C264.099 371.002 263.67 371.538 263.563 372.396C263.509 373.146 263.027 375.666 262.598 378.025L261.794 382.368L264.26 395.181C265.6 402.258 266.887 408.853 267.048 409.764C267.316 411.372 267.209 411.533 265.975 411.533C265.225 411.533 264.528 411.212 264.367 410.89C264.206 410.515 261.526 404.296 258.416 397.058L252.787 383.976L248.444 380.062C246.085 377.918 243.887 376.149 243.619 376.149C242.654 376.149 242.439 377.435 242.493 382.582L242.6 387.836L247.693 399.149C250.428 405.314 252.733 410.676 252.733 410.997C252.733 411.265 252.304 411.533 251.822 411.533C251.285 411.533 250.16 412.123 249.248 412.82L247.64 414.107L247.479 434.051C247.318 453.191 247.372 454.102 248.39 455.818L249.463 457.641H240.884H232.36L233.486 455.389C236.006 450.457 233.808 444.934 228.339 442.146C221.905 438.983 212.148 441.771 210.325 447.293C210.003 448.258 209.574 448.955 209.306 448.795C209.038 448.634 207.483 445.899 205.821 442.736C204.159 439.573 202.39 436.571 201.961 436.035C201.157 435.177 199.495 435.123 181.588 435.123C166.362 435.123 162.127 434.962 162.127 434.426C162.127 432.603 160.84 429.547 159.339 427.832C156.98 425.151 154.942 424.293 150.064 423.918L145.775 423.596L145.614 417.055L145.453 410.515L176.709 410.354C207.537 410.193 208.02 410.193 210.11 409.013C212.791 407.566 214.4 405.904 215.472 403.384C216.169 401.615 216.276 395.074 216.276 348.806C216.276 296.694 216.276 296.158 215.204 293.691C213.756 290.528 211.772 288.384 209.038 287.097C207.001 286.132 203.409 286.078 118.593 286.078H30.3451L26.9675 287.847C24.3404 289.188 23.2146 290.153 21.9278 292.19L20.3194 294.817L20.1586 347.948C20.0514 387.675 20.2122 401.508 20.6411 402.687C21.7134 405.368 23.7507 407.727 26.1097 409.013C28.3614 410.193 28.4687 410.193 57.0445 410.354C72.8068 410.407 86.5318 410.461 87.4969 410.461H89.2125V417.109V423.704L84.7626 423.972C82.2964 424.132 79.6157 424.615 78.7043 425.097C76.1845 426.384 74.1472 428.958 73.0749 432.014L72.1099 434.855L52.541 435.123C36.0817 435.338 32.8113 435.498 32.2216 436.195C31.7927 436.624 29.0584 441.61 26.1633 447.293L20.8556 457.587L11.5269 457.748L2.19814 457.909L1.12588 459.41L0 460.858L1.12588 462.359L2.19814 463.806L236.649 463.967C445.955 464.074 471.261 463.967 472.387 463.27C473.888 462.251 474.049 459.785 472.655 458.552C471.797 457.748 469.76 457.641 455.23 457.641H438.771V456.032C438.771 454.692 438.986 454.424 440.004 454.424C442.792 454.424 446.599 452.816 448.529 450.832C452.496 446.757 452.174 454.853 452.174 354.274C452.174 252.57 452.55 261.041 447.993 256.484C443.328 251.712 448.69 252.034 379.796 252.034H318.945L316.211 253.267C312.994 254.714 309.456 258.146 308.116 261.148C307.204 263.132 307.15 266.134 307.043 304.843C306.99 327.682 306.936 346.554 306.882 346.768C306.882 346.929 294.015 347.037 278.36 346.983C247.211 346.822 248.015 346.876 244.208 343.659C243.19 342.855 241.85 340.925 241.153 339.423L239.866 336.743V261.631V186.465L241.742 186.143C244.905 185.553 245.281 184.749 245.227 178.637C245.174 175.689 245.174 172.901 245.174 172.525C245.227 172.043 247.479 171.882 254.609 171.882C263.348 171.882 263.992 171.936 263.992 172.847C263.992 173.383 262.866 177.619 261.526 182.283C260.185 186.894 259.167 191.076 259.274 191.612C259.381 192.201 260.132 192.63 261.311 192.791L263.188 193.059L263.456 200.297C263.67 205.283 264.045 208.125 264.635 209.465C265.815 212.199 269.031 215.63 271.98 217.346L274.446 218.794L335.029 218.954L395.612 219.062L397.114 221.474C399.097 224.584 403.922 228.98 407.193 230.642L409.82 231.929V235.414V238.899H418.666H427.512V235.521C427.512 231.714 427.673 231.5 431.855 229.087C434.375 227.64 437.592 224.209 439.682 220.67C442.738 215.63 443.489 207.213 441.452 200.78C439.522 194.507 434.268 188.18 429.013 185.768C427.566 185.124 427.512 184.964 427.512 181.264C427.512 179.013 427.244 177.19 426.869 176.814C426.44 176.385 423.813 176.171 418.666 176.171C413.519 176.171 410.892 176.385 410.463 176.814C410.088 177.19 409.82 179.066 409.82 181.372C409.82 183.891 409.605 185.285 409.23 185.285C407.997 185.285 401.295 190.218 399.419 192.523C398.347 193.81 396.685 196.544 395.72 198.528C394.218 201.798 394.004 202.817 393.843 207.91L393.629 213.7H336.102C294.551 213.7 278.146 213.539 276.805 213.111C274.017 212.146 271.605 210.108 270.318 207.642C269.353 205.766 269.085 204.264 268.924 199.064L268.71 192.791H270.854C272.302 192.791 273.106 192.523 273.32 191.933C273.481 191.451 272.945 188.609 272.087 185.661C271.23 182.658 270.104 178.691 269.621 176.868C269.192 175.045 268.656 173.169 268.495 172.74C268.227 172.043 273.106 171.882 309.134 171.775C340.337 171.614 350.524 171.399 352.186 170.863C361.514 167.915 367.733 164.322 373.416 158.747C380.279 151.938 384.997 143.628 387.41 133.977C389.072 127.383 389.072 115.91 387.41 108.726C386.176 103.418 382.692 95.4294 379.743 91.1404C376.741 86.7441 370.146 80.2569 365.643 77.2545C360.388 73.8233 355.831 71.8932 349.88 70.6601L345.43 69.7487L343.768 66.9072C341.677 63.2614 337.174 58.3826 332.992 55.2195C325.433 49.5365 316.158 46.4269 306.882 46.4269H301.628L299.43 41.9234C295.838 34.5247 291.066 27.8767 284.633 21.4967C271.283 8.147 255.896 1.44534 236.381 0.641144C233.164 0.533905 228.339 0.587524 225.658 0.855591ZM250.106 8.52231C270.533 13.8836 287.742 28.9489 295.409 48.2497L297.125 52.5924L303.773 52.4316C311.654 52.2171 316.533 53.2358 323.234 56.5598C330.633 60.2591 335.994 65.4596 340.23 72.9655L342.053 76.1823L346.074 76.5039C350.792 76.8792 353.043 77.5762 357.815 79.9352C369.824 85.9935 378.831 97.7884 381.78 111.513C382.906 116.768 382.852 126.579 381.673 131.672C379.528 140.786 375.99 147.22 369.61 153.707C364.731 158.639 360.603 161.267 354.008 163.733L350.041 165.18H240.938H131.835L127.6 163.679C115.697 159.497 105.511 149.632 101.061 138.106C96.2895 125.775 96.8792 110.28 102.562 98.1101C106.744 89.2103 114.625 79.7207 122.453 74.1985C126.849 71.0354 135.534 66.7463 140.36 65.2451C144.273 64.012 154.085 62.7253 155.425 63.2614C156.015 63.4759 156.229 64.4946 156.229 67.3361C156.229 70.8745 156.336 71.1426 157.623 71.7324C159.821 72.751 160.733 71.7859 161.215 67.8186C162.18 60.0983 164.378 52.6996 167.542 46.4269C177.245 27.1797 194.938 13.3475 215.847 8.68314C224.372 6.80667 224.05 6.86029 235.041 7.02112C243.619 7.12836 245.656 7.3428 250.106 8.52231ZM424.188 180.567C424.027 181.747 423.759 181.8 418.988 181.961C413.895 182.122 412.769 181.747 413.412 180.085C413.626 179.549 415.074 179.388 419.041 179.388C424.242 179.388 424.349 179.388 424.188 180.567ZM426.494 190.486C430.407 192.416 433.356 195.525 435.876 200.297C437.27 202.978 437.431 203.728 437.431 208.607C437.431 213.271 437.27 214.344 436.037 216.971C432.337 224.852 423.116 229.945 415.396 228.283C408.533 226.836 402.904 222.654 400.223 216.917C398.99 214.344 398.829 213.271 398.829 208.607C398.829 203.943 399.044 202.87 400.277 200.297C403.922 192.523 410.517 188.395 418.666 188.609C422.258 188.77 423.545 189.038 426.494 190.486ZM87.3896 202.656C88.3011 203.353 88.4083 204.264 88.5691 212.306C88.6764 218.043 88.5155 221.528 88.1402 222.225C87.6041 223.297 87.1216 223.351 77.9537 223.351H68.3033V212.628V201.905H77.3103C84.2265 201.905 86.5854 202.066 87.3896 202.656ZM57.6879 211.931C57.7951 213.647 57.7415 215.845 57.6343 216.756L57.4734 218.526H40.478H23.5362V213.7V208.875H40.5316H57.4734L57.6879 211.931ZM86.9607 237.237C87.068 245.225 86.9071 247.745 86.4246 248.12C86.0493 248.334 81.8139 248.549 77.0959 248.549H68.4642L68.0889 246.512C67.928 245.439 67.7672 240.882 67.7672 236.379C67.7672 230.052 67.928 228.069 68.5178 227.479C69.1611 226.889 71.1448 226.728 78.0609 226.782L86.7999 226.836L86.9607 237.237ZM101.222 228.766C101.651 230.91 101.651 245.761 101.222 247.316C100.9 248.495 100.632 248.549 95.5925 248.549H90.2848V245.064C90.2848 241.901 90.392 241.526 91.5715 240.989C93.0727 240.292 94.1985 238.362 93.9305 236.968C93.8232 236.432 92.9654 235.467 92.054 234.878C90.392 233.859 90.3384 233.644 90.2848 230.428V227.104H95.5925H100.9L101.222 228.766ZM57.5807 236.218V241.043L51.844 241.15C48.6272 241.204 44.231 241.204 42.0328 241.15C39.8347 241.097 33.5083 241.097 27.9325 241.043H17.9068L18.2285 238.202C18.3894 236.647 18.3357 234.502 18.0141 233.376L17.4779 231.393H37.5293H57.5807V236.218ZM424.188 234.824C424.027 235.896 423.706 235.95 418.666 235.95C413.68 235.95 413.305 235.896 413.144 234.878C412.983 233.805 413.251 233.752 418.666 233.698C424.188 233.644 424.349 233.698 424.188 234.824ZM441.827 258.843C442.738 259.379 444.079 260.558 444.776 261.523L446.009 263.293L446.17 353.792L446.277 444.237L444.454 446.275L442.631 448.258L380.386 448.419C311.6 448.58 315.943 448.741 314.013 445.149C313.102 443.54 313.048 438.501 313.048 353.899C313.048 269.941 313.102 264.258 313.959 262.649C315.461 259.915 317.873 258.575 321.841 258.199C323.771 258.038 351.221 257.878 382.745 257.878C436.144 257.931 440.219 257.985 441.827 258.843ZM206.572 292.458C207.698 293.048 209.092 294.174 209.628 295.032C210.593 296.479 210.647 298.195 210.647 343.176V389.82L118.485 389.981C45.0888 390.088 26.2169 389.981 25.8416 389.445C25.3055 388.533 25.3591 303.556 25.8952 299.053C26.3777 294.871 28.2006 292.726 31.8463 292.029C33.1866 291.761 72.5924 291.547 119.397 291.493C202.712 291.44 204.588 291.44 206.572 292.458ZM267.423 377.274C268.549 379.151 268.227 380.438 266.672 380.438C265.761 380.438 265.6 380.116 265.6 378.025C265.6 375.184 266.083 374.969 267.423 377.274ZM248.444 383.869C248.926 384.673 248.926 384.941 248.337 385.316C246.407 386.55 245.227 385.37 245.227 382.153C245.227 380.92 245.227 380.92 246.514 381.885C247.211 382.421 248.069 383.279 248.444 383.869ZM270.372 389.391C271.069 393.198 272.195 399.256 272.892 402.848C274.554 411.426 274.554 411.533 272.624 411.533C270.854 411.533 271.337 413.142 267.691 395.771C266.565 390.195 265.6 385.209 265.6 384.673C265.6 383.922 267.316 382.85 268.871 382.636C269.031 382.582 269.728 385.638 270.372 389.391ZM284.472 386.978C283.882 387.568 282.22 386.978 282.22 386.067C282.22 385.692 282.756 384.727 283.453 383.869L284.633 382.314L284.794 384.405C284.901 385.531 284.74 386.71 284.472 386.978ZM297.768 388.265C297.768 389.766 297.554 390.142 296.91 389.981C296.428 389.874 295.731 389.391 295.409 388.909C294.98 388.158 295.087 387.783 295.892 387.193C297.5 385.96 297.768 386.121 297.768 388.265ZM255.628 399.578C258.148 405.529 260.239 410.676 260.239 410.997C260.239 411.265 259.542 411.533 258.63 411.533C256.915 411.533 256.325 410.729 253.644 404.296C252.894 402.526 251.071 398.344 249.57 394.967C248.069 391.589 246.889 388.801 246.943 388.748C247.05 388.694 247.854 388.265 248.712 387.783C250.213 387.032 250.374 387.032 250.696 387.836C250.857 388.319 253.108 393.626 255.628 399.578ZM283.829 390.41C284.097 390.678 282.381 395.771 279.593 402.955L278.038 406.976L277.395 404.617C276.591 401.561 276.913 398.666 278.575 394.645C279.325 392.876 280.076 390.999 280.29 390.41C280.558 389.659 280.934 389.498 282.113 389.82C282.917 390.034 283.668 390.302 283.829 390.41ZM296.589 393.037C296.642 393.09 294.819 397.219 292.46 402.205C288.386 410.836 288.118 411.265 286.563 411.426C285.544 411.533 284.901 411.372 284.901 410.997C284.901 410.622 286.563 406.547 288.6 401.937C290.638 397.326 292.46 393.037 292.675 392.393C292.997 391.214 293.05 391.214 294.712 392.018C295.677 392.501 296.481 392.983 296.589 393.037ZM210.539 398.666C210.486 401.186 210.271 401.776 208.824 403.062L207.162 404.564H118.7C53.0235 404.564 29.9162 404.403 28.9512 403.92C27.1283 403.116 26.0561 401.4 25.6271 398.666C25.3591 397.004 25.4663 396.307 26.0024 395.932C26.4313 395.664 66.1052 395.503 118.7 395.61L210.647 395.717L210.539 398.666ZM96.9328 411.319C97.4153 412.498 97.3081 422.417 96.8256 423.167C96.6111 423.489 95.9678 423.864 95.378 423.972C94.3594 424.132 94.3058 423.811 94.1449 418.021C94.0913 414.643 94.1449 411.533 94.2521 411.158C94.6274 410.193 96.5575 410.3 96.9328 411.319ZM140.574 417.27C140.413 423.918 140.36 424.132 139.234 424.293C138.001 424.454 138.001 424.454 138.001 417.484V410.461H139.341H140.735L140.574 417.27ZM267.101 417.27C267.262 418.503 267.155 418.503 262.008 418.503C258.577 418.503 256.486 418.717 256.057 419.146C255.575 419.629 255.414 424.132 255.414 436.035C255.414 451.582 255.467 452.333 256.486 453.352C257.076 453.941 258.041 454.424 258.684 454.424C259.488 454.424 259.756 454.692 259.595 455.603C259.435 456.676 259.113 456.837 257.129 456.783C255.36 456.729 254.449 456.408 253.376 455.282L251.929 453.888L251.875 436.303C251.822 426.652 251.929 418.235 252.036 417.592C252.358 416.037 253.001 415.93 260.507 416.037C266.726 416.09 266.941 416.144 267.101 417.27ZM288.332 416.519C289.673 417.484 289.297 419.79 287.742 420.004C286.885 420.111 286.509 419.897 286.509 419.361C286.509 418.61 285.491 418.503 279.272 418.503C272.516 418.503 272.034 418.449 272.034 417.484C272.034 416.895 272.355 416.305 272.731 416.198C273.052 416.037 276.537 415.876 280.397 415.876C285.33 415.822 287.635 416.037 288.332 416.519ZM151.511 429.172C153.388 429.923 155.693 432.335 155.693 433.515C155.693 434.587 155.05 434.587 117.091 434.587C80.0982 434.587 78.4898 434.533 78.4898 433.622C78.4898 432.442 80.6344 430.352 82.6717 429.44C84.4409 428.636 149.527 428.421 151.511 429.172ZM37.7437 441.289C37.7437 441.771 36.7787 443.916 35.5992 446.06C34.4197 448.205 33.4547 450.242 33.4547 450.564C33.4547 451.046 53.8813 451.207 117.359 451.207C173.546 451.207 201.264 451.046 201.264 450.671C201.264 450.349 200.728 449.009 200.085 447.669C198.959 445.256 198.905 445.202 196.922 445.524C194.938 445.846 194.831 445.739 193.49 443.54C192.74 442.254 192.15 441.021 192.15 440.86C192.15 440.645 193.919 440.484 196.117 440.484H200.085L202.658 445.417C204.052 448.151 205.982 451.904 207.001 453.781C207.966 455.657 208.77 457.319 208.77 457.426C208.77 457.534 167.649 457.641 117.359 457.641C67.0702 457.641 25.9488 457.534 25.9488 457.373C25.9488 456.944 29.3801 450.135 32.2216 444.881C34.3661 440.913 34.795 440.484 36.189 440.484C37.2076 440.484 37.7437 440.753 37.7437 441.289ZM50.6109 440.753C50.6109 440.913 50.1284 442.039 49.5387 443.165L48.4664 445.31H43.9093H39.2985L40.21 443.54C41.7111 440.592 41.9256 440.484 46.3755 440.484C48.7345 440.484 50.6109 440.592 50.6109 440.753ZM57.5807 441.021C57.5807 441.342 57.2054 442.415 56.8301 443.433C56.1331 444.988 55.7578 445.31 54.4175 445.31C52.4874 445.31 52.3802 444.72 53.8813 442.307C54.6319 441.021 55.3825 440.484 56.2939 440.484C56.9909 440.484 57.5807 440.753 57.5807 441.021ZM75.273 441.021C75.273 441.289 74.8441 442.361 74.3616 443.433L73.4502 445.31H66.5877C59.0818 445.31 58.921 445.256 60.7975 442.2L61.8697 440.484H68.5714C72.5388 440.484 75.273 440.699 75.273 441.021ZM82.7789 440.592C82.7789 440.699 82.4036 441.718 82.0283 442.897C81.385 444.72 81.0097 445.042 79.6157 445.202C77.632 445.417 77.4176 444.452 78.8651 442.039C79.5621 440.913 80.2055 440.484 81.2777 440.484C82.0819 440.484 82.7789 440.538 82.7789 440.592ZM95.3244 441.664C94.1449 445.524 94.4666 445.31 89.4806 445.31C84.9234 445.31 84.8698 445.31 85.2451 444.077C86.4246 440.27 86.1029 440.484 91.089 440.484C95.6461 440.484 95.6997 440.484 95.3244 441.664ZM109.371 441.396C109.21 441.932 108.942 443.004 108.728 443.809L108.406 445.31H103.152H97.8442L98.702 442.897L99.5062 440.484H104.6C109.157 440.484 109.639 440.592 109.371 441.396ZM117.091 441.664C117.091 444.666 116.502 445.363 114.464 445.202C112.695 445.042 112.534 444.934 112.642 443.487C112.856 440.913 113.178 440.484 115.215 440.484C116.823 440.484 117.091 440.645 117.091 441.664ZM126.474 442.897V445.042H123.525C120.683 445.042 120.576 444.988 120.415 443.54C120.094 440.806 120.576 440.431 123.632 440.592L126.474 440.753V442.897ZM143.362 441.664C143.362 442.361 143.201 443.433 143.04 444.077C142.719 445.256 142.504 445.31 136.339 445.31H129.959V442.897V440.484H136.66C143.255 440.484 143.362 440.484 143.362 441.664ZM150.868 442.897C150.868 445.31 150.868 445.31 148.991 445.31C147.168 445.31 147.115 445.256 147.115 443.272C147.115 440.806 147.383 440.484 149.367 440.484C150.814 440.484 150.868 440.592 150.868 442.897ZM159.982 441.878C161.108 444.774 160.786 445.31 157.891 445.31C155.05 445.31 154.621 444.881 154.621 442.039C154.621 440.538 154.728 440.484 157.033 440.484C159.178 440.484 159.553 440.645 159.982 441.878ZM171.67 441.825C173.064 444.881 172.688 445.31 168.507 445.31H164.754L163.949 443.433C163.574 442.415 163.199 441.342 163.199 441.021C163.199 440.699 164.807 440.484 167.113 440.484C170.812 440.484 171.08 440.592 171.67 441.825ZM183.304 442.093C184.805 444.934 184.483 445.31 180.623 445.31H177.138L176.12 443.219C175.53 442.093 175.208 441.021 175.369 440.806C175.583 440.645 177.245 440.484 179.068 440.484C182.285 440.484 182.5 440.592 183.304 442.093ZM189.094 442.361C190.488 445.256 190.274 446.489 188.558 445.417C187.968 445.042 186.253 441.557 186.253 440.753C186.253 440.592 186.681 440.484 187.218 440.484C187.807 440.484 188.558 441.235 189.094 442.361ZM226.784 445.256C231.395 447.347 232.842 452.011 229.733 454.906C226.248 458.123 217.027 458.713 215.096 455.818C214.4 454.799 214.614 447.722 215.365 446.757C217.295 444.184 222.87 443.487 226.784 445.256ZM349.451 454.37C349.666 454.638 349.559 455.496 349.237 456.247L348.701 457.641L337.871 457.534L326.987 457.373L326.827 455.925L326.666 454.424L337.549 454.263C343.554 454.209 348.594 454.102 348.808 453.995C349.022 453.941 349.291 454.102 349.451 454.37ZM406.818 455.282C407.783 457.748 408.748 457.641 380.815 457.641C357.011 457.641 354.491 457.534 354.813 456.783C354.974 456.3 355.134 455.603 355.134 455.175C355.134 454.531 358.995 454.424 380.815 454.424C403.708 454.424 406.549 454.531 406.818 455.282ZM433.678 455.496C433.839 456.086 433.839 456.783 433.678 457.105C433.463 457.426 429.55 457.641 423.545 457.641H413.734L413.144 456.3C412.769 455.55 412.501 454.799 412.501 454.692C412.501 454.531 417.165 454.424 422.902 454.424C432.874 454.424 433.356 454.478 433.678 455.496Z" fill="white"/>
<path d="M224.103 18.0119C218.796 19.1377 217.134 20.1564 218.474 21.4967C219.171 22.1937 219.761 22.1937 223.514 21.2823C225.873 20.7461 229.25 20.0492 231.02 19.7811C233.807 19.4058 234.236 19.1913 234.397 18.1191C234.558 17.0468 234.397 16.9396 231.717 16.9932C230.162 16.9932 226.731 17.4757 224.103 18.0119Z" fill="white"/>
<path d="M241.152 17.6365C240.616 19.0305 241.313 19.4594 244.53 19.8347C251.661 20.6925 259.381 23.6412 265.6 27.8231C269.192 30.2893 275.572 36.562 278.306 40.3686C279.647 42.245 280.88 43.7462 281.148 43.7462C281.362 43.7462 281.845 43.4245 282.167 42.9956C282.971 42.0306 282.488 40.9583 279.218 36.7765C270.586 25.6249 257.826 18.2263 245.12 17.1004C242.118 16.8323 241.421 16.9396 241.152 17.6365Z" fill="white"/>
<path d="M208.877 24.6063C208.127 25.4105 207.912 26.0538 208.234 26.59C208.931 27.7159 212.523 25.9466 212.523 24.4454C212.523 22.9443 210.379 23.0515 208.877 24.6063Z" fill="white"/>
<path d="M199.817 31.0399C197.94 32.8091 197.779 34.0958 199.388 34.0958C200.728 34.0958 203.623 31.1471 203.248 30.1821C202.765 28.8417 202.015 29.0562 199.817 31.0399Z" fill="white"/>
<path d="M189.898 40.6366C183.143 48.8931 176.977 62.4036 179.283 63.8512C180.194 64.3873 181.106 63.2078 182.232 60.0983C183.947 55.2195 188.344 47.2847 191.346 43.5318C193.651 40.6366 194.187 39.6716 193.705 39.1355C192.686 37.9024 191.828 38.2777 189.898 40.6366Z" fill="white"/>
<path d="M283.668 49.322C283.4 49.9654 285.223 55.4876 286.456 57.6857C287.046 58.8116 288.439 58.9724 288.868 57.9538C289.244 56.9351 286.777 49.5901 285.812 49.0004C284.847 48.357 283.99 48.4642 283.668 49.322Z" fill="white"/>
<path d="M300.717 60.9024C295.034 61.7603 294.283 62.1355 294.283 63.9048C294.283 65.406 294.391 65.4596 296.428 65.2987C304.952 64.7626 311.6 64.9771 314.174 65.8885C322.216 68.6764 329.936 76.4503 333.099 84.9212L334.279 88.0844L339.479 88.4061C348.004 88.835 353.955 91.5692 360.174 97.6811C366.447 103.9 369.556 110.977 369.985 120.199C370.253 125.024 370.092 126.257 368.859 130.653C366.983 137.194 364.892 140.786 360.281 145.343C355.51 150.061 350.095 153.01 343.715 154.404C342.535 154.672 342.214 155.047 342.374 155.959C342.535 156.977 342.857 157.138 344.948 157.085C347.843 157.031 353.794 154.726 357.761 152.152C370.736 143.628 376.848 125.989 372.183 110.816C369.074 100.737 361.943 91.9445 353.365 87.6555C349.612 85.7254 343.018 83.9561 339.801 83.9561H337.496L335.566 79.9888C331.062 70.7673 322.752 63.7439 313.852 61.5458C310.206 60.688 304.309 60.3663 300.717 60.9024Z" fill="white"/>
<path d="M300.717 69.1589C299.752 69.8559 299.698 70.0167 300.502 70.8209C301.736 72.054 304.845 71.357 304.631 69.8023C304.416 68.4083 302.218 68.033 300.717 69.1589Z" fill="white"/>
<path d="M309.67 69.6414C308.813 70.66 309.778 71.7323 311.708 71.7859C313.745 71.8931 314.281 71.0889 313.048 69.8022C311.976 68.7836 310.421 68.6764 309.67 69.6414Z" fill="white"/>
<path d="M175.637 70.9281C174.726 72.751 174.458 78.9165 175.262 79.9887C176.602 81.8116 177.567 79.9351 177.996 74.681C178.371 70.1775 178.318 70.0167 177.245 70.0167C176.602 70.0167 175.905 70.4456 175.637 70.9281Z" fill="white"/>
<path d="M291.924 71.1426C290.262 72.1612 289.833 73.716 291.066 74.1449C291.924 74.413 295.087 72.2685 295.087 71.4106C295.087 70.1775 293.694 70.0703 291.924 71.1426Z" fill="white"/>
<path d="M318.248 74.145C318.356 75.3244 318.731 75.6997 319.91 75.807C321.036 75.9678 321.358 75.7533 321.358 75.0028C321.358 74.413 321.09 73.716 320.715 73.3408C320.339 72.9655 319.642 72.6974 319.053 72.6974C318.302 72.6974 318.088 73.0191 318.248 74.145Z" fill="white"/>
<path d="M323.663 79.9888C323.234 81.1683 325.593 83.5809 326.559 82.8303C327.524 81.9725 327.416 81.061 326.29 80.0424C325.057 78.9165 324.092 78.8629 323.663 79.9888Z" fill="white"/>
<path d="M136.178 86.3688C131.781 88.138 127.546 91.0867 123.686 95.0005C120.362 98.3781 117.091 103.311 117.091 104.919C117.091 105.67 118.11 106.474 118.968 106.474C119.075 106.474 119.879 105.133 120.791 103.525C123.954 97.8956 132.586 90.4434 137.893 88.7278C141.217 87.6555 142.022 86.5832 140.252 85.6182C139.555 85.2429 138.43 85.4573 136.178 86.3688Z" fill="white"/>
<path d="M112.213 112.907C111.623 114.784 111.677 115.213 112.32 115.642C113.446 116.339 113.767 116.231 114.732 114.837C115.858 113.068 115.537 111.085 114.035 110.87C113.07 110.709 112.749 111.085 112.213 112.907Z" fill="white"/>
<path d="M357.761 116.768C357.708 116.875 357.601 119.823 357.493 123.362C357.386 126.9 357.225 130.493 357.118 131.404C357.011 132.691 357.225 133.012 358.083 133.012C359.691 133.012 360.442 130.117 360.442 124.005C360.496 118.644 360.013 116.66 358.619 116.66C358.19 116.66 357.761 116.714 357.761 116.768Z" fill="white"/>
<path d="M111.408 121.7C110.872 123.04 111.408 124.97 112.373 125.131C113.499 125.346 114.464 123.63 114.035 122.129C113.714 120.788 111.837 120.52 111.408 121.7Z" fill="white"/>
<path d="M108.835 131.458C108.406 132.53 111.301 139.982 113.446 143.252C116.18 147.434 122.882 153.814 126.903 156.066C133.658 159.819 140.949 161.213 140.949 158.8C140.949 157.996 140.145 157.621 136.928 156.763C131.835 155.423 126.742 152.742 122.506 149.15C117.735 145.129 114.572 140.411 111.516 132.583C110.711 130.546 109.425 129.956 108.835 131.458Z" fill="white"/>
<path d="M116.394 132.315C115.966 133.495 117.949 137.945 120.523 141.537C122.882 144.861 124.222 145.933 125.187 145.29C126.045 144.754 125.67 143.789 123.257 140.572C121.97 138.856 120.362 136.176 119.718 134.567C118.539 131.779 116.984 130.707 116.394 132.315Z" fill="white"/>
<path d="M353.848 138.374C352.775 139.5 352.775 140.465 353.848 141.376C354.598 141.966 354.866 141.859 355.724 140.786C356.26 140.036 356.689 139.071 356.582 138.642C356.421 137.516 354.866 137.355 353.848 138.374Z" fill="white"/>
<path d="M130.495 149.418C130.495 150.812 134.73 152.796 140.413 154.029C144.434 154.887 144.595 154.887 145.292 153.921C145.721 153.385 145.935 152.849 145.828 152.742C145.721 152.635 143.362 151.938 140.52 151.241C137.733 150.544 134.73 149.632 133.819 149.15C131.567 147.97 130.495 148.078 130.495 149.418Z" fill="white"/>
<path d="M152.315 152.367C152.101 152.581 151.94 153.225 151.94 153.761C151.94 154.672 152.369 154.726 158.266 154.618C164.11 154.458 164.539 154.404 164.539 153.385C164.539 152.367 164.11 152.313 158.588 152.152C155.371 152.099 152.53 152.206 152.315 152.367Z" fill="white"/>
<path d="M178.908 152.849C178.318 154.511 179.604 154.779 187.378 154.618C194.67 154.458 195.099 154.404 195.099 153.385C195.099 152.367 194.67 152.313 187.164 152.152C180.355 152.045 179.229 152.152 178.908 152.849Z" fill="white"/>
<path d="M204.159 152.849C203.516 154.404 204.535 154.726 210.647 154.726C215.686 154.726 216.758 154.565 217.027 153.868C217.187 153.385 217.241 152.796 217.027 152.528C216.866 152.259 213.971 152.045 210.593 152.045C205.714 152.045 204.374 152.206 204.159 152.849Z" fill="white"/>
<path d="M225.015 152.849C224.425 154.458 225.658 154.779 231.877 154.618C237.56 154.458 237.989 154.404 237.989 153.385C237.989 152.367 237.56 152.313 231.663 152.152C226.302 152.045 225.337 152.152 225.015 152.849Z" fill="white"/>
<path d="M253.43 152.903C253.269 153.332 253.376 153.975 253.644 154.243C253.912 154.511 260.507 154.672 269.943 154.618C285.276 154.458 285.705 154.404 285.705 153.385C285.705 152.367 285.276 152.313 269.728 152.152C255.574 152.045 253.752 152.152 253.43 152.903Z" fill="white"/>
<path d="M289.404 152.849C288.868 154.19 289.726 154.726 292.675 154.726C294.766 154.726 295.57 154.511 295.838 153.868C296.374 152.42 295.677 152.045 292.621 152.045C290.53 152.045 289.619 152.259 289.404 152.849Z" fill="white"/>
<path d="M300.824 152.796C300.234 154.297 301.736 154.726 307.794 154.726H313.852V153.385V152.045H307.472C302.54 152.045 301.039 152.206 300.824 152.796Z" fill="white"/>
<path d="M322.109 152.849C321.465 154.404 322.484 154.726 328.328 154.726C333.099 154.726 334.172 154.565 334.44 153.868C334.6 153.385 334.654 152.796 334.44 152.528C334.279 152.259 331.491 152.045 328.274 152.045C323.61 152.045 322.323 152.206 322.109 152.849Z" fill="white"/>
<path d="M412.447 191.397C408.158 192.952 403.494 196.812 404.083 198.367C404.566 199.654 405.316 199.386 406.549 197.67C407.997 195.633 410.999 193.81 414.109 193.006C415.503 192.684 416.522 192.094 416.522 191.665C416.522 190.647 414.806 190.539 412.447 191.397Z" fill="white"/>
<path d="M421.347 191.183C421.132 191.504 421.079 191.88 421.132 191.933C421.883 192.577 427.083 194.936 427.834 194.936C429.228 194.936 428.37 193.649 426.118 192.469C423.277 190.861 421.776 190.486 421.347 191.183Z" fill="white"/>
<path d="M417.433 196.651C417.004 197.08 416.79 199.546 416.79 204.157V211.02H425.314C433.946 211.02 434.75 210.859 434.107 208.982C433.946 208.5 432.016 208.339 426.923 208.339H420.006V203.192C420.006 196.973 419.202 194.882 417.433 196.651Z" fill="white"/>
<path d="M400.974 203.514C400.545 205.39 401.403 206.784 402.314 205.873C403.279 204.908 403.225 202.227 402.207 202.013C401.617 201.905 401.242 202.334 400.974 203.514Z" fill="white"/>
<path d="M400.384 210.162C399.526 212.36 403.869 221.206 405.799 221.206C406.925 221.206 406.817 220.295 405.424 218.365C404.727 217.4 403.708 215.094 403.065 213.218C401.939 209.733 400.974 208.607 400.384 210.162Z" fill="white"/>
<path d="M429.121 220.402C428.799 220.831 427.03 221.903 425.207 222.815C422.794 223.994 421.24 224.423 419.095 224.423C416.575 224.423 416.2 224.584 416.361 225.334C416.522 226.139 417.111 226.299 419.953 226.192C423.813 226.085 428.37 224.155 430.193 221.903C431.641 220.027 430.676 218.526 429.121 220.402Z" fill="white"/>
<path d="M75.6484 210.001C74.4689 210.698 73.5574 212.843 73.9864 213.968C74.2008 214.451 75.0586 215.201 75.97 215.63C77.4712 216.435 77.6857 216.435 78.9724 215.416C80.7952 214.076 81.0097 212.306 79.5085 210.698C78.2218 209.304 77.1495 209.143 75.6484 210.001Z" fill="white"/>
<path d="M74.7905 235.628C73.2357 237.183 73.343 239.22 74.9514 240.293C76.7206 241.418 78.4362 241.097 79.7229 239.274L80.8488 237.826L79.7229 236.325C78.3826 234.502 76.2381 234.181 74.7905 235.628Z" fill="white"/>
<path d="M322.591 265.276C319.803 266.027 319.214 267.85 319.214 275.248C319.214 280.717 319.374 281.736 320.179 282.486C321.09 283.344 325.969 283.398 379.636 283.398C436.412 283.398 438.128 283.344 439.361 282.379C440.594 281.414 440.648 281.039 440.648 274.605C440.648 267.957 440.648 267.85 439.146 266.402L437.699 264.901L380.976 264.847C349.827 264.847 323.503 265.008 322.591 265.276ZM432.766 269.565C433.463 270.423 433.571 271.388 433.463 276.535C433.41 280.61 433.356 280.717 432.069 280.717C430.729 280.717 430.729 280.663 430.729 276.428V272.139H380.065H329.4V276.428C329.4 280.663 329.4 280.717 328.06 280.717C326.827 280.717 326.719 280.502 326.666 277.875C326.505 272.889 326.827 269.726 327.47 269.351C327.792 269.136 351.489 268.922 380.118 268.922C421.132 268.922 432.338 269.083 432.766 269.565Z" fill="white"/>
<path d="M318.302 289.885C317.98 290.206 317.819 290.85 317.98 291.225C318.195 291.868 327.899 291.976 379.207 291.976C441.72 291.976 442.47 291.976 440.862 289.992C440.058 289.027 319.267 288.92 318.302 289.885Z" fill="white"/>
<path d="M375.776 297.873C318.034 298.195 321.68 297.927 320.018 301.412C319.428 302.698 319.214 305.165 319.214 311.384C319.214 320.391 319.642 321.946 322.806 323.983C324.2 324.894 327.202 324.948 380.065 324.948H435.822L437.484 323.768C440.594 321.57 441.023 319.801 440.808 310.204L440.648 301.626L438.986 299.964C437.163 298.141 434.375 297.283 430.729 297.498C429.389 297.551 404.673 297.712 375.776 297.873ZM432.874 304.575C433.785 305.701 433.624 317.228 432.713 317.817C432.338 318.032 408.64 318.246 380.065 318.246C340.284 318.246 327.845 318.085 327.363 317.603C326.934 317.174 326.719 314.922 326.719 310.901C326.719 305.754 326.827 304.843 327.684 304.36C328.274 303.985 346.235 303.824 380.386 303.771C426.494 303.771 432.284 303.878 432.874 304.575Z" fill="white"/>
<path d="M329.829 307.631C329.722 308.006 329.668 309.025 329.722 309.936C329.775 310.794 329.829 312.349 329.883 313.26L329.936 315.029H368.27H406.603V311.008V306.987H368.323C338.193 306.987 329.99 307.148 329.829 307.631Z" fill="white"/>
<path d="M409.713 307.631C409.552 308.006 409.391 309.829 409.337 311.652L409.23 315.029H419.953H430.729V311.008V306.987H420.328C412.501 306.987 409.874 307.148 409.713 307.631Z" fill="white"/>
<path d="M318.624 331.971C318.088 332.615 318.088 332.883 318.624 333.204C318.999 333.419 346.61 333.633 379.957 333.58C440.272 333.526 440.648 333.526 440.648 332.454C440.648 331.381 440.219 331.381 380.011 331.221C325.272 331.113 319.267 331.167 318.624 331.971Z" fill="white"/>
<path d="M322.591 339.423C319.696 340.657 319.214 342.372 319.214 351.486C319.214 360.493 319.696 362.37 322.377 363.978C323.771 364.783 328.328 364.89 379.743 364.89C432.713 364.943 435.715 364.89 437.27 363.978C440.326 362.155 440.916 360.225 440.916 351.594C440.916 343.337 440.38 341.032 438.181 339.477C437.056 338.673 431.801 338.619 380.601 338.619C333.85 338.673 324.039 338.78 322.591 339.423ZM340.391 345.589C340.391 346.929 340.337 346.929 335.19 347.09L329.936 347.251V351.111V354.971L365.535 354.81C398.936 354.65 401.135 354.703 401.456 355.561C401.671 356.097 401.564 356.741 401.242 357.062C400.813 357.491 389.554 357.652 363.82 357.652H326.987V351.218C326.987 343.659 326.559 344.034 335.029 344.141C340.391 344.249 340.391 344.249 340.391 345.589ZM432.391 344.517C433.303 345.053 433.41 345.696 433.41 351.218C433.41 356.741 433.303 357.384 432.391 357.92C430.836 358.724 408.104 358.671 407.247 357.813C406.818 357.384 406.603 355.132 406.603 351.111C406.603 345.964 406.71 345.053 407.568 344.57C408.801 343.82 430.997 343.82 432.391 344.517Z" fill="white"/>
<path d="M409.82 351.218V355.239H420.275H430.783L430.622 351.326L430.461 347.465L420.167 347.305L409.82 347.197V351.218Z" fill="white"/>
<path d="M318.302 372.128C318.141 372.61 318.088 373.093 318.195 373.2C318.624 373.575 420.275 374.004 430.622 373.629C440.165 373.307 440.916 373.253 440.916 372.288C440.916 371.377 438.878 371.323 379.796 371.323C325.165 371.323 318.624 371.431 318.302 372.128Z" fill="white"/>
<path d="M323.931 378.722C322.484 378.829 321.572 379.365 320.554 380.491C319.267 382.1 319.214 382.314 319.214 390.41C319.214 399.738 319.589 401.186 322.591 402.794C324.2 403.706 327.899 403.759 379.528 403.92C441.184 404.027 437.056 404.295 439.683 400.328C440.808 398.666 440.916 397.916 440.916 390.785C440.916 382.475 440.433 380.598 438.074 379.258C437.163 378.722 424.617 378.615 381.405 378.561C350.899 378.561 325.004 378.615 323.931 378.722ZM340.552 384.405C340.873 385.96 339.694 386.335 334.976 386.281C332.563 386.228 330.311 386.389 329.99 386.549C329.346 386.978 329.186 390.088 329.722 392.715L330.097 394.377H365.643H401.242V395.717V397.004L365.214 397.165C345.377 397.272 328.596 397.165 327.952 396.95C326.773 396.575 326.719 396.307 326.719 390.356C326.719 382.904 326.451 383.118 334.761 383.279C339.801 383.386 340.391 383.494 340.552 384.405ZM431.801 383.815C433.088 384.459 433.142 384.727 433.303 390.302C433.41 394.109 433.249 396.361 432.82 396.843C431.909 397.969 408.104 397.969 407.193 396.843C406.764 396.361 406.603 394.055 406.71 390.034L406.871 383.922L410.356 383.601C417.433 383.011 430.407 383.118 431.801 383.815Z" fill="white"/>
<path d="M411.857 386.71L409.82 386.925V390.678V394.377H420.275H430.783L430.622 390.463L430.461 386.603L422.151 386.55C417.594 386.55 412.93 386.603 411.857 386.71Z" fill="white"/>
<path d="M318.785 410.032C318.409 410.407 318.141 410.997 318.141 411.319C318.141 412.123 320.018 412.82 320.822 412.338C321.68 411.801 321.465 410.086 320.5 409.71C319.428 409.282 319.535 409.282 318.785 410.032Z" fill="white"/>
<path d="M328.757 409.764C328.221 409.871 327.792 410.461 327.792 411.051C327.792 412.016 328.489 412.069 352.722 412.069C376.848 412.069 377.652 412.016 377.652 411.051C377.652 410.515 377.277 409.871 376.794 409.71C375.829 409.335 330.151 409.389 328.757 409.764Z" fill="white"/>
<path d="M385.211 410.407C384.514 411.641 384.943 412.069 386.873 412.069C387.999 412.069 388.375 411.801 388.375 411.051C388.375 410.139 387.41 409.389 386.23 409.389C385.962 409.389 385.48 409.818 385.211 410.407Z" fill="white"/>
<path d="M391.859 410.086C389.393 411.909 391.163 412.069 416.307 412.069C440.111 412.069 440.916 412.016 440.916 411.051C440.916 410.515 440.54 409.871 440.058 409.71C439.575 409.55 428.799 409.389 416.039 409.389C397.435 409.389 392.664 409.55 391.859 410.086Z" fill="white"/>
<path d="M321.036 418.717L319.214 420.54V429.118C319.214 437.107 319.267 437.75 320.447 439.466C321.09 440.431 322.269 441.557 322.966 441.932C324.897 442.897 435.233 442.897 437.109 441.932C437.806 441.61 438.932 440.592 439.522 439.788C440.54 438.447 440.648 437.375 440.808 430.191C441.023 421.452 440.648 419.79 438.342 417.967C437.056 416.895 435.876 416.895 379.957 416.895H322.859L321.036 418.717ZM339.587 423.06C339.962 423.489 340.123 424.24 339.908 424.669C339.694 425.312 338.622 425.473 334.815 425.473C329.293 425.473 329.025 425.687 329.668 430.298L330.043 432.925L338.139 433.086C346.02 433.247 346.288 433.3 346.449 434.426C346.61 435.552 346.503 435.552 337.871 435.767C333.046 435.874 328.596 435.767 327.899 435.552C326.719 435.123 326.666 434.962 326.827 429.118C326.987 422.042 326.666 422.417 334.279 422.31C337.764 422.256 339.104 422.47 339.587 423.06ZM432.391 422.792C433.303 423.328 433.41 423.972 433.41 429.118C433.41 432.925 433.195 435.123 432.766 435.552C432.284 436.035 428.638 436.195 419.685 436.195C408.855 436.195 407.193 436.088 406.925 435.338C406.764 434.855 406.603 432.014 406.603 428.958C406.603 424.186 406.764 423.275 407.568 422.846C408.801 422.095 430.997 422.095 432.391 422.792Z" fill="white"/>
<path d="M409.927 429.333L410.088 433.247L415.449 433.193C418.398 433.193 423.062 433.139 425.797 433.086L430.729 432.979V429.226V425.473H420.275H409.766L409.927 429.333Z" fill="white"/>
<path d="M35.7601 303.824C34.0445 304.468 33.2939 306.29 33.5619 309.239C34.0445 314.011 35.8137 314.118 36.4034 309.4L36.7787 306.451L95.0564 306.344L153.28 306.183L153.441 305.057C153.548 304.2 153.227 303.824 152.262 303.556C150.278 303.074 37.154 303.288 35.7601 303.824Z" fill="white"/>
<path d="M161.215 303.61C160.572 303.717 159.928 304.146 159.768 304.575C159.339 305.808 160.84 306.505 163.574 306.344C165.558 306.237 166.201 305.969 166.308 305.165C166.63 303.503 164.807 302.913 161.215 303.61Z" fill="white"/>
<path d="M175.101 303.663C173.6 303.824 173.332 304.039 173.493 305.004C173.653 306.13 173.921 306.183 178.479 306.183C182.768 306.183 183.304 306.076 183.465 305.165C183.572 304.628 183.357 303.985 182.982 303.717C182.285 303.288 178.479 303.288 175.101 303.663Z" fill="white"/>
<path d="M191.453 303.61C190.81 303.771 190.542 304.253 190.649 305.004C190.81 306.076 191.185 306.183 195.26 306.344L199.656 306.505V345.214C199.656 366.659 199.87 384.244 200.138 384.673C200.406 385.102 200.996 385.263 201.425 385.102C202.605 384.673 202.765 378.99 202.658 340.067L202.605 305.272L201.318 304.253C200.353 303.449 199.281 303.234 196.225 303.288C194.134 303.342 191.989 303.449 191.453 303.61Z" fill="white"/>
<path d="M34.0981 318.89C33.6156 319.372 33.4547 326.878 33.4547 349.396C33.4547 375.237 33.5619 379.312 34.2589 379.901C34.9023 380.438 35.224 380.438 35.8673 379.901C36.5643 379.312 36.6715 375.237 36.6715 349.396C36.6715 320.123 36.5643 318.246 35.0631 318.246C34.9023 318.246 34.4734 318.514 34.0981 318.89Z" fill="white"/>
<path d="M42.1937 380.974C41.4967 381.242 40.9606 381.671 40.9606 381.939C40.9606 383.494 42.5154 383.654 56.0259 383.654C67.9817 383.654 69.8581 383.547 70.5015 382.797C71.0912 382.046 71.0376 381.832 70.1798 381.188C69.3756 380.598 66.4805 380.438 56.294 380.491C49.1634 380.491 42.837 380.706 42.1937 380.974Z" fill="white"/>
<path d="M84.1192 381.295C83.4758 381.992 83.4222 382.314 83.9047 382.904C84.8161 384.03 114.518 384.03 115.429 382.904C115.912 382.314 115.858 381.992 115.268 381.403C114.679 380.759 111.784 380.598 99.7206 380.545C86.9607 380.491 84.8698 380.598 84.1192 381.295Z" fill="white"/>
<path d="M127.814 381.242C126.849 382.368 127.546 383.654 129.154 383.654C129.905 383.654 130.656 383.279 130.816 382.85C131.192 381.939 130.173 380.438 129.154 380.438C128.779 380.438 128.189 380.813 127.814 381.242Z" fill="white"/>
<path d="M148.08 380.974C146.579 381.885 146.954 383.065 148.884 383.386C149.796 383.547 160.036 383.601 171.509 383.547C192.364 383.386 192.418 383.386 192.579 382.26C192.686 381.403 192.418 381.027 191.507 380.813C189.04 380.277 148.991 380.438 148.08 380.974Z" fill="white"/>
<path d="M285.759 16.1354C285.276 17.4221 285.223 17.3685 287.474 17.9582C290.209 18.7624 291.174 18.7088 291.549 17.7438C291.871 16.8324 290.745 16.0818 288.064 15.5992C286.509 15.3312 286.027 15.4384 285.759 16.1354Z" fill="white"/>
<path d="M169.793 19.513C167.434 20.4244 166.952 21.175 168.239 22.2472C168.775 22.6761 169.525 22.5689 171.402 21.7647C173.332 20.9069 173.761 20.478 173.546 19.6202C173.225 18.3335 172.796 18.3335 169.793 19.513Z" fill="white"/>
<path d="M299.001 19.9419C298.626 21.0142 299.162 21.4967 301.628 22.3009C305.06 23.3732 306.132 21.2286 302.861 19.8347C300.502 18.8697 299.43 18.8697 299.001 19.9419Z" fill="white"/>
<path d="M312.619 23.7485C311.654 24.7135 312.405 25.8394 314.656 26.7508C317.069 27.7694 318.141 27.6622 318.141 26.3219C318.141 25.1424 313.37 22.9443 312.619 23.7485Z" fill="white"/>
<path d="M155.854 24.7671C154.031 25.5177 153.495 26.9653 154.782 27.4478C155.854 27.8231 160.625 25.625 160.411 24.8208C160.089 23.9093 157.837 23.8557 155.854 24.7671Z" fill="white"/>
<path d="M325.486 29.1098C324.628 29.914 325.218 30.8254 327.363 32.1121C329.775 33.5597 331.008 33.506 331.008 31.9513C331.008 31.3079 330.151 30.5573 328.703 29.8603C326.13 28.6272 325.969 28.5736 325.486 29.1098Z" fill="white"/>
<path d="M142.987 30.3965C141.432 31.0934 140.681 31.7904 140.681 32.4874C140.681 33.9885 141.754 34.0422 144.327 32.8091C145.935 32.0049 146.525 31.4151 146.472 30.6645C146.257 29.217 145.614 29.217 142.987 30.3965Z" fill="white"/>
<path d="M338.353 36.0795C337.496 36.8837 338.139 37.9023 340.176 38.921C343.876 40.8511 345.377 39.1354 341.999 36.8837C340.123 35.7042 338.997 35.4361 338.353 36.0795Z" fill="white"/>
<path d="M129.851 37.6343C127.332 38.921 126.581 40.2613 128.029 40.8511C128.833 41.1728 132.854 39.2963 133.497 38.3313C133.658 38.0096 133.497 37.4198 133.122 37.0446C132.478 36.4548 131.942 36.562 129.851 37.6343Z" fill="white"/>
<path d="M350.631 43.6926C350.041 44.6041 350.899 45.7299 352.936 46.8558C354.491 47.7136 355.081 47.8745 355.563 47.392C356.528 46.4269 356.367 46.0516 354.223 44.5505C352.078 43.1565 351.113 42.8884 350.631 43.6926Z" fill="white"/>
<path d="M116.823 45.7835C114.518 47.3919 113.875 48.7858 115.161 49.2683C116.234 49.6972 120.415 46.5877 120.201 45.5154C119.933 44.1214 119.129 44.2287 116.823 45.7835Z" fill="white"/>
<path d="M363.123 52.1635C362.479 52.8605 362.694 53.2358 364.517 54.8442C366.608 56.6134 368.001 56.9351 368.377 55.702C368.591 55.1122 366.339 52.6996 364.731 51.7882C364.088 51.4129 363.605 51.5201 363.123 52.1635Z" fill="white"/>
<path d="M103.635 56.0772C101.651 57.8465 101.436 58.2754 102.08 58.7579C103.206 59.5085 103.259 59.5085 105.725 57.4176C107.066 56.2381 107.816 55.2194 107.602 54.7369C107.119 53.4502 106.101 53.7719 103.635 56.0772Z" fill="white"/>
<path d="M399.151 56.2917C394.487 58.8651 396.309 66.2638 401.617 66.2638C406.603 66.2102 408.855 60.9024 405.316 57.364C403.333 55.3803 401.403 55.0586 399.151 56.2917ZM403.922 59.3477C404.78 60.9024 404.137 62.9934 402.582 63.6903C401.456 64.1728 401.081 64.1192 400.17 63.315C398.99 62.2428 398.722 59.8838 399.741 58.8651C400.813 57.7929 403.279 58.0609 403.922 59.3477Z" fill="white"/>
<path d="M375.347 62.7253C374.971 63.6367 378.671 67.3361 379.957 67.3361C381.405 67.3361 381.03 66.103 378.831 63.9584C376.687 61.8675 375.775 61.5458 375.347 62.7253Z" fill="white"/>
<path d="M91.9468 66.4782C90.8209 67.6577 90.2848 68.6764 90.4456 69.1589C90.9281 70.4456 91.6787 70.2312 93.8769 68.2475C95.2172 67.0144 95.6997 66.1566 95.4853 65.5668C94.9491 64.1729 93.8769 64.4945 91.9468 66.4782Z" fill="white"/>
<path d="M387.785 74.0913C387.195 74.7883 387.463 75.2172 389.34 77.1473C391.323 79.131 391.645 79.2918 392.396 78.5412C393.146 77.8443 393.039 77.5226 391.27 75.4853C389.179 72.9655 388.804 72.8582 387.785 74.0913Z" fill="white"/>
<path d="M81.7067 76.9864C80.0983 79.0237 79.8302 80.7393 81.1706 80.7393C81.8675 80.7393 84.8699 77.4689 84.9235 76.6647C84.9235 76.3431 84.6018 75.7533 84.1729 75.4316C83.5832 74.9491 83.1006 75.2708 81.7067 76.9864Z" fill="white"/>
<path d="M398.025 86.5832C398.025 87.8699 400.545 90.9259 401.564 90.9259C403.011 90.9259 402.957 89.3711 401.51 87.441C399.901 85.4037 398.025 84.9212 398.025 86.5832Z" fill="white"/>
<path d="M72.3244 88.2989C70.984 90.3362 70.9304 90.6042 71.7882 91.4084C72.5924 92.2126 72.7533 92.1054 74.2008 90.3898C75.9701 88.2989 76.1309 87.7091 75.1659 86.7441C74.2008 85.779 73.9328 85.9399 72.3244 88.2989Z" fill="white"/>
<path d="M406.818 97.6276C406.496 98.4318 408.962 102.185 409.766 102.185C410.034 102.185 410.463 101.863 410.785 101.488C411.267 100.952 411.053 100.255 410.034 98.8071C408.64 96.7161 407.3 96.2336 406.818 97.6276Z" fill="white"/>
<path d="M64.4432 99.2896C62.0842 102.614 64.1215 104.222 66.6413 101.005C67.6064 99.8257 67.8208 99.1823 67.4455 98.539C66.5341 97.0914 65.8371 97.2523 64.4432 99.2896Z" fill="white"/>
<path d="M414.484 108.833C414.109 109.744 416.682 113.443 417.701 113.443C418.988 113.443 419.095 111.889 417.862 109.959C416.682 108.029 414.967 107.492 414.484 108.833Z" fill="white"/>
<path d="M57.3126 110.816C56.1867 112.532 56.0259 113.122 56.562 113.765C56.8837 114.194 57.3662 114.516 57.6343 114.516C58.3313 114.516 60.6902 110.602 60.4222 109.851C59.886 108.404 58.7065 108.779 57.3126 110.816Z" fill="white"/>
<path d="M421.454 120.574C421.132 121.485 423.116 124.702 424.027 124.702C425.529 124.702 425.85 123.362 424.724 121.593C423.652 119.823 421.936 119.341 421.454 120.574Z" fill="white"/>
<path d="M50.9326 122.29C50.0212 124.22 50.0748 125.775 51.0934 125.775C51.9512 125.775 53.9349 122.611 53.7205 121.646C53.3988 119.877 51.8976 120.252 50.9326 122.29Z" fill="white"/>
<path d="M428.156 131.779C427.673 132.262 427.834 132.852 428.692 134.46C429.925 136.604 430.622 136.926 431.694 135.854C432.177 135.371 432.016 134.782 431.158 133.173C429.925 131.029 429.228 130.707 428.156 131.779Z" fill="white"/>
<path d="M45.0352 134.031C43.9629 136.336 43.9629 136.819 45.0888 137.248C46.0002 137.623 46.3219 137.301 47.6622 134.835C48.1984 133.763 48.252 133.28 47.7694 132.798C46.7508 131.779 45.9466 132.154 45.0352 134.031Z" fill="white"/>
<path d="M433.463 143.145C432.552 144.217 434.696 148.453 435.983 148.185C437.109 147.917 437.055 145.504 435.822 143.681C434.857 142.18 434.321 142.073 433.463 143.145Z" fill="white"/>
<path d="M40.1027 145.933C39.1913 148.078 39.4058 149.364 40.6925 149.364C41.6575 149.364 43.3195 145.879 42.8906 144.754C42.3545 143.36 40.9069 144.003 40.1027 145.933Z" fill="white"/>
<path d="M438.449 155.476C437.913 156.817 439.307 159.551 440.487 159.551C441.881 159.551 442.202 158.318 441.345 156.495C440.54 154.779 438.932 154.243 438.449 155.476Z" fill="white"/>
<path d="M36.1353 157.138C35.0095 160.087 34.9558 160.998 35.8673 161.374C37.1004 161.856 37.5829 161.427 38.2799 159.229C38.7624 157.782 38.7624 157.192 38.2799 156.602C37.3148 155.423 36.7251 155.637 36.1353 157.138Z" fill="white"/>
<path d="M442.738 166.789C442.363 167.7 443.275 170.274 443.972 170.274C445.312 170.22 445.848 169.255 445.366 167.807C444.776 166.038 443.221 165.448 442.738 166.789Z" fill="white"/>
<path d="M32.3288 169.577C32.0071 170.381 31.6318 171.721 31.471 172.525C31.2029 173.758 31.3638 174.026 32.2752 174.026C33.4547 174.026 34.1517 173.115 34.7414 170.702C35.0095 169.577 34.8486 169.094 33.9908 168.665C33.0794 168.183 32.8113 168.29 32.3288 169.577Z" fill="white"/>
<path d="M71.949 179.978C69.9117 182.176 71.4128 184.91 74.308 184.374C76.3453 183.999 76.8278 181.103 75.1658 179.817C73.611 178.637 73.1285 178.691 71.949 179.978Z" fill="white"/>
<path d="M447.028 184.213C447.564 188.663 448.314 190.647 449.547 190.647C450.727 190.647 450.727 190.486 449.976 185.875C449.333 182.068 448.743 180.996 447.456 180.996C446.813 180.996 446.759 181.532 447.028 184.213Z" fill="white"/>
<path d="M29.2192 182.497C28.9511 183.034 28.6295 184.427 28.5222 185.553C28.415 187.215 28.5758 187.698 29.2728 187.859C30.3451 188.073 31.3101 186.143 31.3101 183.677C31.3101 181.908 29.9698 181.157 29.2192 182.497Z" fill="white"/>
<path d="M110.336 191.397C109.586 193.327 110.336 194.131 112.963 194.292L115.483 194.453V192.577C115.483 190.647 115.483 190.647 113.07 190.647C111.408 190.647 110.551 190.915 110.336 191.397Z" fill="white"/>
<path d="M128.565 191.987C128.35 192.791 128.457 193.649 128.725 193.917C128.994 194.185 132.746 194.346 137.518 194.292L145.775 194.131V192.523V190.915L137.357 190.754L128.94 190.593L128.565 191.987Z" fill="white"/>
<path d="M151.511 191.29C150.653 192.148 150.707 193.703 151.565 194.024C152.476 194.346 154.085 193.435 154.085 192.523C154.085 191.397 152.262 190.539 151.511 191.29Z" fill="white"/>
<path d="M301.521 192.523V194.4H304.202H306.882V192.523V190.647H304.202H301.521V192.523Z" fill="white"/>
<path d="M320.929 191.29C319.481 192.738 321.197 195.204 322.966 194.131C323.824 193.595 323.61 191.344 322.645 190.968C321.572 190.539 321.68 190.539 320.929 191.29Z" fill="white"/>
<path d="M329.239 190.968C329.025 191.183 328.864 192.041 328.864 192.898C328.864 194.346 328.971 194.4 331.598 194.4H334.279L334.118 192.63C333.957 191.022 333.796 190.915 331.813 190.754C330.58 190.647 329.454 190.754 329.239 190.968Z" fill="white"/>
<path d="M120.469 192.041C120.04 193.113 121.595 194.668 122.667 194.239C123.15 194.024 123.525 193.274 123.525 192.523C123.525 191.451 123.257 191.183 122.185 191.183C121.434 191.183 120.683 191.558 120.469 192.041Z" fill="white"/>
<path d="M311.868 192.041C311.708 192.469 311.922 193.274 312.405 193.703C313.53 194.828 314.924 194.185 314.924 192.523C314.924 191.451 314.656 191.183 313.584 191.183C312.834 191.183 312.083 191.558 311.868 192.041Z" fill="white"/>
<path d="M27.5037 198.528C26.8603 200.19 27.3964 200.887 29.0585 200.511C31.0421 199.975 30.3988 197.08 28.3079 197.08C28.147 197.08 27.8253 197.724 27.5037 198.528Z" fill="white"/>
<path d="M450.405 199.6C449.708 200.243 450.03 205.98 450.727 206.999C451.906 208.553 452.711 207.428 452.711 204.264C452.711 200.458 451.638 198.313 450.405 199.6Z" fill="white"/>
<path d="M450.298 220.188C449.976 222.707 450.083 223.565 450.62 223.94C452.014 224.798 452.442 224.048 452.603 220.509C452.764 217.239 452.657 216.917 451.692 216.917C450.834 216.917 450.62 217.453 450.298 220.188Z" fill="white"/>
<path d="M448.743 231.875C448.529 232.143 448.261 233.484 448.1 234.824C447.778 236.808 447.885 237.344 448.636 237.612C449.976 238.148 450.459 237.397 450.888 234.181C451.209 231.607 451.156 231.393 450.137 231.393C449.494 231.393 448.904 231.607 448.743 231.875Z" fill="white"/>
<path d="M362.533 234.395C359.638 235.95 361.139 240.614 364.517 240.614C367.465 240.614 369.181 236.861 367.09 235.038C365.589 233.752 364.088 233.537 362.533 234.395ZM365.589 237.29C365.589 237.719 365.16 238.148 364.678 238.255C363.981 238.362 363.713 238.094 363.713 237.29C363.713 236.486 363.981 236.218 364.678 236.325C365.16 236.432 365.589 236.861 365.589 237.29Z" fill="white"/>
<path d="M150.064 241.579C148.348 241.794 147.865 242.115 147.758 243.027C147.597 244.206 147.758 244.26 150.546 244.26C153.334 244.26 153.548 244.153 153.548 242.973C153.548 241.418 152.905 241.15 150.064 241.579Z" fill="white"/>
<path d="M184.269 241.472C182.714 241.633 181.642 242.759 182.232 243.724C182.66 244.367 185.877 244.689 187.218 244.206C187.861 243.938 188.397 243.295 188.397 242.705C188.397 241.579 187.057 241.204 184.269 241.472Z" fill="white"/>
<path d="M248.605 241.418C247.64 241.794 247.747 244.099 248.766 244.474C249.248 244.635 253.537 244.796 258.362 244.796C263.188 244.796 267.477 244.635 267.959 244.474C269.3 243.938 269.032 241.74 267.638 241.365C266.19 240.989 249.516 240.989 248.605 241.418Z" fill="white"/>
<path d="M125.133 242.866C125.133 243.885 125.509 244.206 127.01 244.474C129.691 245.01 131.031 244.474 131.031 242.866C131.031 241.686 130.87 241.579 128.082 241.579C125.348 241.579 125.133 241.686 125.133 242.866Z" fill="white"/>
<path d="M136.392 242.866C136.392 244.206 137.25 244.796 139.341 244.796C141.432 244.796 142.29 244.206 142.29 242.866C142.29 241.686 142.075 241.579 139.341 241.579C136.607 241.579 136.392 241.686 136.392 242.866Z" fill="white"/>
<path d="M159.446 242.866C159.446 243.938 159.768 244.206 161.59 244.528C164.11 244.957 164.807 244.635 164.807 242.866C164.807 241.686 164.593 241.579 162.127 241.579C159.66 241.579 159.446 241.686 159.446 242.866Z" fill="white"/>
<path d="M170.329 242.437C169.686 244.153 173.171 245.439 175.744 244.474C176.227 244.313 176.602 243.563 176.602 242.866C176.602 241.686 176.388 241.579 173.653 241.579C171.402 241.579 170.597 241.794 170.329 242.437Z" fill="white"/>
<path d="M194.295 242.92C194.295 243.67 194.616 244.26 194.992 244.313C195.313 244.313 196.117 244.421 196.707 244.582C198.798 245.01 200.192 244.313 200.192 242.92C200.192 241.633 200.031 241.579 197.243 241.579C194.455 241.579 194.295 241.633 194.295 242.92Z" fill="white"/>
<path d="M205.982 241.901C205.178 242.705 206.358 244.26 208.02 244.582C210.486 245.01 211.451 244.582 211.451 242.92C211.451 241.686 211.29 241.579 208.877 241.579C207.43 241.579 206.143 241.74 205.982 241.901Z" fill="white"/>
<path d="M217.348 242.866C217.348 244.206 217.509 244.26 220.351 244.26C223.139 244.26 223.299 244.206 223.139 243.027C222.978 242.008 222.602 241.847 220.19 241.686C217.455 241.526 217.348 241.579 217.348 242.866Z" fill="white"/>
<path d="M271.873 241.901C271.122 242.651 271.498 244.153 272.516 244.421C273.91 244.742 274.875 244.045 274.607 242.866C274.446 241.847 272.57 241.204 271.873 241.901Z" fill="white"/>
<path d="M279.915 242.651C279.54 244.206 281.47 245.225 282.649 244.099C283.721 242.973 283.078 241.579 281.47 241.579C280.666 241.579 280.129 241.955 279.915 242.651Z" fill="white"/>
<path d="M286.509 242.598C286.509 243.831 287.314 244.421 289.136 244.689C291.549 245.01 292.943 244.367 292.943 242.92C292.943 241.633 292.782 241.579 289.726 241.579C286.885 241.579 286.509 241.686 286.509 242.598Z" fill="white"/>
<path d="M298.84 242.866C298.84 244.26 300.663 244.903 303.29 244.421C304.363 244.206 304.738 243.831 304.738 242.866C304.738 241.686 304.523 241.579 301.789 241.579C299.055 241.579 298.84 241.686 298.84 242.866Z" fill="white"/>
<path d="M310.314 242.383C309.938 243.348 310.957 244.796 312.029 244.796C312.887 244.796 313.799 243.188 313.477 242.223C313.102 241.311 310.689 241.418 310.314 242.383Z" fill="white"/>
<path d="M410.731 241.901C410.517 242.115 410.356 242.866 410.356 243.563V244.85L418.559 244.689L426.708 244.528V243.188V241.847L418.881 241.686C414.592 241.633 410.946 241.74 410.731 241.901Z" fill="white"/>
<path d="M450.781 246.136C450.084 248.978 452.014 250.265 453.14 247.745C454.105 245.6 453.944 244.796 452.443 244.796C451.478 244.796 451.049 245.171 450.781 246.136Z" fill="white"/>
<path d="M168.185 264.365C166.469 265.598 165.611 268.6 166.416 270.584C167.863 274.015 172.099 274.873 174.672 272.3C176.441 270.53 176.924 268.815 176.066 266.777C174.833 263.829 170.758 262.542 168.185 264.365ZM173.278 266.885C175.047 268.654 172.367 272.568 170.276 271.281C168.721 270.262 168.292 269.083 168.989 267.635C169.686 266.134 172.099 265.705 173.278 266.885Z" fill="white"/>
<path d="M23.6435 277.875C23.1074 278.358 23.2146 280.824 23.7507 281.736C24.5013 282.915 25.9489 282.004 25.9489 280.288C25.9489 278.304 24.6085 276.857 23.6435 277.875Z" fill="white"/>
<path d="M265.225 286.668C264.582 286.882 263.724 287.633 263.241 288.33C260.239 292.565 266.297 297.337 269.728 293.37C271.23 291.6 271.283 289.885 269.889 288.116C268.71 286.614 266.887 286.025 265.225 286.668ZM268.013 290.635C268.013 291.976 267.798 292.244 266.672 292.244C265.547 292.244 265.278 291.976 265.171 290.475C265.01 288.813 265.064 288.705 266.512 288.866C267.798 289.027 268.013 289.295 268.013 290.635Z" fill="white"/>
<path d="M258.47 325.055C258.255 325.216 258.094 326.181 258.094 327.2C258.094 328.969 258.148 328.969 260.507 328.969H262.92V326.824C262.92 324.68 262.92 324.68 260.882 324.68C259.756 324.68 258.63 324.841 258.47 325.055Z" fill="white"/>
<path d="M275.143 325.055C275.036 325.27 274.983 325.806 275.036 326.127C275.09 326.503 275.143 327.307 275.197 327.897C275.251 328.808 275.626 328.969 277.717 328.969H280.129L279.969 326.932C279.808 325.001 279.754 324.948 277.556 324.787C276.377 324.68 275.251 324.841 275.143 325.055Z" fill="white"/>
<path d="M267.852 325.859C266.994 326.717 267.048 327.629 267.959 328.379C269.568 329.719 271.551 327.521 270.104 326.02C269.085 325.055 268.71 325.001 267.852 325.859Z" fill="white"/>
<path d="M10.4009 470.776C9.43588 471.902 10.1329 473.189 11.7412 473.189C13.5105 473.189 14.1538 471.687 12.8135 470.722C11.5268 469.757 11.2051 469.811 10.4009 470.776Z" fill="white"/>
<path d="M462.897 470.722C461.932 471.902 462.629 473.296 464.077 473.081C464.988 472.974 465.31 472.545 465.31 471.58C465.31 470.025 463.916 469.543 462.897 470.722Z" fill="white"/>
<path d="M21.5526 471.473C21.1773 471.902 21.1237 472.331 21.4454 472.652C21.9815 473.189 438.61 473.725 448.422 473.189C452.818 472.974 453.515 472.813 453.515 471.955C453.515 471.098 443.275 471.044 237.829 470.883C62.0306 470.776 21.9815 470.883 21.5526 471.473Z" fill="white"/>
</svg>
