<svg width="317" height="211" viewBox="0 0 317 211" fill="none" xmlns="http://www.w3.org/2000/svg">
<path d="M175.204 307.188C137.54 324.946 95.2117 326.972 56.0189 312.902L56.6929 311.026C136.564 339.713 224.871 298.077 253.558 218.205C267.455 179.514 265.453 137.727 247.925 100.552C230.397 63.377 199.429 35.2366 160.742 21.3491L161.416 19.4725C200.613 33.5506 231.971 62.0489 249.729 99.7124C267.487 137.376 269.512 179.705 255.443 218.897C241.366 258.072 212.867 289.43 175.204 307.188Z" fill="#CCCCCC"/>
<path d="M170.602 297.429C136.973 313.285 97.3179 316.338 59.6514 302.809L60.3254 300.933C134.62 327.617 216.776 288.881 243.469 214.582C270.153 140.287 231.413 58.1219 157.118 31.4379L157.792 29.5612C233.125 56.6181 272.403 139.923 245.35 215.265C231.817 252.922 204.223 281.577 170.602 297.429Z" fill="#CCCCCC"/>
<path d="M166.056 287.787C133.575 303.101 97.073 304.845 63.2707 292.712L63.9447 290.835C97.2456 302.795 133.202 301.066 165.194 285.982C197.195 270.894 221.402 244.245 233.358 210.958C245.319 177.657 243.589 141.701 228.505 109.708C213.417 77.707 186.768 53.4999 153.481 41.5442L154.155 39.6675C187.948 51.8049 215.004 76.3837 230.318 108.864C245.633 141.345 247.376 177.847 235.243 211.65C223.107 245.421 198.537 272.472 166.056 287.787Z" fill="#CCCCCC"/>
<path d="M161.454 278.027C132.8 291.538 99.0019 294.14 66.8989 282.61L67.573 280.733C130.741 303.42 200.587 270.489 223.274 207.321C245.962 144.153 213.03 74.3073 149.862 51.6196L150.536 49.743C214.742 72.8035 248.216 143.798 225.151 207.995C213.621 240.098 190.109 264.517 161.454 278.027Z" fill="#CCCCCC"/>
<path d="M156.883 268.331C130.715 280.669 99.8437 283.052 70.5225 272.521L71.1965 270.644C128.801 291.334 192.487 261.306 213.167 203.706C233.857 146.101 203.829 82.4154 146.229 61.735L146.903 59.8583C205.532 80.9159 236.106 145.76 215.048 204.389C204.531 233.693 183.05 255.993 156.883 268.331Z" fill="#CCCCCC"/>
<path d="M152.311 258.635C128.622 269.804 100.681 271.955 74.155 262.428L74.829 260.551C126.857 279.238 184.392 252.11 203.079 200.082C212.133 174.874 210.828 147.65 199.407 123.428C187.987 99.2051 167.814 80.8778 142.606 71.8238L143.28 69.9471C168.99 79.1737 189.561 97.8771 201.207 122.579C212.854 147.281 214.186 175.055 204.955 200.756C195.428 227.283 176 247.465 152.311 258.635Z" fill="#CCCCCC"/>
<path d="M147.739 248.938C126.538 258.935 101.532 260.863 77.7744 252.33L78.4484 250.453C124.913 267.142 176.288 242.918 192.977 196.454C209.665 149.99 185.442 98.6141 138.977 81.9259L139.651 80.0492C187.154 97.1103 211.919 149.635 194.858 197.137C186.334 220.868 168.941 238.942 147.739 248.938Z" fill="#CCCCCC"/>
</svg>
